<mxfile host="app.diagrams.net" modified="2024-03-02T21:10:53.586Z" agent="Mozilla/5.0 (Windows NT 10.0; Win64; x64) AppleWebKit/537.36 (KHTML, like Gecko) Chrome/122.0.0.0 Safari/537.36" etag="y3ho8uP5l478S2ManUTq" version="23.1.7" type="device">
  <diagram name="Page-1" id="iG-D0-FtFczu5ZnJ5Eyt">
    <mxGraphModel dx="2950" dy="1060" grid="1" gridSize="10" guides="1" tooltips="1" connect="1" arrows="1" fold="1" page="1" pageScale="1" pageWidth="850" pageHeight="1100" math="0" shadow="0">
      <root>
        <mxCell id="0" />
        <mxCell id="1" parent="0" />
        <UserObject label="" plantUmlData="{&#xa;  &quot;data&quot;: &quot;@startuml\nclass ScreenProfilesController {\n    - &lt;&lt;readonly&gt;&gt; _mediator : IMediator\n    - &lt;&lt;readonly&gt;&gt; _logger : ILogger&lt;ScreenProfilesController&gt;\n    + ScreenProfilesController(mediator:IMediator, logger:ILogger&lt;ScreenProfilesController&gt;)\n    + &lt;&lt;async&gt;&gt; CreateScreenProfile(createScreenProfile:CreateScreenProfileDto) : Task&lt;IActionResult&gt;\n    + &lt;&lt;async&gt;&gt; GetScreenProfile(id:int) : Task&lt;ActionResult&lt;ScreenProfileDto&gt;&gt;\n    + &lt;&lt;async&gt;&gt; UpdateScreenProfile(id:int, screenProfile:UpdateScreenProfileDto) : Task&lt;IActionResult&gt;\n    + &lt;&lt;async&gt;&gt; DeleteScreenProfile(id:int) : Task&lt;IActionResult&gt;\n    + &lt;&lt;async&gt;&gt; GetAllScreenProfiles() : Task&lt;ActionResult&lt;List&lt;ScreenProfileDto&gt;&gt;&gt;\n}\n@enduml\n&quot;,&#xa;  &quot;format&quot;: &quot;svg&quot;&#xa;}" id="inqcZ7f0K8DUZhspQT13-3">
          <mxCell style="shape=image;noLabel=1;verticalAlign=top;aspect=fixed;imageAspect=0;image=data:image/svg+xml,PD94bWwgdmVyc2lvbj0iMS4wIiBlbmNvZGluZz0idXMtYXNjaWkiIHN0YW5kYWxvbmU9Im5vIj8+PHN2ZyB4bWxucz0iaHR0cDovL3d3dy53My5vcmcvMjAwMC9zdmciIHhtbG5zOnhsaW5rPSJodHRwOi8vd3d3LnczLm9yZy8xOTk5L3hsaW5rIiBjb250ZW50U3R5bGVUeXBlPSJ0ZXh0L2NzcyIgaGVpZ2h0PSIxODhweCIgcHJlc2VydmVBc3BlY3RSYXRpbz0ibm9uZSIgc3R5bGU9IndpZHRoOjcxNnB4O2hlaWdodDoxODhweDtiYWNrZ3JvdW5kOiNGRkZGRkY7IiB2ZXJzaW9uPSIxLjEiIHZpZXdCb3g9IjAgMCA3MTYgMTg4IiB3aWR0aD0iNzE2cHgiIHpvb21BbmRQYW49Im1hZ25pZnkiPjxkZWZzLz48Zz48IS0tY2xhc3MgU2NyZWVuUHJvZmlsZXNDb250cm9sbGVyLS0+PGcgaWQ9ImVsZW1fU2NyZWVuUHJvZmlsZXNDb250cm9sbGVyIj48cmVjdCBjb2RlTGluZT0iMSIgZmlsbD0iI0YxRjFGMSIgaGVpZ2h0PSIxNjcuODc1IiBpZD0iU2NyZWVuUHJvZmlsZXNDb250cm9sbGVyIiByeD0iMi41IiByeT0iMi41IiBzdHlsZT0ic3Ryb2tlOiMxODE4MTg7c3Ryb2tlLXdpZHRoOjAuNTsiIHdpZHRoPSI2OTUiIHg9IjciIHk9IjciLz48ZWxsaXBzZSBjeD0iMjY2LjI1IiBjeT0iMjMiIGZpbGw9IiNBREQxQjIiIHJ4PSIxMSIgcnk9IjExIiBzdHlsZT0ic3Ryb2tlOiMxODE4MTg7c3Ryb2tlLXdpZHRoOjEuMDsiLz48cGF0aCBkPSJNMjYzLjg3NSwyNy4yNSBMMjYzLjg3NSwyOSBMMjY4LjgxMjUsMjkgTDI2OC44MTI1LDI3LjI1IEwyNjMuODc1LDI3LjI1IFogTTI2NC41NjI1LDI3LjkzNzUgUTI2NC41NjI1LDI3LjkzNzUgMjY0LjU2MjUsMTguNzUgTDI2Mi44MTI1LDE4Ljc1IFEyNjIuODEyNSwxOC43NSAyNjIuODEyNSwyNy45Mzc1IEwyNjQuNTYyNSwyNy45Mzc1IFogTTI2OC4xMjUsMjcuOTM3NSBMMjY5Ljg3NSwyNy45Mzc1IFEyNjkuODc1LDI3LjkzNzUgMjY5Ljg3NSwyNS4xMjUgTDI2OC4xMjUsMjUuMTI1IFEyNjguMTI1LDI1LjEyNSAyNjguMTI1LDI3LjkzNzUgWiBNMjY4LjEyNSwxOC43NSBRMjY4LjEyNSwxOC43NSAyNjguMTI1LDIxLjU2MjUgTDI2OS44NzUsMjEuNTYyNSBRMjY5Ljg3NSwyMS41NjI1IDI2OS44NzUsMTguNzUgTDI2OC4xMjUsMTguNzUgWiBNMjYzLjg3NSwxOS40Mzc1IEwyNjguODEyNSwxOS40Mzc1IEwyNjguODEyNSwxNy42ODc1IEwyNjMuODc1LDE3LjY4NzUgTDI2My44NzUsMTkuNDM3NSBaICIgZmlsbD0iIzAwMDAwMCIvPjx0ZXh0IGZpbGw9IiMwMDAwMDAiIGZvbnQtZmFtaWx5PSJzYW5zLXNlcmlmIiBmb250LXNpemU9IjE0IiBsZW5ndGhBZGp1c3Q9InNwYWNpbmciIHRleHRMZW5ndGg9IjE2OCIgeD0iMjg2Ljc1IiB5PSIyOC43NDIyIj5TY3JlZW5Qcm9maWxlc0NvbnRyb2xsZXI8L3RleHQ+PGxpbmUgc3R5bGU9InN0cm9rZTojMTgxODE4O3N0cm9rZS13aWR0aDowLjU7IiB4MT0iOCIgeDI9IjcwMSIgeTE9IjM5IiB5Mj0iMzkiLz48cmVjdCBmaWxsPSJub25lIiBoZWlnaHQ9IjYiIHN0eWxlPSJzdHJva2U6I0M4MjkzMDtzdHJva2Utd2lkdGg6MS4wOyIgd2lkdGg9IjYiIHg9IjE1IiB5PSI0OC45OTIyIi8+PHRleHQgZmlsbD0iIzAwMDAwMCIgZm9udC1mYW1pbHk9InNhbnMtc2VyaWYiIGZvbnQtc2l6ZT0iMTQiIGxlbmd0aEFkanVzdD0ic3BhY2luZyIgdGV4dExlbmd0aD0iMjI3IiB4PSIyNyIgeT0iNTYuMjM0NCI+JiMxNzE7cmVhZG9ubHkmIzE4NzsgX21lZGlhdG9yIDogSU1lZGlhdG9yPC90ZXh0PjxyZWN0IGZpbGw9Im5vbmUiIGhlaWdodD0iNiIgc3R5bGU9InN0cm9rZTojQzgyOTMwO3N0cm9rZS13aWR0aDoxLjA7IiB3aWR0aD0iNiIgeD0iMTUiIHk9IjYzLjk3NjYiLz48dGV4dCBmaWxsPSIjMDAwMDAwIiBmb250LWZhbWlseT0ic2Fucy1zZXJpZiIgZm9udC1zaXplPSIxNCIgbGVuZ3RoQWRqdXN0PSJzcGFjaW5nIiB0ZXh0TGVuZ3RoPSIzODAiIHg9IjI3IiB5PSI3MS4yMTg4Ij4mIzE3MTtyZWFkb25seSYjMTg3OyBfbG9nZ2VyIDogSUxvZ2dlciZsdDtTY3JlZW5Qcm9maWxlc0NvbnRyb2xsZXImZ3Q7PC90ZXh0PjxsaW5lIHN0eWxlPSJzdHJva2U6IzE4MTgxODtzdHJva2Utd2lkdGg6MC41OyIgeDE9IjgiIHgyPSI3MDEiIHkxPSI3Ni45Njg4IiB5Mj0iNzYuOTY4OCIvPjxlbGxpcHNlIGN4PSIxOCIgY3k9Ijg5Ljk2MDkiIGZpbGw9IiM4NEJFODQiIHJ4PSIzIiByeT0iMyIgc3R5bGU9InN0cm9rZTojMDM4MDQ4O3N0cm9rZS13aWR0aDoxLjA7Ii8+PHRleHQgZmlsbD0iIzAwMDAwMCIgZm9udC1mYW1pbHk9InNhbnMtc2VyaWYiIGZvbnQtc2l6ZT0iMTQiIGxlbmd0aEFkanVzdD0ic3BhY2luZyIgdGV4dExlbmd0aD0iNjA1IiB4PSIyNyIgeT0iOTQuMjAzMSI+U2NyZWVuUHJvZmlsZXNDb250cm9sbGVyKG1lZGlhdG9yOklNZWRpYXRvciwgbG9nZ2VyOklMb2dnZXImbHQ7U2NyZWVuUHJvZmlsZXNDb250cm9sbGVyJmd0Oyk8L3RleHQ+PGVsbGlwc2UgY3g9IjE4IiBjeT0iMTA0Ljk0NTMiIGZpbGw9IiM4NEJFODQiIHJ4PSIzIiByeT0iMyIgc3R5bGU9InN0cm9rZTojMDM4MDQ4O3N0cm9rZS13aWR0aDoxLjA7Ii8+PHRleHQgZmlsbD0iIzAwMDAwMCIgZm9udC1mYW1pbHk9InNhbnMtc2VyaWYiIGZvbnQtc2l6ZT0iMTQiIGxlbmd0aEFkanVzdD0ic3BhY2luZyIgdGV4dExlbmd0aD0iNjU1IiB4PSIyNyIgeT0iMTA5LjE4NzUiPiYjMTcxO2FzeW5jJiMxODc7IENyZWF0ZVNjcmVlblByb2ZpbGUoY3JlYXRlU2NyZWVuUHJvZmlsZTpDcmVhdGVTY3JlZW5Qcm9maWxlRHRvKSA6IFRhc2smbHQ7SUFjdGlvblJlc3VsdCZndDs8L3RleHQ+PGVsbGlwc2UgY3g9IjE4IiBjeT0iMTE5LjkyOTciIGZpbGw9IiM4NEJFODQiIHJ4PSIzIiByeT0iMyIgc3R5bGU9InN0cm9rZTojMDM4MDQ4O3N0cm9rZS13aWR0aDoxLjA7Ii8+PHRleHQgZmlsbD0iIzAwMDAwMCIgZm9udC1mYW1pbHk9InNhbnMtc2VyaWYiIGZvbnQtc2l6ZT0iMTQiIGxlbmd0aEFkanVzdD0ic3BhY2luZyIgdGV4dExlbmd0aD0iNTAxIiB4PSIyNyIgeT0iMTI0LjE3MTkiPiYjMTcxO2FzeW5jJiMxODc7IEdldFNjcmVlblByb2ZpbGUoaWQ6aW50KSA6IFRhc2smbHQ7QWN0aW9uUmVzdWx0Jmx0O1NjcmVlblByb2ZpbGVEdG8mZ3Q7Jmd0OzwvdGV4dD48ZWxsaXBzZSBjeD0iMTgiIGN5PSIxMzQuOTE0MSIgZmlsbD0iIzg0QkU4NCIgcng9IjMiIHJ5PSIzIiBzdHlsZT0ic3Ryb2tlOiMwMzgwNDg7c3Ryb2tlLXdpZHRoOjEuMDsiLz48dGV4dCBmaWxsPSIjMDAwMDAwIiBmb250LWZhbWlseT0ic2Fucy1zZXJpZiIgZm9udC1zaXplPSIxNCIgbGVuZ3RoQWRqdXN0PSJzcGFjaW5nIiB0ZXh0TGVuZ3RoPSI2NjkiIHg9IjI3IiB5PSIxMzkuMTU2MyI+JiMxNzE7YXN5bmMmIzE4NzsgVXBkYXRlU2NyZWVuUHJvZmlsZShpZDppbnQsIHNjcmVlblByb2ZpbGU6VXBkYXRlU2NyZWVuUHJvZmlsZUR0bykgOiBUYXNrJmx0O0lBY3Rpb25SZXN1bHQmZ3Q7PC90ZXh0PjxlbGxpcHNlIGN4PSIxOCIgY3k9IjE0OS44OTg0IiBmaWxsPSIjODRCRTg0IiByeD0iMyIgcnk9IjMiIHN0eWxlPSJzdHJva2U6IzAzODA0ODtzdHJva2Utd2lkdGg6MS4wOyIvPjx0ZXh0IGZpbGw9IiMwMDAwMDAiIGZvbnQtZmFtaWx5PSJzYW5zLXNlcmlmIiBmb250LXNpemU9IjE0IiBsZW5ndGhBZGp1c3Q9InNwYWNpbmciIHRleHRMZW5ndGg9IjQwMyIgeD0iMjciIHk9IjE1NC4xNDA2Ij4mIzE3MTthc3luYyYjMTg3OyBEZWxldGVTY3JlZW5Qcm9maWxlKGlkOmludCkgOiBUYXNrJmx0O0lBY3Rpb25SZXN1bHQmZ3Q7PC90ZXh0PjxlbGxpcHNlIGN4PSIxOCIgY3k9IjE2NC44ODI4IiBmaWxsPSIjODRCRTg0IiByeD0iMyIgcnk9IjMiIHN0eWxlPSJzdHJva2U6IzAzODA0ODtzdHJva2Utd2lkdGg6MS4wOyIvPjx0ZXh0IGZpbGw9IiMwMDAwMDAiIGZvbnQtZmFtaWx5PSJzYW5zLXNlcmlmIiBmb250LXNpemU9IjE0IiBsZW5ndGhBZGp1c3Q9InNwYWNpbmciIHRleHRMZW5ndGg9IjUyOSIgeD0iMjciIHk9IjE2OS4xMjUiPiYjMTcxO2FzeW5jJiMxODc7IEdldEFsbFNjcmVlblByb2ZpbGVzKCkgOiBUYXNrJmx0O0FjdGlvblJlc3VsdCZsdDtMaXN0Jmx0O1NjcmVlblByb2ZpbGVEdG8mZ3Q7Jmd0OyZndDs8L3RleHQ+PC9nPjwhLS1TUkM9W2JQN0QyaThtNDhKbEZpS1VNekdOMjI1RzU0SWU4RndTOVFJaDFEVDRhZFdldWhqUnNiZ2laT1d2WEowcHRtbkg5QnM3aE5BOFBrdGlLSEZ3Y0pOMU1JOXFTMXoxVFFSMGtLRFBNNEViNDcydU9BNWJpMHVPQjVWakZJZWFVcGZYQlNsaDZfeTY0aEx6X0JMOHlhQW8zWlkxOWZ0enA0eFJTQ3diQnVzZ1lpc2dhVzV4WGFHRHRyWDREbXlzaEdSamYzX3BQUVEyamNRM19hUDEzMldCMzdzNEJmV3NlUkVfa19hZEgwcHB6alRZcUJnOWQ4M2x6T3VlXy1Xekh5OHV2dV9iNkw3X0d2QnV4YnB4czdXblVabTFdLS0+PC9nPjwvc3ZnPg==;" vertex="1" parent="1">
            <mxGeometry x="-800" y="20" width="716" height="188" as="geometry" />
          </mxCell>
        </UserObject>
        <UserObject label="" plantUmlData="{&#xa;  &quot;data&quot;: &quot;@startuml\nclass ScreensController {\n    - &lt;&lt;readonly&gt;&gt; _mediator : IMediator\n    + ScreensController(mediator:IMediator)\n    + &lt;&lt;async&gt;&gt; PairScreen(pairScreenDto:PairScreenDto) : Task&lt;IActionResult&gt;\n    + &lt;&lt;async&gt;&gt; RemoveScreen(id:int) : Task&lt;IActionResult&gt;\n    + &lt;&lt;async&gt;&gt; GetScreen(id:int) : Task&lt;ActionResult&lt;ScreenDto&gt;&gt;\n    + &lt;&lt;async&gt;&gt; GetAllScreens() : Task&lt;ActionResult&lt;List&lt;ScreenDto&gt;&gt;&gt;\n}\n@enduml\n&quot;,&#xa;  &quot;format&quot;: &quot;svg&quot;&#xa;}" id="inqcZ7f0K8DUZhspQT13-6">
          <mxCell style="shape=image;noLabel=1;verticalAlign=top;aspect=fixed;imageAspect=0;image=data:image/svg+xml,PD94bWwgdmVyc2lvbj0iMS4wIiBlbmNvZGluZz0idXMtYXNjaWkiIHN0YW5kYWxvbmU9Im5vIj8+PHN2ZyB4bWxucz0iaHR0cDovL3d3dy53My5vcmcvMjAwMC9zdmciIHhtbG5zOnhsaW5rPSJodHRwOi8vd3d3LnczLm9yZy8xOTk5L3hsaW5rIiBjb250ZW50U3R5bGVUeXBlPSJ0ZXh0L2NzcyIgaGVpZ2h0PSIxNThweCIgcHJlc2VydmVBc3BlY3RSYXRpbz0ibm9uZSIgc3R5bGU9IndpZHRoOjUzNHB4O2hlaWdodDoxNThweDtiYWNrZ3JvdW5kOiNGRkZGRkY7IiB2ZXJzaW9uPSIxLjEiIHZpZXdCb3g9IjAgMCA1MzQgMTU4IiB3aWR0aD0iNTM0cHgiIHpvb21BbmRQYW49Im1hZ25pZnkiPjxkZWZzLz48Zz48IS0tY2xhc3MgU2NyZWVuc0NvbnRyb2xsZXItLT48ZyBpZD0iZWxlbV9TY3JlZW5zQ29udHJvbGxlciI+PHJlY3QgY29kZUxpbmU9IjEiIGZpbGw9IiNGMUYxRjEiIGhlaWdodD0iMTM3LjkwNjMiIGlkPSJTY3JlZW5zQ29udHJvbGxlciIgcng9IjIuNSIgcnk9IjIuNSIgc3R5bGU9InN0cm9rZTojMTgxODE4O3N0cm9rZS13aWR0aDowLjU7IiB3aWR0aD0iNTEzIiB4PSI3IiB5PSI3Ii8+PGVsbGlwc2UgY3g9IjE5OS43NSIgY3k9IjIzIiBmaWxsPSIjQUREMUIyIiByeD0iMTEiIHJ5PSIxMSIgc3R5bGU9InN0cm9rZTojMTgxODE4O3N0cm9rZS13aWR0aDoxLjA7Ii8+PHBhdGggZD0iTTE5Ny4zNzUsMjcuMjUgTDE5Ny4zNzUsMjkgTDIwMi4zMTI1LDI5IEwyMDIuMzEyNSwyNy4yNSBMMTk3LjM3NSwyNy4yNSBaIE0xOTguMDYyNSwyNy45Mzc1IFExOTguMDYyNSwyNy45Mzc1IDE5OC4wNjI1LDE4Ljc1IEwxOTYuMzEyNSwxOC43NSBRMTk2LjMxMjUsMTguNzUgMTk2LjMxMjUsMjcuOTM3NSBMMTk4LjA2MjUsMjcuOTM3NSBaIE0yMDEuNjI1LDI3LjkzNzUgTDIwMy4zNzUsMjcuOTM3NSBRMjAzLjM3NSwyNy45Mzc1IDIwMy4zNzUsMjUuMTI1IEwyMDEuNjI1LDI1LjEyNSBRMjAxLjYyNSwyNS4xMjUgMjAxLjYyNSwyNy45Mzc1IFogTTIwMS42MjUsMTguNzUgUTIwMS42MjUsMTguNzUgMjAxLjYyNSwyMS41NjI1IEwyMDMuMzc1LDIxLjU2MjUgUTIwMy4zNzUsMjEuNTYyNSAyMDMuMzc1LDE4Ljc1IEwyMDEuNjI1LDE4Ljc1IFogTTE5Ny4zNzUsMTkuNDM3NSBMMjAyLjMxMjUsMTkuNDM3NSBMMjAyLjMxMjUsMTcuNjg3NSBMMTk3LjM3NSwxNy42ODc1IEwxOTcuMzc1LDE5LjQzNzUgWiAiIGZpbGw9IiMwMDAwMDAiLz48dGV4dCBmaWxsPSIjMDAwMDAwIiBmb250LWZhbWlseT0ic2Fucy1zZXJpZiIgZm9udC1zaXplPSIxNCIgbGVuZ3RoQWRqdXN0PSJzcGFjaW5nIiB0ZXh0TGVuZ3RoPSIxMTkiIHg9IjIyMC4yNSIgeT0iMjguNzQyMiI+U2NyZWVuc0NvbnRyb2xsZXI8L3RleHQ+PGxpbmUgc3R5bGU9InN0cm9rZTojMTgxODE4O3N0cm9rZS13aWR0aDowLjU7IiB4MT0iOCIgeDI9IjUxOSIgeTE9IjM5IiB5Mj0iMzkiLz48cmVjdCBmaWxsPSJub25lIiBoZWlnaHQ9IjYiIHN0eWxlPSJzdHJva2U6I0M4MjkzMDtzdHJva2Utd2lkdGg6MS4wOyIgd2lkdGg9IjYiIHg9IjE1IiB5PSI0OC45OTIyIi8+PHRleHQgZmlsbD0iIzAwMDAwMCIgZm9udC1mYW1pbHk9InNhbnMtc2VyaWYiIGZvbnQtc2l6ZT0iMTQiIGxlbmd0aEFkanVzdD0ic3BhY2luZyIgdGV4dExlbmd0aD0iMjI3IiB4PSIyNyIgeT0iNTYuMjM0NCI+JiMxNzE7cmVhZG9ubHkmIzE4NzsgX21lZGlhdG9yIDogSU1lZGlhdG9yPC90ZXh0PjxsaW5lIHN0eWxlPSJzdHJva2U6IzE4MTgxODtzdHJva2Utd2lkdGg6MC41OyIgeDE9IjgiIHgyPSI1MTkiIHkxPSI2MS45ODQ0IiB5Mj0iNjEuOTg0NCIvPjxlbGxpcHNlIGN4PSIxOCIgY3k9Ijc0Ljk3NjYiIGZpbGw9IiM4NEJFODQiIHJ4PSIzIiByeT0iMyIgc3R5bGU9InN0cm9rZTojMDM4MDQ4O3N0cm9rZS13aWR0aDoxLjA7Ii8+PHRleHQgZmlsbD0iIzAwMDAwMCIgZm9udC1mYW1pbHk9InNhbnMtc2VyaWYiIGZvbnQtc2l6ZT0iMTQiIGxlbmd0aEFkanVzdD0ic3BhY2luZyIgdGV4dExlbmd0aD0iMjYyIiB4PSIyNyIgeT0iNzkuMjE4OCI+U2NyZWVuc0NvbnRyb2xsZXIobWVkaWF0b3I6SU1lZGlhdG9yKTwvdGV4dD48ZWxsaXBzZSBjeD0iMTgiIGN5PSI4OS45NjA5IiBmaWxsPSIjODRCRTg0IiByeD0iMyIgcnk9IjMiIHN0eWxlPSJzdHJva2U6IzAzODA0ODtzdHJva2Utd2lkdGg6MS4wOyIvPjx0ZXh0IGZpbGw9IiMwMDAwMDAiIGZvbnQtZmFtaWx5PSJzYW5zLXNlcmlmIiBmb250LXNpemU9IjE0IiBsZW5ndGhBZGp1c3Q9InNwYWNpbmciIHRleHRMZW5ndGg9IjQ4NyIgeD0iMjciIHk9Ijk0LjIwMzEiPiYjMTcxO2FzeW5jJiMxODc7IFBhaXJTY3JlZW4ocGFpclNjcmVlbkR0bzpQYWlyU2NyZWVuRHRvKSA6IFRhc2smbHQ7SUFjdGlvblJlc3VsdCZndDs8L3RleHQ+PGVsbGlwc2UgY3g9IjE4IiBjeT0iMTA0Ljk0NTMiIGZpbGw9IiM4NEJFODQiIHJ4PSIzIiByeT0iMyIgc3R5bGU9InN0cm9rZTojMDM4MDQ4O3N0cm9rZS13aWR0aDoxLjA7Ii8+PHRleHQgZmlsbD0iIzAwMDAwMCIgZm9udC1mYW1pbHk9InNhbnMtc2VyaWYiIGZvbnQtc2l6ZT0iMTQiIGxlbmd0aEFkanVzdD0ic3BhY2luZyIgdGV4dExlbmd0aD0iMzU1IiB4PSIyNyIgeT0iMTA5LjE4NzUiPiYjMTcxO2FzeW5jJiMxODc7IFJlbW92ZVNjcmVlbihpZDppbnQpIDogVGFzayZsdDtJQWN0aW9uUmVzdWx0Jmd0OzwvdGV4dD48ZWxsaXBzZSBjeD0iMTgiIGN5PSIxMTkuOTI5NyIgZmlsbD0iIzg0QkU4NCIgcng9IjMiIHJ5PSIzIiBzdHlsZT0ic3Ryb2tlOiMwMzgwNDg7c3Ryb2tlLXdpZHRoOjEuMDsiLz48dGV4dCBmaWxsPSIjMDAwMDAwIiBmb250LWZhbWlseT0ic2Fucy1zZXJpZiIgZm9udC1zaXplPSIxNCIgbGVuZ3RoQWRqdXN0PSJzcGFjaW5nIiB0ZXh0TGVuZ3RoPSI0MDMiIHg9IjI3IiB5PSIxMjQuMTcxOSI+JiMxNzE7YXN5bmMmIzE4NzsgR2V0U2NyZWVuKGlkOmludCkgOiBUYXNrJmx0O0FjdGlvblJlc3VsdCZsdDtTY3JlZW5EdG8mZ3Q7Jmd0OzwvdGV4dD48ZWxsaXBzZSBjeD0iMTgiIGN5PSIxMzQuOTE0MSIgZmlsbD0iIzg0QkU4NCIgcng9IjMiIHJ5PSIzIiBzdHlsZT0ic3Ryb2tlOiMwMzgwNDg7c3Ryb2tlLXdpZHRoOjEuMDsiLz48dGV4dCBmaWxsPSIjMDAwMDAwIiBmb250LWZhbWlseT0ic2Fucy1zZXJpZiIgZm9udC1zaXplPSIxNCIgbGVuZ3RoQWRqdXN0PSJzcGFjaW5nIiB0ZXh0TGVuZ3RoPSI0MzEiIHg9IjI3IiB5PSIxMzkuMTU2MyI+JiMxNzE7YXN5bmMmIzE4NzsgR2V0QWxsU2NyZWVucygpIDogVGFzayZsdDtBY3Rpb25SZXN1bHQmbHQ7TGlzdCZsdDtTY3JlZW5EdG8mZ3Q7Jmd0OyZndDs8L3RleHQ+PC9nPjwhLS1TUkM9W1pQMzEyaThtMzhSbFV1ZVNEeUdOQUFLbTU2SVdDQVB0QUxxRW5Rd0hEV2YzVjdVN3JaN1Aza1FLbUZ6ejJKNUVubVg3NG4xenQ5M2RHQ3ZYVzRTNkd3cjFvZTJ3OVV6d2ZVM1NPTWlyS20wMXJJN3J4LTFnaGlZX09KNTZZdklMS2lWVWN5NU9RbmktUDd1VHNvc0pnQVRKQ1VteHdOWUhMTWRPYWN5bXRYb2hjUXQxWmt3T1ZCT0xybEVfdzB2dmNQallTaG44QkhmQXZ6OFJ5Y0wtUi1FRkg2TkY1bTAwXS0tPjwvZz48L3N2Zz4=;" vertex="1" parent="1">
            <mxGeometry x="-800" y="240" width="534" height="158" as="geometry" />
          </mxCell>
        </UserObject>
        <UserObject label="" plantUmlData="{&quot;data&quot;:&quot;@startuml\nclass OrdersController {\n    + &lt;&lt;async&gt;&gt; GetAllOrders() : Task&lt;ActionResult&lt;List&lt;OrderDto&gt;&gt;&gt;\n    + &lt;&lt;async&gt;&gt; GetOrderById(id:int) : Task&lt;ActionResult&lt;OrderDto&gt;&gt;\n}\n@enduml\n&quot;,&quot;format&quot;:&quot;svg&quot;}" id="inqcZ7f0K8DUZhspQT13-7">
          <mxCell style="shape=image;noLabel=1;verticalAlign=top;aspect=fixed;imageAspect=0;image=data:image/svg+xml,PD94bWwgdmVyc2lvbj0iMS4wIiBlbmNvZGluZz0idXMtYXNjaWkiIHN0YW5kYWxvbmU9Im5vIj8+PHN2ZyB4bWxucz0iaHR0cDovL3d3dy53My5vcmcvMjAwMC9zdmciIHhtbG5zOnhsaW5rPSJodHRwOi8vd3d3LnczLm9yZy8xOTk5L3hsaW5rIiBjb250ZW50U3R5bGVUeXBlPSJ0ZXh0L2NzcyIgaGVpZ2h0PSI5OHB4IiBwcmVzZXJ2ZUFzcGVjdFJhdGlvPSJub25lIiBzdHlsZT0id2lkdGg6NDY0cHg7aGVpZ2h0Ojk4cHg7YmFja2dyb3VuZDojRkZGRkZGOyIgdmVyc2lvbj0iMS4xIiB2aWV3Qm94PSIwIDAgNDY0IDk4IiB3aWR0aD0iNDY0cHgiIHpvb21BbmRQYW49Im1hZ25pZnkiPjxkZWZzLz48Zz48IS0tY2xhc3MgT3JkZXJzQ29udHJvbGxlci0tPjxnIGlkPSJlbGVtX09yZGVyc0NvbnRyb2xsZXIiPjxyZWN0IGNvZGVMaW5lPSIxIiBmaWxsPSIjRjFGMUYxIiBoZWlnaHQ9Ijc3Ljk2ODgiIGlkPSJPcmRlcnNDb250cm9sbGVyIiByeD0iMi41IiByeT0iMi41IiBzdHlsZT0ic3Ryb2tlOiMxODE4MTg7c3Ryb2tlLXdpZHRoOjAuNTsiIHdpZHRoPSI0NDMiIHg9IjciIHk9IjciLz48ZWxsaXBzZSBjeD0iMTY4LjI1IiBjeT0iMjMiIGZpbGw9IiNBREQxQjIiIHJ4PSIxMSIgcnk9IjExIiBzdHlsZT0ic3Ryb2tlOiMxODE4MTg7c3Ryb2tlLXdpZHRoOjEuMDsiLz48cGF0aCBkPSJNMTY1Ljg3NSwyNy4yNSBMMTY1Ljg3NSwyOSBMMTcwLjgxMjUsMjkgTDE3MC44MTI1LDI3LjI1IEwxNjUuODc1LDI3LjI1IFogTTE2Ni41NjI1LDI3LjkzNzUgUTE2Ni41NjI1LDI3LjkzNzUgMTY2LjU2MjUsMTguNzUgTDE2NC44MTI1LDE4Ljc1IFExNjQuODEyNSwxOC43NSAxNjQuODEyNSwyNy45Mzc1IEwxNjYuNTYyNSwyNy45Mzc1IFogTTE3MC4xMjUsMjcuOTM3NSBMMTcxLjg3NSwyNy45Mzc1IFExNzEuODc1LDI3LjkzNzUgMTcxLjg3NSwyNS4xMjUgTDE3MC4xMjUsMjUuMTI1IFExNzAuMTI1LDI1LjEyNSAxNzAuMTI1LDI3LjkzNzUgWiBNMTcwLjEyNSwxOC43NSBRMTcwLjEyNSwxOC43NSAxNzAuMTI1LDIxLjU2MjUgTDE3MS44NzUsMjEuNTYyNSBRMTcxLjg3NSwyMS41NjI1IDE3MS44NzUsMTguNzUgTDE3MC4xMjUsMTguNzUgWiBNMTY1Ljg3NSwxOS40Mzc1IEwxNzAuODEyNSwxOS40Mzc1IEwxNzAuODEyNSwxNy42ODc1IEwxNjUuODc1LDE3LjY4NzUgTDE2NS44NzUsMTkuNDM3NSBaICIgZmlsbD0iIzAwMDAwMCIvPjx0ZXh0IGZpbGw9IiMwMDAwMDAiIGZvbnQtZmFtaWx5PSJzYW5zLXNlcmlmIiBmb250LXNpemU9IjE0IiBsZW5ndGhBZGp1c3Q9InNwYWNpbmciIHRleHRMZW5ndGg9IjExMiIgeD0iMTg4Ljc1IiB5PSIyOC43NDIyIj5PcmRlcnNDb250cm9sbGVyPC90ZXh0PjxsaW5lIHN0eWxlPSJzdHJva2U6IzE4MTgxODtzdHJva2Utd2lkdGg6MC41OyIgeDE9IjgiIHgyPSI0NDkiIHkxPSIzOSIgeTI9IjM5Ii8+PGxpbmUgc3R5bGU9InN0cm9rZTojMTgxODE4O3N0cm9rZS13aWR0aDowLjU7IiB4MT0iOCIgeDI9IjQ0OSIgeTE9IjQ3IiB5Mj0iNDciLz48ZWxsaXBzZSBjeD0iMTgiIGN5PSI1OS45OTIyIiBmaWxsPSIjODRCRTg0IiByeD0iMyIgcnk9IjMiIHN0eWxlPSJzdHJva2U6IzAzODA0ODtzdHJva2Utd2lkdGg6MS4wOyIvPjx0ZXh0IGZpbGw9IiMwMDAwMDAiIGZvbnQtZmFtaWx5PSJzYW5zLXNlcmlmIiBmb250LXNpemU9IjE0IiBsZW5ndGhBZGp1c3Q9InNwYWNpbmciIHRleHRMZW5ndGg9IjQxNyIgeD0iMjciIHk9IjY0LjIzNDQiPiYjMTcxO2FzeW5jJiMxODc7IEdldEFsbE9yZGVycygpIDogVGFzayZsdDtBY3Rpb25SZXN1bHQmbHQ7TGlzdCZsdDtPcmRlckR0byZndDsmZ3Q7Jmd0OzwvdGV4dD48ZWxsaXBzZSBjeD0iMTgiIGN5PSI3NC45NzY2IiBmaWxsPSIjODRCRTg0IiByeD0iMyIgcnk9IjMiIHN0eWxlPSJzdHJva2U6IzAzODA0ODtzdHJva2Utd2lkdGg6MS4wOyIvPjx0ZXh0IGZpbGw9IiMwMDAwMDAiIGZvbnQtZmFtaWx5PSJzYW5zLXNlcmlmIiBmb250LXNpemU9IjE0IiBsZW5ndGhBZGp1c3Q9InNwYWNpbmciIHRleHRMZW5ndGg9IjQxNyIgeD0iMjciIHk9Ijc5LjIxODgiPiYjMTcxO2FzeW5jJiMxODc7IEdldE9yZGVyQnlJZChpZDppbnQpIDogVGFzayZsdDtBY3Rpb25SZXN1bHQmbHQ7T3JkZXJEdG8mZ3Q7Jmd0OzwvdGV4dD48L2c+PCEtLVNSQz1bSXl2OUIydk15MnpBSUlxZ1RpeEZBb2RBcHliOUJMQWV2YjgwMGNxNTZ2bDR1aWd5UDNpeDFWVks0aVVTNzhYMjNLcTVBdU1HbkU5aTZ5VmFhaXB5bEEzS3VqQVM0WGtWcEU4STZ4MEFidjl5RXBpeFI2UTBmUHFnRkxDcUNiRWlDbERBaTlrNEM4SWg1VzAwXS0tPjwvZz48L3N2Zz4=;" vertex="1" parent="1">
            <mxGeometry x="-800" y="420" width="464" height="98" as="geometry" />
          </mxCell>
        </UserObject>
        <UserObject label="" plantUmlData="{&quot;data&quot;:&quot;@startuml\nclass CreateScreenProfileCommand {\n    + CreateScreenProfileDto : CreateScreenProfileDto &lt;&lt;get&gt;&gt;\n}\n@enduml\n&quot;,&quot;format&quot;:&quot;svg&quot;}" id="inqcZ7f0K8DUZhspQT13-12">
          <mxCell style="shape=image;noLabel=1;verticalAlign=top;aspect=fixed;imageAspect=0;image=data:image/svg+xml,PD94bWwgdmVyc2lvbj0iMS4wIiBlbmNvZGluZz0idXMtYXNjaWkiIHN0YW5kYWxvbmU9Im5vIj8+PHN2ZyB4bWxucz0iaHR0cDovL3d3dy53My5vcmcvMjAwMC9zdmciIHhtbG5zOnhsaW5rPSJodHRwOi8vd3d3LnczLm9yZy8xOTk5L3hsaW5rIiBjb250ZW50U3R5bGVUeXBlPSJ0ZXh0L2NzcyIgaGVpZ2h0PSI4M3B4IiBwcmVzZXJ2ZUFzcGVjdFJhdGlvPSJub25lIiBzdHlsZT0id2lkdGg6NDIwcHg7aGVpZ2h0OjgzcHg7YmFja2dyb3VuZDojRkZGRkZGOyIgdmVyc2lvbj0iMS4xIiB2aWV3Qm94PSIwIDAgNDIwIDgzIiB3aWR0aD0iNDIwcHgiIHpvb21BbmRQYW49Im1hZ25pZnkiPjxkZWZzLz48Zz48IS0tY2xhc3MgQ3JlYXRlU2NyZWVuUHJvZmlsZUNvbW1hbmQtLT48ZyBpZD0iZWxlbV9DcmVhdGVTY3JlZW5Qcm9maWxlQ29tbWFuZCI+PHJlY3QgY29kZUxpbmU9IjEiIGZpbGw9IiNGMUYxRjEiIGhlaWdodD0iNjIuOTg0NCIgaWQ9IkNyZWF0ZVNjcmVlblByb2ZpbGVDb21tYW5kIiByeD0iMi41IiByeT0iMi41IiBzdHlsZT0ic3Ryb2tlOiMxODE4MTg7c3Ryb2tlLXdpZHRoOjAuNTsiIHdpZHRoPSIzOTkiIHg9IjciIHk9IjciLz48ZWxsaXBzZSBjeD0iMTEwLjI1IiBjeT0iMjMiIGZpbGw9IiNBREQxQjIiIHJ4PSIxMSIgcnk9IjExIiBzdHlsZT0ic3Ryb2tlOiMxODE4MTg7c3Ryb2tlLXdpZHRoOjEuMDsiLz48cGF0aCBkPSJNMTA3Ljg3NSwyNy4yNSBMMTA3Ljg3NSwyOSBMMTEyLjgxMjUsMjkgTDExMi44MTI1LDI3LjI1IEwxMDcuODc1LDI3LjI1IFogTTEwOC41NjI1LDI3LjkzNzUgUTEwOC41NjI1LDI3LjkzNzUgMTA4LjU2MjUsMTguNzUgTDEwNi44MTI1LDE4Ljc1IFExMDYuODEyNSwxOC43NSAxMDYuODEyNSwyNy45Mzc1IEwxMDguNTYyNSwyNy45Mzc1IFogTTExMi4xMjUsMjcuOTM3NSBMMTEzLjg3NSwyNy45Mzc1IFExMTMuODc1LDI3LjkzNzUgMTEzLjg3NSwyNS4xMjUgTDExMi4xMjUsMjUuMTI1IFExMTIuMTI1LDI1LjEyNSAxMTIuMTI1LDI3LjkzNzUgWiBNMTEyLjEyNSwxOC43NSBRMTEyLjEyNSwxOC43NSAxMTIuMTI1LDIxLjU2MjUgTDExMy44NzUsMjEuNTYyNSBRMTEzLjg3NSwyMS41NjI1IDExMy44NzUsMTguNzUgTDExMi4xMjUsMTguNzUgWiBNMTA3Ljg3NSwxOS40Mzc1IEwxMTIuODEyNSwxOS40Mzc1IEwxMTIuODEyNSwxNy42ODc1IEwxMDcuODc1LDE3LjY4NzUgTDEwNy44NzUsMTkuNDM3NSBaICIgZmlsbD0iIzAwMDAwMCIvPjx0ZXh0IGZpbGw9IiMwMDAwMDAiIGZvbnQtZmFtaWx5PSJzYW5zLXNlcmlmIiBmb250LXNpemU9IjE0IiBsZW5ndGhBZGp1c3Q9InNwYWNpbmciIHRleHRMZW5ndGg9IjE4NCIgeD0iMTMwLjc1IiB5PSIyOC43NDIyIj5DcmVhdGVTY3JlZW5Qcm9maWxlQ29tbWFuZDwvdGV4dD48bGluZSBzdHlsZT0ic3Ryb2tlOiMxODE4MTg7c3Ryb2tlLXdpZHRoOjAuNTsiIHgxPSI4IiB4Mj0iNDA1IiB5MT0iMzkiIHkyPSIzOSIvPjxlbGxpcHNlIGN4PSIxOCIgY3k9IjUxLjk5MjIiIGZpbGw9Im5vbmUiIHJ4PSIzIiByeT0iMyIgc3R5bGU9InN0cm9rZTojMDM4MDQ4O3N0cm9rZS13aWR0aDoxLjA7Ii8+PHRleHQgZmlsbD0iIzAwMDAwMCIgZm9udC1mYW1pbHk9InNhbnMtc2VyaWYiIGZvbnQtc2l6ZT0iMTQiIGxlbmd0aEFkanVzdD0ic3BhY2luZyIgdGV4dExlbmd0aD0iMzczIiB4PSIyNyIgeT0iNTYuMjM0NCI+Q3JlYXRlU2NyZWVuUHJvZmlsZUR0byA6IENyZWF0ZVNjcmVlblByb2ZpbGVEdG8gJiMxNzE7Z2V0JiMxODc7PC90ZXh0PjxsaW5lIHN0eWxlPSJzdHJva2U6IzE4MTgxODtzdHJva2Utd2lkdGg6MC41OyIgeDE9IjgiIHgyPSI0MDUiIHkxPSI2MS45ODQ0IiB5Mj0iNjEuOTg0NCIvPjwvZz48IS0tU1JDPVtJeXY5QjJ2TVMydkFKSW45M0t1a0lhdEQyb1pBSnlsQ0lOTkVweXJEcDRqSGdFUEkwMDlqUjRmU0lsOExoNzE5c0RZYWZ2Uk9zTjdMMFcwMF0tLT48L2c+PC9zdmc+;" vertex="1" parent="1">
            <mxGeometry x="876" y="80" width="420" height="83" as="geometry" />
          </mxCell>
        </UserObject>
        <UserObject label="" plantUmlData="{&#xa;  &quot;data&quot;: &quot;@startuml\nclass CreateScreenProfileCommandHandler {\n    + &lt;&lt;async&gt;&gt; Handle(request:CreateScreenProfileCommand, cancellationToken:CancellationToken) : Task&lt;ScreenProfileDto&gt;\n}\n@enduml\n&quot;,&#xa;  &quot;format&quot;: &quot;svg&quot;&#xa;}" id="inqcZ7f0K8DUZhspQT13-13">
          <mxCell style="shape=image;noLabel=1;verticalAlign=top;aspect=fixed;imageAspect=0;image=data:image/svg+xml,PD94bWwgdmVyc2lvbj0iMS4wIiBlbmNvZGluZz0idXMtYXNjaWkiIHN0YW5kYWxvbmU9Im5vIj8+PHN2ZyB4bWxucz0iaHR0cDovL3d3dy53My5vcmcvMjAwMC9zdmciIHhtbG5zOnhsaW5rPSJodHRwOi8vd3d3LnczLm9yZy8xOTk5L3hsaW5rIiBjb250ZW50U3R5bGVUeXBlPSJ0ZXh0L2NzcyIgaGVpZ2h0PSI4M3B4IiBwcmVzZXJ2ZUFzcGVjdFJhdGlvPSJub25lIiBzdHlsZT0id2lkdGg6ODM3cHg7aGVpZ2h0OjgzcHg7YmFja2dyb3VuZDojRkZGRkZGOyIgdmVyc2lvbj0iMS4xIiB2aWV3Qm94PSIwIDAgODM3IDgzIiB3aWR0aD0iODM3cHgiIHpvb21BbmRQYW49Im1hZ25pZnkiPjxkZWZzLz48Zz48IS0tY2xhc3MgQ3JlYXRlU2NyZWVuUHJvZmlsZUNvbW1hbmRIYW5kbGVyLS0+PGcgaWQ9ImVsZW1fQ3JlYXRlU2NyZWVuUHJvZmlsZUNvbW1hbmRIYW5kbGVyIj48cmVjdCBjb2RlTGluZT0iMSIgZmlsbD0iI0YxRjFGMSIgaGVpZ2h0PSI2Mi45ODQ0IiBpZD0iQ3JlYXRlU2NyZWVuUHJvZmlsZUNvbW1hbmRIYW5kbGVyIiByeD0iMi41IiByeT0iMi41IiBzdHlsZT0ic3Ryb2tlOiMxODE4MTg7c3Ryb2tlLXdpZHRoOjAuNTsiIHdpZHRoPSI4MTYiIHg9IjciIHk9IjciLz48ZWxsaXBzZSBjeD0iMjk0LjI1IiBjeT0iMjMiIGZpbGw9IiNBREQxQjIiIHJ4PSIxMSIgcnk9IjExIiBzdHlsZT0ic3Ryb2tlOiMxODE4MTg7c3Ryb2tlLXdpZHRoOjEuMDsiLz48cGF0aCBkPSJNMjkxLjg3NSwyNy4yNSBMMjkxLjg3NSwyOSBMMjk2LjgxMjUsMjkgTDI5Ni44MTI1LDI3LjI1IEwyOTEuODc1LDI3LjI1IFogTTI5Mi41NjI1LDI3LjkzNzUgUTI5Mi41NjI1LDI3LjkzNzUgMjkyLjU2MjUsMTguNzUgTDI5MC44MTI1LDE4Ljc1IFEyOTAuODEyNSwxOC43NSAyOTAuODEyNSwyNy45Mzc1IEwyOTIuNTYyNSwyNy45Mzc1IFogTTI5Ni4xMjUsMjcuOTM3NSBMMjk3Ljg3NSwyNy45Mzc1IFEyOTcuODc1LDI3LjkzNzUgMjk3Ljg3NSwyNS4xMjUgTDI5Ni4xMjUsMjUuMTI1IFEyOTYuMTI1LDI1LjEyNSAyOTYuMTI1LDI3LjkzNzUgWiBNMjk2LjEyNSwxOC43NSBRMjk2LjEyNSwxOC43NSAyOTYuMTI1LDIxLjU2MjUgTDI5Ny44NzUsMjEuNTYyNSBRMjk3Ljg3NSwyMS41NjI1IDI5Ny44NzUsMTguNzUgTDI5Ni4xMjUsMTguNzUgWiBNMjkxLjg3NSwxOS40Mzc1IEwyOTYuODEyNSwxOS40Mzc1IEwyOTYuODEyNSwxNy42ODc1IEwyOTEuODc1LDE3LjY4NzUgTDI5MS44NzUsMTkuNDM3NSBaICIgZmlsbD0iIzAwMDAwMCIvPjx0ZXh0IGZpbGw9IiMwMDAwMDAiIGZvbnQtZmFtaWx5PSJzYW5zLXNlcmlmIiBmb250LXNpemU9IjE0IiBsZW5ndGhBZGp1c3Q9InNwYWNpbmciIHRleHRMZW5ndGg9IjIzMyIgeD0iMzE0Ljc1IiB5PSIyOC43NDIyIj5DcmVhdGVTY3JlZW5Qcm9maWxlQ29tbWFuZEhhbmRsZXI8L3RleHQ+PGxpbmUgc3R5bGU9InN0cm9rZTojMTgxODE4O3N0cm9rZS13aWR0aDowLjU7IiB4MT0iOCIgeDI9IjgyMiIgeTE9IjM5IiB5Mj0iMzkiLz48bGluZSBzdHlsZT0ic3Ryb2tlOiMxODE4MTg7c3Ryb2tlLXdpZHRoOjAuNTsiIHgxPSI4IiB4Mj0iODIyIiB5MT0iNDciIHkyPSI0NyIvPjxlbGxpcHNlIGN4PSIxOCIgY3k9IjU5Ljk5MjIiIGZpbGw9IiM4NEJFODQiIHJ4PSIzIiByeT0iMyIgc3R5bGU9InN0cm9rZTojMDM4MDQ4O3N0cm9rZS13aWR0aDoxLjA7Ii8+PHRleHQgZmlsbD0iIzAwMDAwMCIgZm9udC1mYW1pbHk9InNhbnMtc2VyaWYiIGZvbnQtc2l6ZT0iMTQiIGxlbmd0aEFkanVzdD0ic3BhY2luZyIgdGV4dExlbmd0aD0iNzkwIiB4PSIyNyIgeT0iNjQuMjM0NCI+JiMxNzE7YXN5bmMmIzE4NzsgSGFuZGxlKHJlcXVlc3Q6Q3JlYXRlU2NyZWVuUHJvZmlsZUNvbW1hbmQsIGNhbmNlbGxhdGlvblRva2VuOkNhbmNlbGxhdGlvblRva2VuKSA6IFRhc2smbHQ7U2NyZWVuUHJvZmlsZUR0byZndDs8L3RleHQ+PC9nPjwhLS1TUkM9W0l5djlCMnZNUzJ2QUpJbjkzS3VrSWF0RDJvWkFKeWxDSU5ORXB5ckRwNGxuMEVBU3IyQTVRWXU1OEQxTWlCNTlCQXhDSXhRcEt1MzhRMUliNWZRYzVmVE91SlAySG80dkNJeXZESVNkaUlHcEZveWFGcGlycHllUE5LSEptS2VYOUI0dXNtUjUxOVVJVjNra01XMDBdLS0+PC9nPjwvc3ZnPg==;" vertex="1" parent="1">
            <mxGeometry x="1314" y="80" width="837" height="83" as="geometry" />
          </mxCell>
        </UserObject>
        <UserObject label="" plantUmlData="{&#xa;  &quot;data&quot;: &quot;@startuml\nclass DeleteScreenProfileCommand {\n    + Id : int &lt;&lt;get&gt;&gt;\n}\n@enduml\n&quot;,&#xa;  &quot;format&quot;: &quot;svg&quot;&#xa;}" id="inqcZ7f0K8DUZhspQT13-14">
          <mxCell style="shape=image;noLabel=1;verticalAlign=top;aspect=fixed;imageAspect=0;image=data:image/svg+xml,PD94bWwgdmVyc2lvbj0iMS4wIiBlbmNvZGluZz0idXMtYXNjaWkiIHN0YW5kYWxvbmU9Im5vIj8+PHN2ZyB4bWxucz0iaHR0cDovL3d3dy53My5vcmcvMjAwMC9zdmciIHhtbG5zOnhsaW5rPSJodHRwOi8vd3d3LnczLm9yZy8xOTk5L3hsaW5rIiBjb250ZW50U3R5bGVUeXBlPSJ0ZXh0L2NzcyIgaGVpZ2h0PSI4M3B4IiBwcmVzZXJ2ZUFzcGVjdFJhdGlvPSJub25lIiBzdHlsZT0id2lkdGg6MjM3cHg7aGVpZ2h0OjgzcHg7YmFja2dyb3VuZDojRkZGRkZGOyIgdmVyc2lvbj0iMS4xIiB2aWV3Qm94PSIwIDAgMjM3IDgzIiB3aWR0aD0iMjM3cHgiIHpvb21BbmRQYW49Im1hZ25pZnkiPjxkZWZzLz48Zz48IS0tY2xhc3MgRGVsZXRlU2NyZWVuUHJvZmlsZUNvbW1hbmQtLT48ZyBpZD0iZWxlbV9EZWxldGVTY3JlZW5Qcm9maWxlQ29tbWFuZCI+PHJlY3QgY29kZUxpbmU9IjEiIGZpbGw9IiNGMUYxRjEiIGhlaWdodD0iNjIuOTg0NCIgaWQ9IkRlbGV0ZVNjcmVlblByb2ZpbGVDb21tYW5kIiByeD0iMi41IiByeT0iMi41IiBzdHlsZT0ic3Ryb2tlOiMxODE4MTg7c3Ryb2tlLXdpZHRoOjAuNTsiIHdpZHRoPSIyMTYiIHg9IjciIHk9IjciLz48ZWxsaXBzZSBjeD0iMjIiIGN5PSIyMyIgZmlsbD0iI0FERDFCMiIgcng9IjExIiByeT0iMTEiIHN0eWxlPSJzdHJva2U6IzE4MTgxODtzdHJva2Utd2lkdGg6MS4wOyIvPjxwYXRoIGQ9Ik0xOS42MjUsMjcuMjUgTDE5LjYyNSwyOSBMMjQuNTYyNSwyOSBMMjQuNTYyNSwyNy4yNSBMMTkuNjI1LDI3LjI1IFogTTIwLjMxMjUsMjcuOTM3NSBRMjAuMzEyNSwyNy45Mzc1IDIwLjMxMjUsMTguNzUgTDE4LjU2MjUsMTguNzUgUTE4LjU2MjUsMTguNzUgMTguNTYyNSwyNy45Mzc1IEwyMC4zMTI1LDI3LjkzNzUgWiBNMjMuODc1LDI3LjkzNzUgTDI1LjYyNSwyNy45Mzc1IFEyNS42MjUsMjcuOTM3NSAyNS42MjUsMjUuMTI1IEwyMy44NzUsMjUuMTI1IFEyMy44NzUsMjUuMTI1IDIzLjg3NSwyNy45Mzc1IFogTTIzLjg3NSwxOC43NSBRMjMuODc1LDE4Ljc1IDIzLjg3NSwyMS41NjI1IEwyNS42MjUsMjEuNTYyNSBRMjUuNjI1LDIxLjU2MjUgMjUuNjI1LDE4Ljc1IEwyMy44NzUsMTguNzUgWiBNMTkuNjI1LDE5LjQzNzUgTDI0LjU2MjUsMTkuNDM3NSBMMjQuNTYyNSwxNy42ODc1IEwxOS42MjUsMTcuNjg3NSBMMTkuNjI1LDE5LjQzNzUgWiAiIGZpbGw9IiMwMDAwMDAiLz48dGV4dCBmaWxsPSIjMDAwMDAwIiBmb250LWZhbWlseT0ic2Fucy1zZXJpZiIgZm9udC1zaXplPSIxNCIgbGVuZ3RoQWRqdXN0PSJzcGFjaW5nIiB0ZXh0TGVuZ3RoPSIxODQiIHg9IjM2IiB5PSIyOC43NDIyIj5EZWxldGVTY3JlZW5Qcm9maWxlQ29tbWFuZDwvdGV4dD48bGluZSBzdHlsZT0ic3Ryb2tlOiMxODE4MTg7c3Ryb2tlLXdpZHRoOjAuNTsiIHgxPSI4IiB4Mj0iMjIyIiB5MT0iMzkiIHkyPSIzOSIvPjxlbGxpcHNlIGN4PSIxOCIgY3k9IjUxLjk5MjIiIGZpbGw9Im5vbmUiIHJ4PSIzIiByeT0iMyIgc3R5bGU9InN0cm9rZTojMDM4MDQ4O3N0cm9rZS13aWR0aDoxLjA7Ii8+PHRleHQgZmlsbD0iIzAwMDAwMCIgZm9udC1mYW1pbHk9InNhbnMtc2VyaWYiIGZvbnQtc2l6ZT0iMTQiIGxlbmd0aEFkanVzdD0ic3BhY2luZyIgdGV4dExlbmd0aD0iMTAwIiB4PSIyNyIgeT0iNTYuMjM0NCI+SWQgOiBpbnQgJiMxNzE7Z2V0JiMxODc7PC90ZXh0PjxsaW5lIHN0eWxlPSJzdHJva2U6IzE4MTgxODtzdHJva2Utd2lkdGg6MC41OyIgeDE9IjgiIHgyPSIyMjIiIHkxPSI2MS45ODQ0IiB5Mj0iNjEuOTg0NCIvPjwvZz48IS0tU1JDPVtJeXY5QjJ2TVM0ZERJSXI5M0t1a0lhdEQyb1pBSnlsQ0lOTkVweXJEcDRqSGdFUEkwMDlqMVN5SzFJazVwQm1JMUhrUnpER0lFcGtrTVcwMF0tLT48L2c+PC9zdmc+;" vertex="1" parent="1">
            <mxGeometry x="926" y="300" width="237" height="83" as="geometry" />
          </mxCell>
        </UserObject>
        <UserObject label="" plantUmlData="{&#xa;  &quot;data&quot;: &quot;@startuml\nclass DeleteScreenProfileCommandHandler {\n    + &lt;&lt;async&gt;&gt; Handle(request:DeleteScreenProfileCommand, cancellationToken:CancellationToken) : Task\n}\n@enduml\n&quot;,&#xa;  &quot;format&quot;: &quot;svg&quot;&#xa;}" id="inqcZ7f0K8DUZhspQT13-15">
          <mxCell style="shape=image;noLabel=1;verticalAlign=top;aspect=fixed;imageAspect=0;image=data:image/svg+xml,PD94bWwgdmVyc2lvbj0iMS4wIiBlbmNvZGluZz0idXMtYXNjaWkiIHN0YW5kYWxvbmU9Im5vIj8+PHN2ZyB4bWxucz0iaHR0cDovL3d3dy53My5vcmcvMjAwMC9zdmciIHhtbG5zOnhsaW5rPSJodHRwOi8vd3d3LnczLm9yZy8xOTk5L3hsaW5rIiBjb250ZW50U3R5bGVUeXBlPSJ0ZXh0L2NzcyIgaGVpZ2h0PSI4M3B4IiBwcmVzZXJ2ZUFzcGVjdFJhdGlvPSJub25lIiBzdHlsZT0id2lkdGg6NzExcHg7aGVpZ2h0OjgzcHg7YmFja2dyb3VuZDojRkZGRkZGOyIgdmVyc2lvbj0iMS4xIiB2aWV3Qm94PSIwIDAgNzExIDgzIiB3aWR0aD0iNzExcHgiIHpvb21BbmRQYW49Im1hZ25pZnkiPjxkZWZzLz48Zz48IS0tY2xhc3MgRGVsZXRlU2NyZWVuUHJvZmlsZUNvbW1hbmRIYW5kbGVyLS0+PGcgaWQ9ImVsZW1fRGVsZXRlU2NyZWVuUHJvZmlsZUNvbW1hbmRIYW5kbGVyIj48cmVjdCBjb2RlTGluZT0iMSIgZmlsbD0iI0YxRjFGMSIgaGVpZ2h0PSI2Mi45ODQ0IiBpZD0iRGVsZXRlU2NyZWVuUHJvZmlsZUNvbW1hbmRIYW5kbGVyIiByeD0iMi41IiByeT0iMi41IiBzdHlsZT0ic3Ryb2tlOiMxODE4MTg7c3Ryb2tlLXdpZHRoOjAuNTsiIHdpZHRoPSI2OTAiIHg9IjciIHk9IjciLz48ZWxsaXBzZSBjeD0iMjMxLjI1IiBjeT0iMjMiIGZpbGw9IiNBREQxQjIiIHJ4PSIxMSIgcnk9IjExIiBzdHlsZT0ic3Ryb2tlOiMxODE4MTg7c3Ryb2tlLXdpZHRoOjEuMDsiLz48cGF0aCBkPSJNMjI4Ljg3NSwyNy4yNSBMMjI4Ljg3NSwyOSBMMjMzLjgxMjUsMjkgTDIzMy44MTI1LDI3LjI1IEwyMjguODc1LDI3LjI1IFogTTIyOS41NjI1LDI3LjkzNzUgUTIyOS41NjI1LDI3LjkzNzUgMjI5LjU2MjUsMTguNzUgTDIyNy44MTI1LDE4Ljc1IFEyMjcuODEyNSwxOC43NSAyMjcuODEyNSwyNy45Mzc1IEwyMjkuNTYyNSwyNy45Mzc1IFogTTIzMy4xMjUsMjcuOTM3NSBMMjM0Ljg3NSwyNy45Mzc1IFEyMzQuODc1LDI3LjkzNzUgMjM0Ljg3NSwyNS4xMjUgTDIzMy4xMjUsMjUuMTI1IFEyMzMuMTI1LDI1LjEyNSAyMzMuMTI1LDI3LjkzNzUgWiBNMjMzLjEyNSwxOC43NSBRMjMzLjEyNSwxOC43NSAyMzMuMTI1LDIxLjU2MjUgTDIzNC44NzUsMjEuNTYyNSBRMjM0Ljg3NSwyMS41NjI1IDIzNC44NzUsMTguNzUgTDIzMy4xMjUsMTguNzUgWiBNMjI4Ljg3NSwxOS40Mzc1IEwyMzMuODEyNSwxOS40Mzc1IEwyMzMuODEyNSwxNy42ODc1IEwyMjguODc1LDE3LjY4NzUgTDIyOC44NzUsMTkuNDM3NSBaICIgZmlsbD0iIzAwMDAwMCIvPjx0ZXh0IGZpbGw9IiMwMDAwMDAiIGZvbnQtZmFtaWx5PSJzYW5zLXNlcmlmIiBmb250LXNpemU9IjE0IiBsZW5ndGhBZGp1c3Q9InNwYWNpbmciIHRleHRMZW5ndGg9IjIzMyIgeD0iMjUxLjc1IiB5PSIyOC43NDIyIj5EZWxldGVTY3JlZW5Qcm9maWxlQ29tbWFuZEhhbmRsZXI8L3RleHQ+PGxpbmUgc3R5bGU9InN0cm9rZTojMTgxODE4O3N0cm9rZS13aWR0aDowLjU7IiB4MT0iOCIgeDI9IjY5NiIgeTE9IjM5IiB5Mj0iMzkiLz48bGluZSBzdHlsZT0ic3Ryb2tlOiMxODE4MTg7c3Ryb2tlLXdpZHRoOjAuNTsiIHgxPSI4IiB4Mj0iNjk2IiB5MT0iNDciIHkyPSI0NyIvPjxlbGxpcHNlIGN4PSIxOCIgY3k9IjU5Ljk5MjIiIGZpbGw9IiM4NEJFODQiIHJ4PSIzIiByeT0iMyIgc3R5bGU9InN0cm9rZTojMDM4MDQ4O3N0cm9rZS13aWR0aDoxLjA7Ii8+PHRleHQgZmlsbD0iIzAwMDAwMCIgZm9udC1mYW1pbHk9InNhbnMtc2VyaWYiIGZvbnQtc2l6ZT0iMTQiIGxlbmd0aEFkanVzdD0ic3BhY2luZyIgdGV4dExlbmd0aD0iNjY0IiB4PSIyNyIgeT0iNjQuMjM0NCI+JiMxNzE7YXN5bmMmIzE4NzsgSGFuZGxlKHJlcXVlc3Q6RGVsZXRlU2NyZWVuUHJvZmlsZUNvbW1hbmQsIGNhbmNlbGxhdGlvblRva2VuOkNhbmNlbGxhdGlvblRva2VuKSA6IFRhc2s8L3RleHQ+PC9nPjwhLS1TUkM9W0l5djlCMnZNUzRkRElJcjkzS3VrSWF0RDJvWkFKeWxDSU5ORXB5ckRwNGxuMEVBU3IyQTVRWXU1OEQxTWlCNTlCQXhDSXhRcEt1MzhRMUliNWZRYzVmVE91SlAySG80dkNJeXZESVNkaUlHcEZveWFGcGlycHllUE5LSEptS2VYOUI0dWN3aU0wMDAwXS0tPjwvZz48L3N2Zz4=;" vertex="1" parent="1">
            <mxGeometry x="1314" y="300" width="711" height="83" as="geometry" />
          </mxCell>
        </UserObject>
        <UserObject label="" plantUmlData="{&#xa;  &quot;data&quot;: &quot;@startuml\nclass OrderAddedCommand {\n    + OrderDto : OrderDto &lt;&lt;get&gt;&gt; &lt;&lt;set&gt;&gt;\n}\n@enduml\n&quot;,&#xa;  &quot;format&quot;: &quot;svg&quot;&#xa;}" id="inqcZ7f0K8DUZhspQT13-16">
          <mxCell style="shape=image;noLabel=1;verticalAlign=top;aspect=fixed;imageAspect=0;image=data:image/svg+xml,PD94bWwgdmVyc2lvbj0iMS4wIiBlbmNvZGluZz0idXMtYXNjaWkiIHN0YW5kYWxvbmU9Im5vIj8+PHN2ZyB4bWxucz0iaHR0cDovL3d3dy53My5vcmcvMjAwMC9zdmciIHhtbG5zOnhsaW5rPSJodHRwOi8vd3d3LnczLm9yZy8xOTk5L3hsaW5rIiBjb250ZW50U3R5bGVUeXBlPSJ0ZXh0L2NzcyIgaGVpZ2h0PSI4M3B4IiBwcmVzZXJ2ZUFzcGVjdFJhdGlvPSJub25lIiBzdHlsZT0id2lkdGg6MjY4cHg7aGVpZ2h0OjgzcHg7YmFja2dyb3VuZDojRkZGRkZGOyIgdmVyc2lvbj0iMS4xIiB2aWV3Qm94PSIwIDAgMjY4IDgzIiB3aWR0aD0iMjY4cHgiIHpvb21BbmRQYW49Im1hZ25pZnkiPjxkZWZzLz48Zz48IS0tY2xhc3MgT3JkZXJBZGRlZENvbW1hbmQtLT48ZyBpZD0iZWxlbV9PcmRlckFkZGVkQ29tbWFuZCI+PHJlY3QgY29kZUxpbmU9IjEiIGZpbGw9IiNGMUYxRjEiIGhlaWdodD0iNjIuOTg0NCIgaWQ9Ik9yZGVyQWRkZWRDb21tYW5kIiByeD0iMi41IiByeT0iMi41IiBzdHlsZT0ic3Ryb2tlOiMxODE4MTg7c3Ryb2tlLXdpZHRoOjAuNTsiIHdpZHRoPSIyNDciIHg9IjciIHk9IjciLz48ZWxsaXBzZSBjeD0iNjUuNzUiIGN5PSIyMyIgZmlsbD0iI0FERDFCMiIgcng9IjExIiByeT0iMTEiIHN0eWxlPSJzdHJva2U6IzE4MTgxODtzdHJva2Utd2lkdGg6MS4wOyIvPjxwYXRoIGQ9Ik02My4zNzUsMjcuMjUgTDYzLjM3NSwyOSBMNjguMzEyNSwyOSBMNjguMzEyNSwyNy4yNSBMNjMuMzc1LDI3LjI1IFogTTY0LjA2MjUsMjcuOTM3NSBRNjQuMDYyNSwyNy45Mzc1IDY0LjA2MjUsMTguNzUgTDYyLjMxMjUsMTguNzUgUTYyLjMxMjUsMTguNzUgNjIuMzEyNSwyNy45Mzc1IEw2NC4wNjI1LDI3LjkzNzUgWiBNNjcuNjI1LDI3LjkzNzUgTDY5LjM3NSwyNy45Mzc1IFE2OS4zNzUsMjcuOTM3NSA2OS4zNzUsMjUuMTI1IEw2Ny42MjUsMjUuMTI1IFE2Ny42MjUsMjUuMTI1IDY3LjYyNSwyNy45Mzc1IFogTTY3LjYyNSwxOC43NSBRNjcuNjI1LDE4Ljc1IDY3LjYyNSwyMS41NjI1IEw2OS4zNzUsMjEuNTYyNSBRNjkuMzc1LDIxLjU2MjUgNjkuMzc1LDE4Ljc1IEw2Ny42MjUsMTguNzUgWiBNNjMuMzc1LDE5LjQzNzUgTDY4LjMxMjUsMTkuNDM3NSBMNjguMzEyNSwxNy42ODc1IEw2My4zNzUsMTcuNjg3NSBMNjMuMzc1LDE5LjQzNzUgWiAiIGZpbGw9IiMwMDAwMDAiLz48dGV4dCBmaWxsPSIjMDAwMDAwIiBmb250LWZhbWlseT0ic2Fucy1zZXJpZiIgZm9udC1zaXplPSIxNCIgbGVuZ3RoQWRqdXN0PSJzcGFjaW5nIiB0ZXh0TGVuZ3RoPSIxMjEiIHg9Ijg2LjI1IiB5PSIyOC43NDIyIj5PcmRlckFkZGVkQ29tbWFuZDwvdGV4dD48bGluZSBzdHlsZT0ic3Ryb2tlOiMxODE4MTg7c3Ryb2tlLXdpZHRoOjAuNTsiIHgxPSI4IiB4Mj0iMjUzIiB5MT0iMzkiIHkyPSIzOSIvPjxlbGxpcHNlIGN4PSIxOCIgY3k9IjUxLjk5MjIiIGZpbGw9Im5vbmUiIHJ4PSIzIiByeT0iMyIgc3R5bGU9InN0cm9rZTojMDM4MDQ4O3N0cm9rZS13aWR0aDoxLjA7Ii8+PHRleHQgZmlsbD0iIzAwMDAwMCIgZm9udC1mYW1pbHk9InNhbnMtc2VyaWYiIGZvbnQtc2l6ZT0iMTQiIGxlbmd0aEFkanVzdD0ic3BhY2luZyIgdGV4dExlbmd0aD0iMjIxIiB4PSIyNyIgeT0iNTYuMjM0NCI+T3JkZXJEdG8gOiBPcmRlckR0byAmIzE3MTtnZXQmIzE4NzsgJiMxNzE7c2V0JiMxODc7PC90ZXh0PjxsaW5lIHN0eWxlPSJzdHJva2U6IzE4MTgxODtzdHJva2Utd2lkdGg6MC41OyIgeDE9IjgiIHgyPSIyNTMiIHkxPSI2MS45ODQ0IiB5Mj0iNjEuOTg0NCIvPjwvZz48IS0tU1JDPVtJeXY5QjJ2TXkyekFJSXJvSjRiOUpON0VweXJEcDRqSGdFUEkwMDlqWThuQklSdzI1TzlmT3ZFVU1jOWQxd0lCR0pITkJHMDBdLS0+PC9nPjwvc3ZnPg==;" vertex="1" parent="1">
            <mxGeometry x="916" y="2240" width="268" height="83" as="geometry" />
          </mxCell>
        </UserObject>
        <UserObject label="" plantUmlData="{&#xa;  &quot;data&quot;: &quot;@startuml\nclass OrderAddedCommandHandler {\n    + &lt;&lt;async&gt;&gt; Handle(request:OrderAddedCommand, cancellationToken:CancellationToken) : Task\n}\n@enduml\n&quot;,&#xa;  &quot;format&quot;: &quot;svg&quot;&#xa;}" id="inqcZ7f0K8DUZhspQT13-17">
          <mxCell style="shape=image;noLabel=1;verticalAlign=top;aspect=fixed;imageAspect=0;image=data:image/svg+xml,PD94bWwgdmVyc2lvbj0iMS4wIiBlbmNvZGluZz0idXMtYXNjaWkiIHN0YW5kYWxvbmU9Im5vIj8+PHN2ZyB4bWxucz0iaHR0cDovL3d3dy53My5vcmcvMjAwMC9zdmciIHhtbG5zOnhsaW5rPSJodHRwOi8vd3d3LnczLm9yZy8xOTk5L3hsaW5rIiBjb250ZW50U3R5bGVUeXBlPSJ0ZXh0L2NzcyIgaGVpZ2h0PSI4M3B4IiBwcmVzZXJ2ZUFzcGVjdFJhdGlvPSJub25lIiBzdHlsZT0id2lkdGg6NjQ4cHg7aGVpZ2h0OjgzcHg7YmFja2dyb3VuZDojRkZGRkZGOyIgdmVyc2lvbj0iMS4xIiB2aWV3Qm94PSIwIDAgNjQ4IDgzIiB3aWR0aD0iNjQ4cHgiIHpvb21BbmRQYW49Im1hZ25pZnkiPjxkZWZzLz48Zz48IS0tY2xhc3MgT3JkZXJBZGRlZENvbW1hbmRIYW5kbGVyLS0+PGcgaWQ9ImVsZW1fT3JkZXJBZGRlZENvbW1hbmRIYW5kbGVyIj48cmVjdCBjb2RlTGluZT0iMSIgZmlsbD0iI0YxRjFGMSIgaGVpZ2h0PSI2Mi45ODQ0IiBpZD0iT3JkZXJBZGRlZENvbW1hbmRIYW5kbGVyIiByeD0iMi41IiByeT0iMi41IiBzdHlsZT0ic3Ryb2tlOiMxODE4MTg7c3Ryb2tlLXdpZHRoOjAuNTsiIHdpZHRoPSI2MjciIHg9IjciIHk9IjciLz48ZWxsaXBzZSBjeD0iMjMxLjI1IiBjeT0iMjMiIGZpbGw9IiNBREQxQjIiIHJ4PSIxMSIgcnk9IjExIiBzdHlsZT0ic3Ryb2tlOiMxODE4MTg7c3Ryb2tlLXdpZHRoOjEuMDsiLz48cGF0aCBkPSJNMjI4Ljg3NSwyNy4yNSBMMjI4Ljg3NSwyOSBMMjMzLjgxMjUsMjkgTDIzMy44MTI1LDI3LjI1IEwyMjguODc1LDI3LjI1IFogTTIyOS41NjI1LDI3LjkzNzUgUTIyOS41NjI1LDI3LjkzNzUgMjI5LjU2MjUsMTguNzUgTDIyNy44MTI1LDE4Ljc1IFEyMjcuODEyNSwxOC43NSAyMjcuODEyNSwyNy45Mzc1IEwyMjkuNTYyNSwyNy45Mzc1IFogTTIzMy4xMjUsMjcuOTM3NSBMMjM0Ljg3NSwyNy45Mzc1IFEyMzQuODc1LDI3LjkzNzUgMjM0Ljg3NSwyNS4xMjUgTDIzMy4xMjUsMjUuMTI1IFEyMzMuMTI1LDI1LjEyNSAyMzMuMTI1LDI3LjkzNzUgWiBNMjMzLjEyNSwxOC43NSBRMjMzLjEyNSwxOC43NSAyMzMuMTI1LDIxLjU2MjUgTDIzNC44NzUsMjEuNTYyNSBRMjM0Ljg3NSwyMS41NjI1IDIzNC44NzUsMTguNzUgTDIzMy4xMjUsMTguNzUgWiBNMjI4Ljg3NSwxOS40Mzc1IEwyMzMuODEyNSwxOS40Mzc1IEwyMzMuODEyNSwxNy42ODc1IEwyMjguODc1LDE3LjY4NzUgTDIyOC44NzUsMTkuNDM3NSBaICIgZmlsbD0iIzAwMDAwMCIvPjx0ZXh0IGZpbGw9IiMwMDAwMDAiIGZvbnQtZmFtaWx5PSJzYW5zLXNlcmlmIiBmb250LXNpemU9IjE0IiBsZW5ndGhBZGp1c3Q9InNwYWNpbmciIHRleHRMZW5ndGg9IjE3MCIgeD0iMjUxLjc1IiB5PSIyOC43NDIyIj5PcmRlckFkZGVkQ29tbWFuZEhhbmRsZXI8L3RleHQ+PGxpbmUgc3R5bGU9InN0cm9rZTojMTgxODE4O3N0cm9rZS13aWR0aDowLjU7IiB4MT0iOCIgeDI9IjYzMyIgeTE9IjM5IiB5Mj0iMzkiLz48bGluZSBzdHlsZT0ic3Ryb2tlOiMxODE4MTg7c3Ryb2tlLXdpZHRoOjAuNTsiIHgxPSI4IiB4Mj0iNjMzIiB5MT0iNDciIHkyPSI0NyIvPjxlbGxpcHNlIGN4PSIxOCIgY3k9IjU5Ljk5MjIiIGZpbGw9IiM4NEJFODQiIHJ4PSIzIiByeT0iMyIgc3R5bGU9InN0cm9rZTojMDM4MDQ4O3N0cm9rZS13aWR0aDoxLjA7Ii8+PHRleHQgZmlsbD0iIzAwMDAwMCIgZm9udC1mYW1pbHk9InNhbnMtc2VyaWYiIGZvbnQtc2l6ZT0iMTQiIGxlbmd0aEFkanVzdD0ic3BhY2luZyIgdGV4dExlbmd0aD0iNjAxIiB4PSIyNyIgeT0iNjQuMjM0NCI+JiMxNzE7YXN5bmMmIzE4NzsgSGFuZGxlKHJlcXVlc3Q6T3JkZXJBZGRlZENvbW1hbmQsIGNhbmNlbGxhdGlvblRva2VuOkNhbmNlbGxhdGlvblRva2VuKSA6IFRhc2s8L3RleHQ+PC9nPjwhLS1TUkM9W0l5djlCMnZNeTJ6QUlJcm9KNGI5Sk43RXB5ckRwNGxuMEVBU3IyQTVRWXU1OEQxTWlCNTlCQXhDSXhRcEt1MzhRMUliNWZRYzVmVE9PVVpLS0tYRXA0akVwU2I5QkNkQ3BtbDlwcXhEaXQ5NjV6NUtpNTg4SUlwRXZnZTUwMDAwXS0tPjwvZz48L3N2Zz4=;" vertex="1" parent="1">
            <mxGeometry x="1206" y="2246" width="648" height="83" as="geometry" />
          </mxCell>
        </UserObject>
        <UserObject label="" plantUmlData="{&quot;data&quot;:&quot;@startuml\nclass WebhookController {\n    - &lt;&lt;readonly&gt;&gt; _mediator : IMediator\n    + WebhookController(mediator:IMediator)\n    + &lt;&lt;async&gt;&gt; WebhookOrderAdded(orderDto:OrderDto) : Task&lt;ActionResult&lt;OrderDto&gt;&gt;\n    + &lt;&lt;async&gt;&gt; WebhookOrderUpdated(id:int, orderDto:OrderDto) : Task&lt;ActionResult&lt;OrderDto&gt;&gt;\n    + &lt;&lt;async&gt;&gt; WebhookOrderDeleted(id:int) : Task&lt;ActionResult&gt;\n}\n@enduml\n&quot;,&quot;format&quot;:&quot;svg&quot;}" id="inqcZ7f0K8DUZhspQT13-28">
          <mxCell style="shape=image;noLabel=1;verticalAlign=top;aspect=fixed;imageAspect=0;image=data:image/svg+xml,PD94bWwgdmVyc2lvbj0iMS4wIiBlbmNvZGluZz0idXMtYXNjaWkiIHN0YW5kYWxvbmU9Im5vIj8+PHN2ZyB4bWxucz0iaHR0cDovL3d3dy53My5vcmcvMjAwMC9zdmciIHhtbG5zOnhsaW5rPSJodHRwOi8vd3d3LnczLm9yZy8xOTk5L3hsaW5rIiBjb250ZW50U3R5bGVUeXBlPSJ0ZXh0L2NzcyIgaGVpZ2h0PSIxNDNweCIgcHJlc2VydmVBc3BlY3RSYXRpbz0ibm9uZSIgc3R5bGU9IndpZHRoOjY0NnB4O2hlaWdodDoxNDNweDtiYWNrZ3JvdW5kOiNGRkZGRkY7IiB2ZXJzaW9uPSIxLjEiIHZpZXdCb3g9IjAgMCA2NDYgMTQzIiB3aWR0aD0iNjQ2cHgiIHpvb21BbmRQYW49Im1hZ25pZnkiPjxkZWZzLz48Zz48IS0tY2xhc3MgV2ViaG9va0NvbnRyb2xsZXItLT48ZyBpZD0iZWxlbV9XZWJob29rQ29udHJvbGxlciI+PHJlY3QgY29kZUxpbmU9IjEiIGZpbGw9IiNGMUYxRjEiIGhlaWdodD0iMTIyLjkyMTkiIGlkPSJXZWJob29rQ29udHJvbGxlciIgcng9IjIuNSIgcnk9IjIuNSIgc3R5bGU9InN0cm9rZTojMTgxODE4O3N0cm9rZS13aWR0aDowLjU7IiB3aWR0aD0iNjI1IiB4PSI3IiB5PSI3Ii8+PGVsbGlwc2UgY3g9IjI1NS43NSIgY3k9IjIzIiBmaWxsPSIjQUREMUIyIiByeD0iMTEiIHJ5PSIxMSIgc3R5bGU9InN0cm9rZTojMTgxODE4O3N0cm9rZS13aWR0aDoxLjA7Ii8+PHBhdGggZD0iTTI1My4zNzUsMjcuMjUgTDI1My4zNzUsMjkgTDI1OC4zMTI1LDI5IEwyNTguMzEyNSwyNy4yNSBMMjUzLjM3NSwyNy4yNSBaIE0yNTQuMDYyNSwyNy45Mzc1IFEyNTQuMDYyNSwyNy45Mzc1IDI1NC4wNjI1LDE4Ljc1IEwyNTIuMzEyNSwxOC43NSBRMjUyLjMxMjUsMTguNzUgMjUyLjMxMjUsMjcuOTM3NSBMMjU0LjA2MjUsMjcuOTM3NSBaIE0yNTcuNjI1LDI3LjkzNzUgTDI1OS4zNzUsMjcuOTM3NSBRMjU5LjM3NSwyNy45Mzc1IDI1OS4zNzUsMjUuMTI1IEwyNTcuNjI1LDI1LjEyNSBRMjU3LjYyNSwyNS4xMjUgMjU3LjYyNSwyNy45Mzc1IFogTTI1Ny42MjUsMTguNzUgUTI1Ny42MjUsMTguNzUgMjU3LjYyNSwyMS41NjI1IEwyNTkuMzc1LDIxLjU2MjUgUTI1OS4zNzUsMjEuNTYyNSAyNTkuMzc1LDE4Ljc1IEwyNTcuNjI1LDE4Ljc1IFogTTI1My4zNzUsMTkuNDM3NSBMMjU4LjMxMjUsMTkuNDM3NSBMMjU4LjMxMjUsMTcuNjg3NSBMMjUzLjM3NSwxNy42ODc1IEwyNTMuMzc1LDE5LjQzNzUgWiAiIGZpbGw9IiMwMDAwMDAiLz48dGV4dCBmaWxsPSIjMDAwMDAwIiBmb250LWZhbWlseT0ic2Fucy1zZXJpZiIgZm9udC1zaXplPSIxNCIgbGVuZ3RoQWRqdXN0PSJzcGFjaW5nIiB0ZXh0TGVuZ3RoPSIxMTkiIHg9IjI3Ni4yNSIgeT0iMjguNzQyMiI+V2ViaG9va0NvbnRyb2xsZXI8L3RleHQ+PGxpbmUgc3R5bGU9InN0cm9rZTojMTgxODE4O3N0cm9rZS13aWR0aDowLjU7IiB4MT0iOCIgeDI9IjYzMSIgeTE9IjM5IiB5Mj0iMzkiLz48cmVjdCBmaWxsPSJub25lIiBoZWlnaHQ9IjYiIHN0eWxlPSJzdHJva2U6I0M4MjkzMDtzdHJva2Utd2lkdGg6MS4wOyIgd2lkdGg9IjYiIHg9IjE1IiB5PSI0OC45OTIyIi8+PHRleHQgZmlsbD0iIzAwMDAwMCIgZm9udC1mYW1pbHk9InNhbnMtc2VyaWYiIGZvbnQtc2l6ZT0iMTQiIGxlbmd0aEFkanVzdD0ic3BhY2luZyIgdGV4dExlbmd0aD0iMjI3IiB4PSIyNyIgeT0iNTYuMjM0NCI+JiMxNzE7cmVhZG9ubHkmIzE4NzsgX21lZGlhdG9yIDogSU1lZGlhdG9yPC90ZXh0PjxsaW5lIHN0eWxlPSJzdHJva2U6IzE4MTgxODtzdHJva2Utd2lkdGg6MC41OyIgeDE9IjgiIHgyPSI2MzEiIHkxPSI2MS45ODQ0IiB5Mj0iNjEuOTg0NCIvPjxlbGxpcHNlIGN4PSIxOCIgY3k9Ijc0Ljk3NjYiIGZpbGw9IiM4NEJFODQiIHJ4PSIzIiByeT0iMyIgc3R5bGU9InN0cm9rZTojMDM4MDQ4O3N0cm9rZS13aWR0aDoxLjA7Ii8+PHRleHQgZmlsbD0iIzAwMDAwMCIgZm9udC1mYW1pbHk9InNhbnMtc2VyaWYiIGZvbnQtc2l6ZT0iMTQiIGxlbmd0aEFkanVzdD0ic3BhY2luZyIgdGV4dExlbmd0aD0iMjYyIiB4PSIyNyIgeT0iNzkuMjE4OCI+V2ViaG9va0NvbnRyb2xsZXIobWVkaWF0b3I6SU1lZGlhdG9yKTwvdGV4dD48ZWxsaXBzZSBjeD0iMTgiIGN5PSI4OS45NjA5IiBmaWxsPSIjODRCRTg0IiByeD0iMyIgcnk9IjMiIHN0eWxlPSJzdHJva2U6IzAzODA0ODtzdHJva2Utd2lkdGg6MS4wOyIvPjx0ZXh0IGZpbGw9IiMwMDAwMDAiIGZvbnQtZmFtaWx5PSJzYW5zLXNlcmlmIiBmb250LXNpemU9IjE0IiBsZW5ndGhBZGp1c3Q9InNwYWNpbmciIHRleHRMZW5ndGg9IjUyOSIgeD0iMjciIHk9Ijk0LjIwMzEiPiYjMTcxO2FzeW5jJiMxODc7IFdlYmhvb2tPcmRlckFkZGVkKG9yZGVyRHRvOk9yZGVyRHRvKSA6IFRhc2smbHQ7QWN0aW9uUmVzdWx0Jmx0O09yZGVyRHRvJmd0OyZndDs8L3RleHQ+PGVsbGlwc2UgY3g9IjE4IiBjeT0iMTA0Ljk0NTMiIGZpbGw9IiM4NEJFODQiIHJ4PSIzIiByeT0iMyIgc3R5bGU9InN0cm9rZTojMDM4MDQ4O3N0cm9rZS13aWR0aDoxLjA7Ii8+PHRleHQgZmlsbD0iIzAwMDAwMCIgZm9udC1mYW1pbHk9InNhbnMtc2VyaWYiIGZvbnQtc2l6ZT0iMTQiIGxlbmd0aEFkanVzdD0ic3BhY2luZyIgdGV4dExlbmd0aD0iNTk5IiB4PSIyNyIgeT0iMTA5LjE4NzUiPiYjMTcxO2FzeW5jJiMxODc7IFdlYmhvb2tPcmRlclVwZGF0ZWQoaWQ6aW50LCBvcmRlckR0bzpPcmRlckR0bykgOiBUYXNrJmx0O0FjdGlvblJlc3VsdCZsdDtPcmRlckR0byZndDsmZ3Q7PC90ZXh0PjxlbGxpcHNlIGN4PSIxOCIgY3k9IjExOS45Mjk3IiBmaWxsPSIjODRCRTg0IiByeD0iMyIgcnk9IjMiIHN0eWxlPSJzdHJva2U6IzAzODA0ODtzdHJva2Utd2lkdGg6MS4wOyIvPjx0ZXh0IGZpbGw9IiMwMDAwMDAiIGZvbnQtZmFtaWx5PSJzYW5zLXNlcmlmIiBmb250LXNpemU9IjE0IiBsZW5ndGhBZGp1c3Q9InNwYWNpbmciIHRleHRMZW5ndGg9IjM5NiIgeD0iMjciIHk9IjEyNC4xNzE5Ij4mIzE3MTthc3luYyYjMTg3OyBXZWJob29rT3JkZXJEZWxldGVkKGlkOmludCkgOiBUYXNrJmx0O0FjdGlvblJlc3VsdCZndDs8L3RleHQ+PC9nPjwhLS1TUkM9W2hPc24yaThtNDQzdFZpTURCVWVGWDEwZVRkNkdXWVlFNGRpN1hpUFNJVTlHbjd5dElnZzN1a0hEMy14VGt5eGc0NjFGbm5EcGxzR05GTGpCN2d1NWY1YzBiOXVxaWhFWktkMHU0bmVUc09FMHJKaHBLdm56OWlmOTVZLXJvZ3dLRWVva0l5THlyTmVhTm9DSWJscDA5aDllQ3JKZnNMUTdOalBUREVtczUydXNvY2NockNfY1JhMFRLek1XQzJ4RXVSX3JYWW96d3J6SmdoWlQwRzAwXS0tPjwvZz48L3N2Zz4=;" vertex="1" parent="1">
            <mxGeometry x="-800" y="550" width="646" height="143" as="geometry" />
          </mxCell>
        </UserObject>
        <UserObject label="" plantUmlData="{&quot;data&quot;:&quot;@startuml\nclass GuestHub {\n    - {static} &lt;&lt;readonly&gt;&gt; MsgScreenAdded : string = \&quot;screenAdded\&quot;\n    - {static} &lt;&lt;readonly&gt;&gt; MsgPairCode : string = \&quot;pairCode\&quot;\n    - &lt;&lt;readonly&gt;&gt; _pairCodeGenerator : PairCodeGenerator\n    + &lt;&lt;override&gt;&gt; &lt;&lt;async&gt;&gt; OnConnectedAsync() : Task\n    + &lt;&lt;async&gt;&gt; OnSuccessfulPairing(pairingCode:string) : Task\n    + &lt;&lt;override&gt;&gt; &lt;&lt;async&gt;&gt; OnDisconnectedAsync(exception:Exception?) : Task\n    - &lt;&lt;async&gt;&gt; SendMessageToClient(pairCode:string, method:string, message:T) : Task\n    + &lt;&lt;async&gt;&gt; SendMessageAddScreen(pairCode:string, screenDto:ScreenDto) : Task\n    - &lt;&lt;async&gt;&gt; SendMessagePairCode(pairCode:string) : Task\n}\n@enduml\n&quot;,&quot;format&quot;:&quot;svg&quot;}" id="inqcZ7f0K8DUZhspQT13-29">
          <mxCell style="shape=image;noLabel=1;verticalAlign=top;aspect=fixed;imageAspect=0;image=data:image/svg+xml,PD94bWwgdmVyc2lvbj0iMS4wIiBlbmNvZGluZz0idXMtYXNjaWkiIHN0YW5kYWxvbmU9Im5vIj8+PHN2ZyB4bWxucz0iaHR0cDovL3d3dy53My5vcmcvMjAwMC9zdmciIHhtbG5zOnhsaW5rPSJodHRwOi8vd3d3LnczLm9yZy8xOTk5L3hsaW5rIiBjb250ZW50U3R5bGVUeXBlPSJ0ZXh0L2NzcyIgaGVpZ2h0PSIyMDNweCIgcHJlc2VydmVBc3BlY3RSYXRpbz0ibm9uZSIgc3R5bGU9IndpZHRoOjU5MnB4O2hlaWdodDoyMDNweDtiYWNrZ3JvdW5kOiNGRkZGRkY7IiB2ZXJzaW9uPSIxLjEiIHZpZXdCb3g9IjAgMCA1OTIgMjAzIiB3aWR0aD0iNTkycHgiIHpvb21BbmRQYW49Im1hZ25pZnkiPjxkZWZzLz48Zz48IS0tY2xhc3MgR3Vlc3RIdWItLT48ZyBpZD0iZWxlbV9HdWVzdEh1YiI+PHJlY3QgY29kZUxpbmU9IjEiIGZpbGw9IiNGMUYxRjEiIGhlaWdodD0iMTgyLjg1OTQiIGlkPSJHdWVzdEh1YiIgcng9IjIuNSIgcnk9IjIuNSIgc3R5bGU9InN0cm9rZTojMTgxODE4O3N0cm9rZS13aWR0aDowLjU7IiB3aWR0aD0iNTcxIiB4PSI3IiB5PSI3Ii8+PGVsbGlwc2UgY3g9IjI2MC4yNSIgY3k9IjIzIiBmaWxsPSIjQUREMUIyIiByeD0iMTEiIHJ5PSIxMSIgc3R5bGU9InN0cm9rZTojMTgxODE4O3N0cm9rZS13aWR0aDoxLjA7Ii8+PHBhdGggZD0iTTI1Ny44NzUsMjcuMjUgTDI1Ny44NzUsMjkgTDI2Mi44MTI1LDI5IEwyNjIuODEyNSwyNy4yNSBMMjU3Ljg3NSwyNy4yNSBaIE0yNTguNTYyNSwyNy45Mzc1IFEyNTguNTYyNSwyNy45Mzc1IDI1OC41NjI1LDE4Ljc1IEwyNTYuODEyNSwxOC43NSBRMjU2LjgxMjUsMTguNzUgMjU2LjgxMjUsMjcuOTM3NSBMMjU4LjU2MjUsMjcuOTM3NSBaIE0yNjIuMTI1LDI3LjkzNzUgTDI2My44NzUsMjcuOTM3NSBRMjYzLjg3NSwyNy45Mzc1IDI2My44NzUsMjUuMTI1IEwyNjIuMTI1LDI1LjEyNSBRMjYyLjEyNSwyNS4xMjUgMjYyLjEyNSwyNy45Mzc1IFogTTI2Mi4xMjUsMTguNzUgUTI2Mi4xMjUsMTguNzUgMjYyLjEyNSwyMS41NjI1IEwyNjMuODc1LDIxLjU2MjUgUTI2My44NzUsMjEuNTYyNSAyNjMuODc1LDE4Ljc1IEwyNjIuMTI1LDE4Ljc1IFogTTI1Ny44NzUsMTkuNDM3NSBMMjYyLjgxMjUsMTkuNDM3NSBMMjYyLjgxMjUsMTcuNjg3NSBMMjU3Ljg3NSwxNy42ODc1IEwyNTcuODc1LDE5LjQzNzUgWiAiIGZpbGw9IiMwMDAwMDAiLz48dGV4dCBmaWxsPSIjMDAwMDAwIiBmb250LWZhbWlseT0ic2Fucy1zZXJpZiIgZm9udC1zaXplPSIxNCIgbGVuZ3RoQWRqdXN0PSJzcGFjaW5nIiB0ZXh0TGVuZ3RoPSI1NiIgeD0iMjgwLjc1IiB5PSIyOC43NDIyIj5HdWVzdEh1YjwvdGV4dD48bGluZSBzdHlsZT0ic3Ryb2tlOiMxODE4MTg7c3Ryb2tlLXdpZHRoOjAuNTsiIHgxPSI4IiB4Mj0iNTc3IiB5MT0iMzkiIHkyPSIzOSIvPjxyZWN0IGZpbGw9Im5vbmUiIGhlaWdodD0iNiIgc3R5bGU9InN0cm9rZTojQzgyOTMwO3N0cm9rZS13aWR0aDoxLjA7IiB3aWR0aD0iNiIgeD0iMTUiIHk9IjQ4Ljk5MjIiLz48dGV4dCBmaWxsPSIjMDAwMDAwIiBmb250LWZhbWlseT0ic2Fucy1zZXJpZiIgZm9udC1zaXplPSIxNCIgbGVuZ3RoQWRqdXN0PSJzcGFjaW5nIiB0ZXh0LWRlY29yYXRpb249InVuZGVybGluZSIgdGV4dExlbmd0aD0iMzU0IiB4PSIyNyIgeT0iNTYuMjM0NCI+JiMxNzE7cmVhZG9ubHkmIzE4NzsgTXNnU2NyZWVuQWRkZWQgOiBzdHJpbmcgPSAic2NyZWVuQWRkZWQiPC90ZXh0PjxyZWN0IGZpbGw9Im5vbmUiIGhlaWdodD0iNiIgc3R5bGU9InN0cm9rZTojQzgyOTMwO3N0cm9rZS13aWR0aDoxLjA7IiB3aWR0aD0iNiIgeD0iMTUiIHk9IjYzLjk3NjYiLz48dGV4dCBmaWxsPSIjMDAwMDAwIiBmb250LWZhbWlseT0ic2Fucy1zZXJpZiIgZm9udC1zaXplPSIxNCIgbGVuZ3RoQWRqdXN0PSJzcGFjaW5nIiB0ZXh0LWRlY29yYXRpb249InVuZGVybGluZSIgdGV4dExlbmd0aD0iMzEyIiB4PSIyNyIgeT0iNzEuMjE4OCI+JiMxNzE7cmVhZG9ubHkmIzE4NzsgTXNnUGFpckNvZGUgOiBzdHJpbmcgPSAicGFpckNvZGUiPC90ZXh0PjxyZWN0IGZpbGw9Im5vbmUiIGhlaWdodD0iNiIgc3R5bGU9InN0cm9rZTojQzgyOTMwO3N0cm9rZS13aWR0aDoxLjA7IiB3aWR0aD0iNiIgeD0iMTUiIHk9Ijc4Ljk2MDkiLz48dGV4dCBmaWxsPSIjMDAwMDAwIiBmb250LWZhbWlseT0ic2Fucy1zZXJpZiIgZm9udC1zaXplPSIxNCIgbGVuZ3RoQWRqdXN0PSJzcGFjaW5nIiB0ZXh0TGVuZ3RoPSIzNDUiIHg9IjI3IiB5PSI4Ni4yMDMxIj4mIzE3MTtyZWFkb25seSYjMTg3OyBfcGFpckNvZGVHZW5lcmF0b3IgOiBQYWlyQ29kZUdlbmVyYXRvcjwvdGV4dD48bGluZSBzdHlsZT0ic3Ryb2tlOiMxODE4MTg7c3Ryb2tlLXdpZHRoOjAuNTsiIHgxPSI4IiB4Mj0iNTc3IiB5MT0iOTEuOTUzMSIgeTI9IjkxLjk1MzEiLz48ZWxsaXBzZSBjeD0iMTgiIGN5PSIxMDQuOTQ1MyIgZmlsbD0iIzg0QkU4NCIgcng9IjMiIHJ5PSIzIiBzdHlsZT0ic3Ryb2tlOiMwMzgwNDg7c3Ryb2tlLXdpZHRoOjEuMDsiLz48dGV4dCBmaWxsPSIjMDAwMDAwIiBmb250LWZhbWlseT0ic2Fucy1zZXJpZiIgZm9udC1zaXplPSIxNCIgbGVuZ3RoQWRqdXN0PSJzcGFjaW5nIiB0ZXh0TGVuZ3RoPSIzMTQiIHg9IjI3IiB5PSIxMDkuMTg3NSI+JiMxNzE7b3ZlcnJpZGUmIzE4NzsgJiMxNzE7YXN5bmMmIzE4NzsgT25Db25uZWN0ZWRBc3luYygpIDogVGFzazwvdGV4dD48ZWxsaXBzZSBjeD0iMTgiIGN5PSIxMTkuOTI5NyIgZmlsbD0iIzg0QkU4NCIgcng9IjMiIHJ5PSIzIiBzdHlsZT0ic3Ryb2tlOiMwMzgwNDg7c3Ryb2tlLXdpZHRoOjEuMDsiLz48dGV4dCBmaWxsPSIjMDAwMDAwIiBmb250LWZhbWlseT0ic2Fucy1zZXJpZiIgZm9udC1zaXplPSIxNCIgbGVuZ3RoQWRqdXN0PSJzcGFjaW5nIiB0ZXh0TGVuZ3RoPSIzODIiIHg9IjI3IiB5PSIxMjQuMTcxOSI+JiMxNzE7YXN5bmMmIzE4NzsgT25TdWNjZXNzZnVsUGFpcmluZyhwYWlyaW5nQ29kZTpzdHJpbmcpIDogVGFzazwvdGV4dD48ZWxsaXBzZSBjeD0iMTgiIGN5PSIxMzQuOTE0MSIgZmlsbD0iIzg0QkU4NCIgcng9IjMiIHJ5PSIzIiBzdHlsZT0ic3Ryb2tlOiMwMzgwNDg7c3Ryb2tlLXdpZHRoOjEuMDsiLz48dGV4dCBmaWxsPSIjMDAwMDAwIiBmb250LWZhbWlseT0ic2Fucy1zZXJpZiIgZm9udC1zaXplPSIxNCIgbGVuZ3RoQWRqdXN0PSJzcGFjaW5nIiB0ZXh0TGVuZ3RoPSI0NzUiIHg9IjI3IiB5PSIxMzkuMTU2MyI+JiMxNzE7b3ZlcnJpZGUmIzE4NzsgJiMxNzE7YXN5bmMmIzE4NzsgT25EaXNjb25uZWN0ZWRBc3luYyhleGNlcHRpb246RXhjZXB0aW9uPykgOiBUYXNrPC90ZXh0PjxyZWN0IGZpbGw9IiNGMjRENUMiIGhlaWdodD0iNiIgc3R5bGU9InN0cm9rZTojQzgyOTMwO3N0cm9rZS13aWR0aDoxLjA7IiB3aWR0aD0iNiIgeD0iMTUiIHk9IjE0Ni44OTg0Ii8+PHRleHQgZmlsbD0iIzAwMDAwMCIgZm9udC1mYW1pbHk9InNhbnMtc2VyaWYiIGZvbnQtc2l6ZT0iMTQiIGxlbmd0aEFkanVzdD0ic3BhY2luZyIgdGV4dExlbmd0aD0iNTQ1IiB4PSIyNyIgeT0iMTU0LjE0MDYiPiYjMTcxO2FzeW5jJiMxODc7IFNlbmRNZXNzYWdlVG9DbGllbnQocGFpckNvZGU6c3RyaW5nLCBtZXRob2Q6c3RyaW5nLCBtZXNzYWdlOlQpIDogVGFzazwvdGV4dD48ZWxsaXBzZSBjeD0iMTgiIGN5PSIxNjQuODgyOCIgZmlsbD0iIzg0QkU4NCIgcng9IjMiIHJ5PSIzIiBzdHlsZT0ic3Ryb2tlOiMwMzgwNDg7c3Ryb2tlLXdpZHRoOjEuMDsiLz48dGV4dCBmaWxsPSIjMDAwMDAwIiBmb250LWZhbWlseT0ic2Fucy1zZXJpZiIgZm9udC1zaXplPSIxNCIgbGVuZ3RoQWRqdXN0PSJzcGFjaW5nIiB0ZXh0TGVuZ3RoPSI1MTUiIHg9IjI3IiB5PSIxNjkuMTI1Ij4mIzE3MTthc3luYyYjMTg3OyBTZW5kTWVzc2FnZUFkZFNjcmVlbihwYWlyQ29kZTpzdHJpbmcsIHNjcmVlbkR0bzpTY3JlZW5EdG8pIDogVGFzazwvdGV4dD48cmVjdCBmaWxsPSIjRjI0RDVDIiBoZWlnaHQ9IjYiIHN0eWxlPSJzdHJva2U6I0M4MjkzMDtzdHJva2Utd2lkdGg6MS4wOyIgd2lkdGg9IjYiIHg9IjE1IiB5PSIxNzYuODY3MiIvPjx0ZXh0IGZpbGw9IiMwMDAwMDAiIGZvbnQtZmFtaWx5PSJzYW5zLXNlcmlmIiBmb250LXNpemU9IjE0IiBsZW5ndGhBZGp1c3Q9InNwYWNpbmciIHRleHRMZW5ndGg9IjM2MSIgeD0iMjciIHk9IjE4NC4xMDk0Ij4mIzE3MTthc3luYyYjMTg3OyBTZW5kTWVzc2FnZVBhaXJDb2RlKHBhaXJDb2RlOnN0cmluZykgOiBUYXNrPC90ZXh0PjwvZz48IS0tU1JDPVtaUDcxSmlDbTM4UmxGOE1yS243aTFRZW9EN0xlTjJPY2pOU0s0YkNZWWJGNUJjQVF6a3dhd3hBcmNvUjg5T3haeF9VVk1EVUE2UE9qaVpvdFJ4MnpXUjJjaTZMSE9sS0VpaW9aQ2V4Z3BNbTZBd3VBeEg1ZlJXbVFJODc1TXdoVzBJUHlvYV8tcWJXaHd0RGRTMkpHNzlBSDdhNmx5TlE5WDV3OXl1NVRkLVZzdjVxV3RKVHdSbXE2Q2lpS1JxWTd3OExvSHVIUXFDb3hMNzhSRDRoNWRxVmlMNWNxTVlGcFVyanRKT0IzZkVkdGhiX1FjeHgwaHRIVE1EUlpubFlaaUg3aEE3c0FxVUQ4UkplR0E5M0NBZFhINVBPa2hvc0k5RjR0M2F4a3VHbGJtdmQxU0wtVmJiVVZFNTBEQy1rN1VZZFIzdEtYQllyWXoxLVZTSjNkV2FUc3ptaTBdLS0+PC9nPjwvc3ZnPg==;" vertex="1" parent="1">
            <mxGeometry x="-800" y="710" width="592" height="203" as="geometry" />
          </mxCell>
        </UserObject>
        <UserObject label="" plantUmlData="{&#xa;  &quot;data&quot;: &quot;@startuml\nclass ScreenHub {\n    - {static} &lt;&lt;readonly&gt;&gt; MsgOrderAdded : string = \&quot;orderAdded\&quot;\n    - {static} &lt;&lt;readonly&gt;&gt; MsgOrderUpdated : string = \&quot;orderUpdated\&quot;\n    - {static} &lt;&lt;readonly&gt;&gt; MsgOrderDeleted : string = \&quot;orderDeleted\&quot;\n    + &lt;&lt;async&gt;&gt; AddOrder(orderDto:OrderDto) : Task\n    + &lt;&lt;async&gt;&gt; UpdateOrder(orderDto:OrderDto) : Task\n    + &lt;&lt;async&gt;&gt; DeleteOrder(orderId:int) : Task\n}\n@enduml\n&quot;,&#xa;  &quot;format&quot;: &quot;svg&quot;&#xa;}" id="inqcZ7f0K8DUZhspQT13-30">
          <mxCell style="shape=image;noLabel=1;verticalAlign=top;aspect=fixed;imageAspect=0;image=data:image/svg+xml,PD94bWwgdmVyc2lvbj0iMS4wIiBlbmNvZGluZz0idXMtYXNjaWkiIHN0YW5kYWxvbmU9Im5vIj8+PHN2ZyB4bWxucz0iaHR0cDovL3d3dy53My5vcmcvMjAwMC9zdmciIHhtbG5zOnhsaW5rPSJodHRwOi8vd3d3LnczLm9yZy8xOTk5L3hsaW5rIiBjb250ZW50U3R5bGVUeXBlPSJ0ZXh0L2NzcyIgaGVpZ2h0PSIxNThweCIgcHJlc2VydmVBc3BlY3RSYXRpbz0ibm9uZSIgc3R5bGU9IndpZHRoOjQxNXB4O2hlaWdodDoxNThweDtiYWNrZ3JvdW5kOiNGRkZGRkY7IiB2ZXJzaW9uPSIxLjEiIHZpZXdCb3g9IjAgMCA0MTUgMTU4IiB3aWR0aD0iNDE1cHgiIHpvb21BbmRQYW49Im1hZ25pZnkiPjxkZWZzLz48Zz48IS0tY2xhc3MgU2NyZWVuSHViLS0+PGcgaWQ9ImVsZW1fU2NyZWVuSHViIj48cmVjdCBjb2RlTGluZT0iMSIgZmlsbD0iI0YxRjFGMSIgaGVpZ2h0PSIxMzcuOTA2MyIgaWQ9IlNjcmVlbkh1YiIgcng9IjIuNSIgcnk9IjIuNSIgc3R5bGU9InN0cm9rZTojMTgxODE4O3N0cm9rZS13aWR0aDowLjU7IiB3aWR0aD0iMzk0IiB4PSI3IiB5PSI3Ii8+PGVsbGlwc2UgY3g9IjE2OC4yNSIgY3k9IjIzIiBmaWxsPSIjQUREMUIyIiByeD0iMTEiIHJ5PSIxMSIgc3R5bGU9InN0cm9rZTojMTgxODE4O3N0cm9rZS13aWR0aDoxLjA7Ii8+PHBhdGggZD0iTTE2NS44NzUsMjcuMjUgTDE2NS44NzUsMjkgTDE3MC44MTI1LDI5IEwxNzAuODEyNSwyNy4yNSBMMTY1Ljg3NSwyNy4yNSBaIE0xNjYuNTYyNSwyNy45Mzc1IFExNjYuNTYyNSwyNy45Mzc1IDE2Ni41NjI1LDE4Ljc1IEwxNjQuODEyNSwxOC43NSBRMTY0LjgxMjUsMTguNzUgMTY0LjgxMjUsMjcuOTM3NSBMMTY2LjU2MjUsMjcuOTM3NSBaIE0xNzAuMTI1LDI3LjkzNzUgTDE3MS44NzUsMjcuOTM3NSBRMTcxLjg3NSwyNy45Mzc1IDE3MS44NzUsMjUuMTI1IEwxNzAuMTI1LDI1LjEyNSBRMTcwLjEyNSwyNS4xMjUgMTcwLjEyNSwyNy45Mzc1IFogTTE3MC4xMjUsMTguNzUgUTE3MC4xMjUsMTguNzUgMTcwLjEyNSwyMS41NjI1IEwxNzEuODc1LDIxLjU2MjUgUTE3MS44NzUsMjEuNTYyNSAxNzEuODc1LDE4Ljc1IEwxNzAuMTI1LDE4Ljc1IFogTTE2NS44NzUsMTkuNDM3NSBMMTcwLjgxMjUsMTkuNDM3NSBMMTcwLjgxMjUsMTcuNjg3NSBMMTY1Ljg3NSwxNy42ODc1IEwxNjUuODc1LDE5LjQzNzUgWiAiIGZpbGw9IiMwMDAwMDAiLz48dGV4dCBmaWxsPSIjMDAwMDAwIiBmb250LWZhbWlseT0ic2Fucy1zZXJpZiIgZm9udC1zaXplPSIxNCIgbGVuZ3RoQWRqdXN0PSJzcGFjaW5nIiB0ZXh0TGVuZ3RoPSI2MyIgeD0iMTg4Ljc1IiB5PSIyOC43NDIyIj5TY3JlZW5IdWI8L3RleHQ+PGxpbmUgc3R5bGU9InN0cm9rZTojMTgxODE4O3N0cm9rZS13aWR0aDowLjU7IiB4MT0iOCIgeDI9IjQwMCIgeTE9IjM5IiB5Mj0iMzkiLz48cmVjdCBmaWxsPSJub25lIiBoZWlnaHQ9IjYiIHN0eWxlPSJzdHJva2U6I0M4MjkzMDtzdHJva2Utd2lkdGg6MS4wOyIgd2lkdGg9IjYiIHg9IjE1IiB5PSI0OC45OTIyIi8+PHRleHQgZmlsbD0iIzAwMDAwMCIgZm9udC1mYW1pbHk9InNhbnMtc2VyaWYiIGZvbnQtc2l6ZT0iMTQiIGxlbmd0aEFkanVzdD0ic3BhY2luZyIgdGV4dC1kZWNvcmF0aW9uPSJ1bmRlcmxpbmUiIHRleHRMZW5ndGg9IjM0MCIgeD0iMjciIHk9IjU2LjIzNDQiPiYjMTcxO3JlYWRvbmx5JiMxODc7IE1zZ09yZGVyQWRkZWQgOiBzdHJpbmcgPSAib3JkZXJBZGRlZCI8L3RleHQ+PHJlY3QgZmlsbD0ibm9uZSIgaGVpZ2h0PSI2IiBzdHlsZT0ic3Ryb2tlOiNDODI5MzA7c3Ryb2tlLXdpZHRoOjEuMDsiIHdpZHRoPSI2IiB4PSIxNSIgeT0iNjMuOTc2NiIvPjx0ZXh0IGZpbGw9IiMwMDAwMDAiIGZvbnQtZmFtaWx5PSJzYW5zLXNlcmlmIiBmb250LXNpemU9IjE0IiBsZW5ndGhBZGp1c3Q9InNwYWNpbmciIHRleHQtZGVjb3JhdGlvbj0idW5kZXJsaW5lIiB0ZXh0TGVuZ3RoPSIzNjgiIHg9IjI3IiB5PSI3MS4yMTg4Ij4mIzE3MTtyZWFkb25seSYjMTg3OyBNc2dPcmRlclVwZGF0ZWQgOiBzdHJpbmcgPSAib3JkZXJVcGRhdGVkIjwvdGV4dD48cmVjdCBmaWxsPSJub25lIiBoZWlnaHQ9IjYiIHN0eWxlPSJzdHJva2U6I0M4MjkzMDtzdHJva2Utd2lkdGg6MS4wOyIgd2lkdGg9IjYiIHg9IjE1IiB5PSI3OC45NjA5Ii8+PHRleHQgZmlsbD0iIzAwMDAwMCIgZm9udC1mYW1pbHk9InNhbnMtc2VyaWYiIGZvbnQtc2l6ZT0iMTQiIGxlbmd0aEFkanVzdD0ic3BhY2luZyIgdGV4dC1kZWNvcmF0aW9uPSJ1bmRlcmxpbmUiIHRleHRMZW5ndGg9IjM2OCIgeD0iMjciIHk9Ijg2LjIwMzEiPiYjMTcxO3JlYWRvbmx5JiMxODc7IE1zZ09yZGVyRGVsZXRlZCA6IHN0cmluZyA9ICJvcmRlckRlbGV0ZWQiPC90ZXh0PjxsaW5lIHN0eWxlPSJzdHJva2U6IzE4MTgxODtzdHJva2Utd2lkdGg6MC41OyIgeDE9IjgiIHgyPSI0MDAiIHkxPSI5MS45NTMxIiB5Mj0iOTEuOTUzMSIvPjxlbGxpcHNlIGN4PSIxOCIgY3k9IjEwNC45NDUzIiBmaWxsPSIjODRCRTg0IiByeD0iMyIgcnk9IjMiIHN0eWxlPSJzdHJva2U6IzAzODA0ODtzdHJva2Utd2lkdGg6MS4wOyIvPjx0ZXh0IGZpbGw9IiMwMDAwMDAiIGZvbnQtZmFtaWx5PSJzYW5zLXNlcmlmIiBmb250LXNpemU9IjE0IiBsZW5ndGhBZGp1c3Q9InNwYWNpbmciIHRleHRMZW5ndGg9IjI5OCIgeD0iMjciIHk9IjEwOS4xODc1Ij4mIzE3MTthc3luYyYjMTg3OyBBZGRPcmRlcihvcmRlckR0bzpPcmRlckR0bykgOiBUYXNrPC90ZXh0PjxlbGxpcHNlIGN4PSIxOCIgY3k9IjExOS45Mjk3IiBmaWxsPSIjODRCRTg0IiByeD0iMyIgcnk9IjMiIHN0eWxlPSJzdHJva2U6IzAzODA0ODtzdHJva2Utd2lkdGg6MS4wOyIvPjx0ZXh0IGZpbGw9IiMwMDAwMDAiIGZvbnQtZmFtaWx5PSJzYW5zLXNlcmlmIiBmb250LXNpemU9IjE0IiBsZW5ndGhBZGp1c3Q9InNwYWNpbmciIHRleHRMZW5ndGg9IjMxOSIgeD0iMjciIHk9IjEyNC4xNzE5Ij4mIzE3MTthc3luYyYjMTg3OyBVcGRhdGVPcmRlcihvcmRlckR0bzpPcmRlckR0bykgOiBUYXNrPC90ZXh0PjxlbGxpcHNlIGN4PSIxOCIgY3k9IjEzNC45MTQxIiBmaWxsPSIjODRCRTg0IiByeD0iMyIgcnk9IjMiIHN0eWxlPSJzdHJva2U6IzAzODA0ODtzdHJva2Utd2lkdGg6MS4wOyIvPjx0ZXh0IGZpbGw9IiMwMDAwMDAiIGZvbnQtZmFtaWx5PSJzYW5zLXNlcmlmIiBmb250LXNpemU9IjE0IiBsZW5ndGhBZGp1c3Q9InNwYWNpbmciIHRleHRMZW5ndGg9IjI3NyIgeD0iMjciIHk9IjEzOS4xNTYzIj4mIzE3MTthc3luYyYjMTg3OyBEZWxldGVPcmRlcihvcmRlcklkOmludCkgOiBUYXNrPC90ZXh0PjwvZz48IS0tU1JDPVtJeXY5QjJ2TTI0dWtJYXREeW9YREtnWmNLVzAyTk9OZ3VmQjRhaXBhTVdLUmN3QktuOUp5bDluQUVwaTV0LTlxX3dBS3IyQjdiOUpLNTBLaFhVQUllaW95VDBMUjFRTHlrQjBJS0lRNDVnR2FiYzBwMG9mMWQyYWtnSmNmTTRzMUlhMUNxR1BnSllva3A0aTZ3V0d3NFFuSjB3QWk5RF9BN3loRzE5ZUlhYllTWlE0NXVZOUlUSzVTV0FKQkN5S2dDd3k0aGh1TTAwMDBdLS0+PC9nPjwvc3ZnPg==;" vertex="1" parent="1">
            <mxGeometry x="-800" y="942" width="415" height="158" as="geometry" />
          </mxCell>
        </UserObject>
        <UserObject label="" plantUmlData="{&#xa;  &quot;data&quot;: &quot;@startuml\nclass OrderDeletedCommand {\n    + Id : int &lt;&lt;get&gt;&gt;\n}\n@enduml\n&quot;,&#xa;  &quot;format&quot;: &quot;svg&quot;&#xa;}" id="inqcZ7f0K8DUZhspQT13-31">
          <mxCell style="shape=image;noLabel=1;verticalAlign=top;aspect=fixed;imageAspect=0;image=data:image/svg+xml,PD94bWwgdmVyc2lvbj0iMS4wIiBlbmNvZGluZz0idXMtYXNjaWkiIHN0YW5kYWxvbmU9Im5vIj8+PHN2ZyB4bWxucz0iaHR0cDovL3d3dy53My5vcmcvMjAwMC9zdmciIHhtbG5zOnhsaW5rPSJodHRwOi8vd3d3LnczLm9yZy8xOTk5L3hsaW5rIiBjb250ZW50U3R5bGVUeXBlPSJ0ZXh0L2NzcyIgaGVpZ2h0PSI4M3B4IiBwcmVzZXJ2ZUFzcGVjdFJhdGlvPSJub25lIiBzdHlsZT0id2lkdGg6MTg4cHg7aGVpZ2h0OjgzcHg7YmFja2dyb3VuZDojRkZGRkZGOyIgdmVyc2lvbj0iMS4xIiB2aWV3Qm94PSIwIDAgMTg4IDgzIiB3aWR0aD0iMTg4cHgiIHpvb21BbmRQYW49Im1hZ25pZnkiPjxkZWZzLz48Zz48IS0tY2xhc3MgT3JkZXJEZWxldGVkQ29tbWFuZC0tPjxnIGlkPSJlbGVtX09yZGVyRGVsZXRlZENvbW1hbmQiPjxyZWN0IGNvZGVMaW5lPSIxIiBmaWxsPSIjRjFGMUYxIiBoZWlnaHQ9IjYyLjk4NDQiIGlkPSJPcmRlckRlbGV0ZWRDb21tYW5kIiByeD0iMi41IiByeT0iMi41IiBzdHlsZT0ic3Ryb2tlOiMxODE4MTg7c3Ryb2tlLXdpZHRoOjAuNTsiIHdpZHRoPSIxNjciIHg9IjciIHk9IjciLz48ZWxsaXBzZSBjeD0iMjIiIGN5PSIyMyIgZmlsbD0iI0FERDFCMiIgcng9IjExIiByeT0iMTEiIHN0eWxlPSJzdHJva2U6IzE4MTgxODtzdHJva2Utd2lkdGg6MS4wOyIvPjxwYXRoIGQ9Ik0xOS42MjUsMjcuMjUgTDE5LjYyNSwyOSBMMjQuNTYyNSwyOSBMMjQuNTYyNSwyNy4yNSBMMTkuNjI1LDI3LjI1IFogTTIwLjMxMjUsMjcuOTM3NSBRMjAuMzEyNSwyNy45Mzc1IDIwLjMxMjUsMTguNzUgTDE4LjU2MjUsMTguNzUgUTE4LjU2MjUsMTguNzUgMTguNTYyNSwyNy45Mzc1IEwyMC4zMTI1LDI3LjkzNzUgWiBNMjMuODc1LDI3LjkzNzUgTDI1LjYyNSwyNy45Mzc1IFEyNS42MjUsMjcuOTM3NSAyNS42MjUsMjUuMTI1IEwyMy44NzUsMjUuMTI1IFEyMy44NzUsMjUuMTI1IDIzLjg3NSwyNy45Mzc1IFogTTIzLjg3NSwxOC43NSBRMjMuODc1LDE4Ljc1IDIzLjg3NSwyMS41NjI1IEwyNS42MjUsMjEuNTYyNSBRMjUuNjI1LDIxLjU2MjUgMjUuNjI1LDE4Ljc1IEwyMy44NzUsMTguNzUgWiBNMTkuNjI1LDE5LjQzNzUgTDI0LjU2MjUsMTkuNDM3NSBMMjQuNTYyNSwxNy42ODc1IEwxOS42MjUsMTcuNjg3NSBMMTkuNjI1LDE5LjQzNzUgWiAiIGZpbGw9IiMwMDAwMDAiLz48dGV4dCBmaWxsPSIjMDAwMDAwIiBmb250LWZhbWlseT0ic2Fucy1zZXJpZiIgZm9udC1zaXplPSIxNCIgbGVuZ3RoQWRqdXN0PSJzcGFjaW5nIiB0ZXh0TGVuZ3RoPSIxMzUiIHg9IjM2IiB5PSIyOC43NDIyIj5PcmRlckRlbGV0ZWRDb21tYW5kPC90ZXh0PjxsaW5lIHN0eWxlPSJzdHJva2U6IzE4MTgxODtzdHJva2Utd2lkdGg6MC41OyIgeDE9IjgiIHgyPSIxNzMiIHkxPSIzOSIgeTI9IjM5Ii8+PGVsbGlwc2UgY3g9IjE4IiBjeT0iNTEuOTkyMiIgZmlsbD0ibm9uZSIgcng9IjMiIHJ5PSIzIiBzdHlsZT0ic3Ryb2tlOiMwMzgwNDg7c3Ryb2tlLXdpZHRoOjEuMDsiLz48dGV4dCBmaWxsPSIjMDAwMDAwIiBmb250LWZhbWlseT0ic2Fucy1zZXJpZiIgZm9udC1zaXplPSIxNCIgbGVuZ3RoQWRqdXN0PSJzcGFjaW5nIiB0ZXh0TGVuZ3RoPSIxMDAiIHg9IjI3IiB5PSI1Ni4yMzQ0Ij5JZCA6IGludCAmIzE3MTtnZXQmIzE4Nzs8L3RleHQ+PGxpbmUgc3R5bGU9InN0cm9rZTojMTgxODE4O3N0cm9rZS13aWR0aDowLjU7IiB4MT0iOCIgeDI9IjE3MyIgeTE9IjYxLjk4NDQiIHkyPSI2MS45ODQ0Ii8+PC9nPjwhLS1TUkM9W0l5djlCMnZNeTJ6QUlJcm9JU3I5QktiRFNTeEZwS3RDSXI2ZXZiODAwY3E1cG5HNUF1TkNsMTg1NnZscXIxOHhFd3ZRMDAwMF0tLT48L2c+PC9zdmc+;" vertex="1" parent="1">
            <mxGeometry x="936" y="2410" width="188" height="83" as="geometry" />
          </mxCell>
        </UserObject>
        <UserObject label="" plantUmlData="{&#xa;  &quot;data&quot;: &quot;@startuml\nclass OrderDeletedCommandHandler {\n    + &lt;&lt;async&gt;&gt; Handle(request:OrderDeletedCommand, cancellationToken:CancellationToken) : Task\n}\n@enduml\n&quot;,&#xa;  &quot;format&quot;: &quot;svg&quot;&#xa;}" id="inqcZ7f0K8DUZhspQT13-32">
          <mxCell style="shape=image;noLabel=1;verticalAlign=top;aspect=fixed;imageAspect=0;image=data:image/svg+xml,PD94bWwgdmVyc2lvbj0iMS4wIiBlbmNvZGluZz0idXMtYXNjaWkiIHN0YW5kYWxvbmU9Im5vIj8+PHN2ZyB4bWxucz0iaHR0cDovL3d3dy53My5vcmcvMjAwMC9zdmciIHhtbG5zOnhsaW5rPSJodHRwOi8vd3d3LnczLm9yZy8xOTk5L3hsaW5rIiBjb250ZW50U3R5bGVUeXBlPSJ0ZXh0L2NzcyIgaGVpZ2h0PSI4M3B4IiBwcmVzZXJ2ZUFzcGVjdFJhdGlvPSJub25lIiBzdHlsZT0id2lkdGg6NjYycHg7aGVpZ2h0OjgzcHg7YmFja2dyb3VuZDojRkZGRkZGOyIgdmVyc2lvbj0iMS4xIiB2aWV3Qm94PSIwIDAgNjYyIDgzIiB3aWR0aD0iNjYycHgiIHpvb21BbmRQYW49Im1hZ25pZnkiPjxkZWZzLz48Zz48IS0tY2xhc3MgT3JkZXJEZWxldGVkQ29tbWFuZEhhbmRsZXItLT48ZyBpZD0iZWxlbV9PcmRlckRlbGV0ZWRDb21tYW5kSGFuZGxlciI+PHJlY3QgY29kZUxpbmU9IjEiIGZpbGw9IiNGMUYxRjEiIGhlaWdodD0iNjIuOTg0NCIgaWQ9Ik9yZGVyRGVsZXRlZENvbW1hbmRIYW5kbGVyIiByeD0iMi41IiByeT0iMi41IiBzdHlsZT0ic3Ryb2tlOiMxODE4MTg7c3Ryb2tlLXdpZHRoOjAuNTsiIHdpZHRoPSI2NDEiIHg9IjciIHk9IjciLz48ZWxsaXBzZSBjeD0iMjMxLjI1IiBjeT0iMjMiIGZpbGw9IiNBREQxQjIiIHJ4PSIxMSIgcnk9IjExIiBzdHlsZT0ic3Ryb2tlOiMxODE4MTg7c3Ryb2tlLXdpZHRoOjEuMDsiLz48cGF0aCBkPSJNMjI4Ljg3NSwyNy4yNSBMMjI4Ljg3NSwyOSBMMjMzLjgxMjUsMjkgTDIzMy44MTI1LDI3LjI1IEwyMjguODc1LDI3LjI1IFogTTIyOS41NjI1LDI3LjkzNzUgUTIyOS41NjI1LDI3LjkzNzUgMjI5LjU2MjUsMTguNzUgTDIyNy44MTI1LDE4Ljc1IFEyMjcuODEyNSwxOC43NSAyMjcuODEyNSwyNy45Mzc1IEwyMjkuNTYyNSwyNy45Mzc1IFogTTIzMy4xMjUsMjcuOTM3NSBMMjM0Ljg3NSwyNy45Mzc1IFEyMzQuODc1LDI3LjkzNzUgMjM0Ljg3NSwyNS4xMjUgTDIzMy4xMjUsMjUuMTI1IFEyMzMuMTI1LDI1LjEyNSAyMzMuMTI1LDI3LjkzNzUgWiBNMjMzLjEyNSwxOC43NSBRMjMzLjEyNSwxOC43NSAyMzMuMTI1LDIxLjU2MjUgTDIzNC44NzUsMjEuNTYyNSBRMjM0Ljg3NSwyMS41NjI1IDIzNC44NzUsMTguNzUgTDIzMy4xMjUsMTguNzUgWiBNMjI4Ljg3NSwxOS40Mzc1IEwyMzMuODEyNSwxOS40Mzc1IEwyMzMuODEyNSwxNy42ODc1IEwyMjguODc1LDE3LjY4NzUgTDIyOC44NzUsMTkuNDM3NSBaICIgZmlsbD0iIzAwMDAwMCIvPjx0ZXh0IGZpbGw9IiMwMDAwMDAiIGZvbnQtZmFtaWx5PSJzYW5zLXNlcmlmIiBmb250LXNpemU9IjE0IiBsZW5ndGhBZGp1c3Q9InNwYWNpbmciIHRleHRMZW5ndGg9IjE4NCIgeD0iMjUxLjc1IiB5PSIyOC43NDIyIj5PcmRlckRlbGV0ZWRDb21tYW5kSGFuZGxlcjwvdGV4dD48bGluZSBzdHlsZT0ic3Ryb2tlOiMxODE4MTg7c3Ryb2tlLXdpZHRoOjAuNTsiIHgxPSI4IiB4Mj0iNjQ3IiB5MT0iMzkiIHkyPSIzOSIvPjxsaW5lIHN0eWxlPSJzdHJva2U6IzE4MTgxODtzdHJva2Utd2lkdGg6MC41OyIgeDE9IjgiIHgyPSI2NDciIHkxPSI0NyIgeTI9IjQ3Ii8+PGVsbGlwc2UgY3g9IjE4IiBjeT0iNTkuOTkyMiIgZmlsbD0iIzg0QkU4NCIgcng9IjMiIHJ5PSIzIiBzdHlsZT0ic3Ryb2tlOiMwMzgwNDg7c3Ryb2tlLXdpZHRoOjEuMDsiLz48dGV4dCBmaWxsPSIjMDAwMDAwIiBmb250LWZhbWlseT0ic2Fucy1zZXJpZiIgZm9udC1zaXplPSIxNCIgbGVuZ3RoQWRqdXN0PSJzcGFjaW5nIiB0ZXh0TGVuZ3RoPSI2MTUiIHg9IjI3IiB5PSI2NC4yMzQ0Ij4mIzE3MTthc3luYyYjMTg3OyBIYW5kbGUocmVxdWVzdDpPcmRlckRlbGV0ZWRDb21tYW5kLCBjYW5jZWxsYXRpb25Ub2tlbjpDYW5jZWxsYXRpb25Ub2tlbikgOiBUYXNrPC90ZXh0PjwvZz48IS0tU1JDPVtJeXY5QjJ2TXkyekFJSXJvSVNyOUJLYkRTU3hGcEt0Q0lfNDB1ZnBLOGVMZ0JXS1dxNVFtaUthaWhpbkJqaERKV0NYZTVBS01iZ09NYnJYWHFRa1phOW9PYnZvUWF2RE9hZmNWNXZBVmRQZmR2T21rZWdiV2ZIMklNOXBETEdpMF0tLT48L2c+PC9zdmc+;" vertex="1" parent="1">
            <mxGeometry x="1206" y="2410" width="662" height="83" as="geometry" />
          </mxCell>
        </UserObject>
        <UserObject label="" plantUmlData="{&#xa;  &quot;data&quot;: &quot;@startuml\nclass OrderUpdatedCommand {\n    + OrderDto : OrderDto &lt;&lt;get&gt;&gt; &lt;&lt;set&gt;&gt;\n}\n@enduml\n&quot;,&#xa;  &quot;format&quot;: &quot;svg&quot;&#xa;}" id="inqcZ7f0K8DUZhspQT13-33">
          <mxCell style="shape=image;noLabel=1;verticalAlign=top;aspect=fixed;imageAspect=0;image=data:image/svg+xml,PD94bWwgdmVyc2lvbj0iMS4wIiBlbmNvZGluZz0idXMtYXNjaWkiIHN0YW5kYWxvbmU9Im5vIj8+PHN2ZyB4bWxucz0iaHR0cDovL3d3dy53My5vcmcvMjAwMC9zdmciIHhtbG5zOnhsaW5rPSJodHRwOi8vd3d3LnczLm9yZy8xOTk5L3hsaW5rIiBjb250ZW50U3R5bGVUeXBlPSJ0ZXh0L2NzcyIgaGVpZ2h0PSI4M3B4IiBwcmVzZXJ2ZUFzcGVjdFJhdGlvPSJub25lIiBzdHlsZT0id2lkdGg6MjY4cHg7aGVpZ2h0OjgzcHg7YmFja2dyb3VuZDojRkZGRkZGOyIgdmVyc2lvbj0iMS4xIiB2aWV3Qm94PSIwIDAgMjY4IDgzIiB3aWR0aD0iMjY4cHgiIHpvb21BbmRQYW49Im1hZ25pZnkiPjxkZWZzLz48Zz48IS0tY2xhc3MgT3JkZXJVcGRhdGVkQ29tbWFuZC0tPjxnIGlkPSJlbGVtX09yZGVyVXBkYXRlZENvbW1hbmQiPjxyZWN0IGNvZGVMaW5lPSIxIiBmaWxsPSIjRjFGMUYxIiBoZWlnaHQ9IjYyLjk4NDQiIGlkPSJPcmRlclVwZGF0ZWRDb21tYW5kIiByeD0iMi41IiByeT0iMi41IiBzdHlsZT0ic3Ryb2tlOiMxODE4MTg7c3Ryb2tlLXdpZHRoOjAuNTsiIHdpZHRoPSIyNDciIHg9IjciIHk9IjciLz48ZWxsaXBzZSBjeD0iNTguNzUiIGN5PSIyMyIgZmlsbD0iI0FERDFCMiIgcng9IjExIiByeT0iMTEiIHN0eWxlPSJzdHJva2U6IzE4MTgxODtzdHJva2Utd2lkdGg6MS4wOyIvPjxwYXRoIGQ9Ik01Ni4zNzUsMjcuMjUgTDU2LjM3NSwyOSBMNjEuMzEyNSwyOSBMNjEuMzEyNSwyNy4yNSBMNTYuMzc1LDI3LjI1IFogTTU3LjA2MjUsMjcuOTM3NSBRNTcuMDYyNSwyNy45Mzc1IDU3LjA2MjUsMTguNzUgTDU1LjMxMjUsMTguNzUgUTU1LjMxMjUsMTguNzUgNTUuMzEyNSwyNy45Mzc1IEw1Ny4wNjI1LDI3LjkzNzUgWiBNNjAuNjI1LDI3LjkzNzUgTDYyLjM3NSwyNy45Mzc1IFE2Mi4zNzUsMjcuOTM3NSA2Mi4zNzUsMjUuMTI1IEw2MC42MjUsMjUuMTI1IFE2MC42MjUsMjUuMTI1IDYwLjYyNSwyNy45Mzc1IFogTTYwLjYyNSwxOC43NSBRNjAuNjI1LDE4Ljc1IDYwLjYyNSwyMS41NjI1IEw2Mi4zNzUsMjEuNTYyNSBRNjIuMzc1LDIxLjU2MjUgNjIuMzc1LDE4Ljc1IEw2MC42MjUsMTguNzUgWiBNNTYuMzc1LDE5LjQzNzUgTDYxLjMxMjUsMTkuNDM3NSBMNjEuMzEyNSwxNy42ODc1IEw1Ni4zNzUsMTcuNjg3NSBMNTYuMzc1LDE5LjQzNzUgWiAiIGZpbGw9IiMwMDAwMDAiLz48dGV4dCBmaWxsPSIjMDAwMDAwIiBmb250LWZhbWlseT0ic2Fucy1zZXJpZiIgZm9udC1zaXplPSIxNCIgbGVuZ3RoQWRqdXN0PSJzcGFjaW5nIiB0ZXh0TGVuZ3RoPSIxMzUiIHg9Ijc5LjI1IiB5PSIyOC43NDIyIj5PcmRlclVwZGF0ZWRDb21tYW5kPC90ZXh0PjxsaW5lIHN0eWxlPSJzdHJva2U6IzE4MTgxODtzdHJva2Utd2lkdGg6MC41OyIgeDE9IjgiIHgyPSIyNTMiIHkxPSIzOSIgeTI9IjM5Ii8+PGVsbGlwc2UgY3g9IjE4IiBjeT0iNTEuOTkyMiIgZmlsbD0ibm9uZSIgcng9IjMiIHJ5PSIzIiBzdHlsZT0ic3Ryb2tlOiMwMzgwNDg7c3Ryb2tlLXdpZHRoOjEuMDsiLz48dGV4dCBmaWxsPSIjMDAwMDAwIiBmb250LWZhbWlseT0ic2Fucy1zZXJpZiIgZm9udC1zaXplPSIxNCIgbGVuZ3RoQWRqdXN0PSJzcGFjaW5nIiB0ZXh0TGVuZ3RoPSIyMjEiIHg9IjI3IiB5PSI1Ni4yMzQ0Ij5PcmRlckR0byA6IE9yZGVyRHRvICYjMTcxO2dldCYjMTg3OyAmIzE3MTtzZXQmIzE4Nzs8L3RleHQ+PGxpbmUgc3R5bGU9InN0cm9rZTojMTgxODE4O3N0cm9rZS13aWR0aDowLjU7IiB4MT0iOCIgeDI9IjI1MyIgeTE9IjYxLjk4NDQiIHkyPSI2MS45ODQ0Ii8+PC9nPjwhLS1TUkM9W0l5djlCMnZNeTJ6QUlJcUFCS1g5QjRiRFNTeEZwS3RDSXI2ZXZiODAwY3M4ZDRqOWxlOExXY2JaYXZ2UU9jUzdmOGoxRDVTajAwMDBdLS0+PC9nPjwvc3ZnPg==;" vertex="1" parent="1">
            <mxGeometry x="936" y="2680" width="268" height="83" as="geometry" />
          </mxCell>
        </UserObject>
        <UserObject label="" plantUmlData="{&#xa;  &quot;data&quot;: &quot;@startuml\nclass OrderUpdatedCommandHandler {\n    + &lt;&lt;async&gt;&gt; Handle(request:OrderUpdatedCommand, cancellationToken:CancellationToken) : Task\n}\n@enduml\n&quot;,&#xa;  &quot;format&quot;: &quot;svg&quot;&#xa;}" id="inqcZ7f0K8DUZhspQT13-34">
          <mxCell style="shape=image;noLabel=1;verticalAlign=top;aspect=fixed;imageAspect=0;image=data:image/svg+xml,PD94bWwgdmVyc2lvbj0iMS4wIiBlbmNvZGluZz0idXMtYXNjaWkiIHN0YW5kYWxvbmU9Im5vIj8+PHN2ZyB4bWxucz0iaHR0cDovL3d3dy53My5vcmcvMjAwMC9zdmciIHhtbG5zOnhsaW5rPSJodHRwOi8vd3d3LnczLm9yZy8xOTk5L3hsaW5rIiBjb250ZW50U3R5bGVUeXBlPSJ0ZXh0L2NzcyIgaGVpZ2h0PSI4M3B4IiBwcmVzZXJ2ZUFzcGVjdFJhdGlvPSJub25lIiBzdHlsZT0id2lkdGg6NjYycHg7aGVpZ2h0OjgzcHg7YmFja2dyb3VuZDojRkZGRkZGOyIgdmVyc2lvbj0iMS4xIiB2aWV3Qm94PSIwIDAgNjYyIDgzIiB3aWR0aD0iNjYycHgiIHpvb21BbmRQYW49Im1hZ25pZnkiPjxkZWZzLz48Zz48IS0tY2xhc3MgT3JkZXJVcGRhdGVkQ29tbWFuZEhhbmRsZXItLT48ZyBpZD0iZWxlbV9PcmRlclVwZGF0ZWRDb21tYW5kSGFuZGxlciI+PHJlY3QgY29kZUxpbmU9IjEiIGZpbGw9IiNGMUYxRjEiIGhlaWdodD0iNjIuOTg0NCIgaWQ9Ik9yZGVyVXBkYXRlZENvbW1hbmRIYW5kbGVyIiByeD0iMi41IiByeT0iMi41IiBzdHlsZT0ic3Ryb2tlOiMxODE4MTg7c3Ryb2tlLXdpZHRoOjAuNTsiIHdpZHRoPSI2NDEiIHg9IjciIHk9IjciLz48ZWxsaXBzZSBjeD0iMjMxLjI1IiBjeT0iMjMiIGZpbGw9IiNBREQxQjIiIHJ4PSIxMSIgcnk9IjExIiBzdHlsZT0ic3Ryb2tlOiMxODE4MTg7c3Ryb2tlLXdpZHRoOjEuMDsiLz48cGF0aCBkPSJNMjI4Ljg3NSwyNy4yNSBMMjI4Ljg3NSwyOSBMMjMzLjgxMjUsMjkgTDIzMy44MTI1LDI3LjI1IEwyMjguODc1LDI3LjI1IFogTTIyOS41NjI1LDI3LjkzNzUgUTIyOS41NjI1LDI3LjkzNzUgMjI5LjU2MjUsMTguNzUgTDIyNy44MTI1LDE4Ljc1IFEyMjcuODEyNSwxOC43NSAyMjcuODEyNSwyNy45Mzc1IEwyMjkuNTYyNSwyNy45Mzc1IFogTTIzMy4xMjUsMjcuOTM3NSBMMjM0Ljg3NSwyNy45Mzc1IFEyMzQuODc1LDI3LjkzNzUgMjM0Ljg3NSwyNS4xMjUgTDIzMy4xMjUsMjUuMTI1IFEyMzMuMTI1LDI1LjEyNSAyMzMuMTI1LDI3LjkzNzUgWiBNMjMzLjEyNSwxOC43NSBRMjMzLjEyNSwxOC43NSAyMzMuMTI1LDIxLjU2MjUgTDIzNC44NzUsMjEuNTYyNSBRMjM0Ljg3NSwyMS41NjI1IDIzNC44NzUsMTguNzUgTDIzMy4xMjUsMTguNzUgWiBNMjI4Ljg3NSwxOS40Mzc1IEwyMzMuODEyNSwxOS40Mzc1IEwyMzMuODEyNSwxNy42ODc1IEwyMjguODc1LDE3LjY4NzUgTDIyOC44NzUsMTkuNDM3NSBaICIgZmlsbD0iIzAwMDAwMCIvPjx0ZXh0IGZpbGw9IiMwMDAwMDAiIGZvbnQtZmFtaWx5PSJzYW5zLXNlcmlmIiBmb250LXNpemU9IjE0IiBsZW5ndGhBZGp1c3Q9InNwYWNpbmciIHRleHRMZW5ndGg9IjE4NCIgeD0iMjUxLjc1IiB5PSIyOC43NDIyIj5PcmRlclVwZGF0ZWRDb21tYW5kSGFuZGxlcjwvdGV4dD48bGluZSBzdHlsZT0ic3Ryb2tlOiMxODE4MTg7c3Ryb2tlLXdpZHRoOjAuNTsiIHgxPSI4IiB4Mj0iNjQ3IiB5MT0iMzkiIHkyPSIzOSIvPjxsaW5lIHN0eWxlPSJzdHJva2U6IzE4MTgxODtzdHJva2Utd2lkdGg6MC41OyIgeDE9IjgiIHgyPSI2NDciIHkxPSI0NyIgeTI9IjQ3Ii8+PGVsbGlwc2UgY3g9IjE4IiBjeT0iNTkuOTkyMiIgZmlsbD0iIzg0QkU4NCIgcng9IjMiIHJ5PSIzIiBzdHlsZT0ic3Ryb2tlOiMwMzgwNDg7c3Ryb2tlLXdpZHRoOjEuMDsiLz48dGV4dCBmaWxsPSIjMDAwMDAwIiBmb250LWZhbWlseT0ic2Fucy1zZXJpZiIgZm9udC1zaXplPSIxNCIgbGVuZ3RoQWRqdXN0PSJzcGFjaW5nIiB0ZXh0TGVuZ3RoPSI2MTUiIHg9IjI3IiB5PSI2NC4yMzQ0Ij4mIzE3MTthc3luYyYjMTg3OyBIYW5kbGUocmVxdWVzdDpPcmRlclVwZGF0ZWRDb21tYW5kLCBjYW5jZWxsYXRpb25Ub2tlbjpDYW5jZWxsYXRpb25Ub2tlbikgOiBUYXNrPC90ZXh0PjwvZz48IS0tU1JDPVtJeXY5QjJ2TXkyekFJSXFBQktYOUI0YkRTU3hGcEt0Q0lfNDB1ZnBLOGVMZ0JXS1dxNVFtaUthaWhpbkJqaERKV0NYZTVBS01iZ09NYnJYWHFRa1phOW9PYnZvUWF2RE9hZmNWNXZBVmRQZmR2T21rZWdiV2ZIMklNOXBETEdpMF0tLT48L2c+PC9zdmc+;" vertex="1" parent="1">
            <mxGeometry x="1296" y="2680" width="662" height="83" as="geometry" />
          </mxCell>
        </UserObject>
        <UserObject label="" plantUmlData="{&#xa;  &quot;data&quot;: &quot;@startuml\nclass PairScreenCommand {\n    + PairScreenDto : PairScreenDto &lt;&lt;get&gt;&gt; &lt;&lt;set&gt;&gt;\n}\n@enduml\n&quot;,&#xa;  &quot;format&quot;: &quot;svg&quot;&#xa;}" id="inqcZ7f0K8DUZhspQT13-35">
          <mxCell style="shape=image;noLabel=1;verticalAlign=top;aspect=fixed;imageAspect=0;image=data:image/svg+xml,PD94bWwgdmVyc2lvbj0iMS4wIiBlbmNvZGluZz0idXMtYXNjaWkiIHN0YW5kYWxvbmU9Im5vIj8+PHN2ZyB4bWxucz0iaHR0cDovL3d3dy53My5vcmcvMjAwMC9zdmciIHhtbG5zOnhsaW5rPSJodHRwOi8vd3d3LnczLm9yZy8xOTk5L3hsaW5rIiBjb250ZW50U3R5bGVUeXBlPSJ0ZXh0L2NzcyIgaGVpZ2h0PSI4M3B4IiBwcmVzZXJ2ZUFzcGVjdFJhdGlvPSJub25lIiBzdHlsZT0id2lkdGg6MzM4cHg7aGVpZ2h0OjgzcHg7YmFja2dyb3VuZDojRkZGRkZGOyIgdmVyc2lvbj0iMS4xIiB2aWV3Qm94PSIwIDAgMzM4IDgzIiB3aWR0aD0iMzM4cHgiIHpvb21BbmRQYW49Im1hZ25pZnkiPjxkZWZzLz48Zz48IS0tY2xhc3MgUGFpclNjcmVlbkNvbW1hbmQtLT48ZyBpZD0iZWxlbV9QYWlyU2NyZWVuQ29tbWFuZCI+PHJlY3QgY29kZUxpbmU9IjEiIGZpbGw9IiNGMUYxRjEiIGhlaWdodD0iNjIuOTg0NCIgaWQ9IlBhaXJTY3JlZW5Db21tYW5kIiByeD0iMi41IiByeT0iMi41IiBzdHlsZT0ic3Ryb2tlOiMxODE4MTg7c3Ryb2tlLXdpZHRoOjAuNTsiIHdpZHRoPSIzMTciIHg9IjciIHk9IjciLz48ZWxsaXBzZSBjeD0iMTAwLjc1IiBjeT0iMjMiIGZpbGw9IiNBREQxQjIiIHJ4PSIxMSIgcnk9IjExIiBzdHlsZT0ic3Ryb2tlOiMxODE4MTg7c3Ryb2tlLXdpZHRoOjEuMDsiLz48cGF0aCBkPSJNOTguMzc1LDI3LjI1IEw5OC4zNzUsMjkgTDEwMy4zMTI1LDI5IEwxMDMuMzEyNSwyNy4yNSBMOTguMzc1LDI3LjI1IFogTTk5LjA2MjUsMjcuOTM3NSBROTkuMDYyNSwyNy45Mzc1IDk5LjA2MjUsMTguNzUgTDk3LjMxMjUsMTguNzUgUTk3LjMxMjUsMTguNzUgOTcuMzEyNSwyNy45Mzc1IEw5OS4wNjI1LDI3LjkzNzUgWiBNMTAyLjYyNSwyNy45Mzc1IEwxMDQuMzc1LDI3LjkzNzUgUTEwNC4zNzUsMjcuOTM3NSAxMDQuMzc1LDI1LjEyNSBMMTAyLjYyNSwyNS4xMjUgUTEwMi42MjUsMjUuMTI1IDEwMi42MjUsMjcuOTM3NSBaIE0xMDIuNjI1LDE4Ljc1IFExMDIuNjI1LDE4Ljc1IDEwMi42MjUsMjEuNTYyNSBMMTA0LjM3NSwyMS41NjI1IFExMDQuMzc1LDIxLjU2MjUgMTA0LjM3NSwxOC43NSBMMTAyLjYyNSwxOC43NSBaIE05OC4zNzUsMTkuNDM3NSBMMTAzLjMxMjUsMTkuNDM3NSBMMTAzLjMxMjUsMTcuNjg3NSBMOTguMzc1LDE3LjY4NzUgTDk4LjM3NSwxOS40Mzc1IFogIiBmaWxsPSIjMDAwMDAwIi8+PHRleHQgZmlsbD0iIzAwMDAwMCIgZm9udC1mYW1pbHk9InNhbnMtc2VyaWYiIGZvbnQtc2l6ZT0iMTQiIGxlbmd0aEFkanVzdD0ic3BhY2luZyIgdGV4dExlbmd0aD0iMTIxIiB4PSIxMjEuMjUiIHk9IjI4Ljc0MjIiPlBhaXJTY3JlZW5Db21tYW5kPC90ZXh0PjxsaW5lIHN0eWxlPSJzdHJva2U6IzE4MTgxODtzdHJva2Utd2lkdGg6MC41OyIgeDE9IjgiIHgyPSIzMjMiIHkxPSIzOSIgeTI9IjM5Ii8+PGVsbGlwc2UgY3g9IjE4IiBjeT0iNTEuOTkyMiIgZmlsbD0ibm9uZSIgcng9IjMiIHJ5PSIzIiBzdHlsZT0ic3Ryb2tlOiMwMzgwNDg7c3Ryb2tlLXdpZHRoOjEuMDsiLz48dGV4dCBmaWxsPSIjMDAwMDAwIiBmb250LWZhbWlseT0ic2Fucy1zZXJpZiIgZm9udC1zaXplPSIxNCIgbGVuZ3RoQWRqdXN0PSJzcGFjaW5nIiB0ZXh0TGVuZ3RoPSIyOTEiIHg9IjI3IiB5PSI1Ni4yMzQ0Ij5QYWlyU2NyZWVuRHRvIDogUGFpclNjcmVlbkR0byAmIzE3MTtnZXQmIzE4NzsgJiMxNzE7c2V0JiMxODc7PC90ZXh0PjxsaW5lIHN0eWxlPSJzdHJva2U6IzE4MTgxODtzdHJva2Utd2lkdGg6MC41OyIgeDE9IjgiIHgyPSIzMjMiIHkxPSI2MS45ODQ0IiB5Mj0iNjEuOTg0NCIvPjwvZz48IS0tU1JDPVtJeXY5QjJ2TTI0WkNCMGZFQmFmRHBORkVweXJEcDRqSGdFUEkwMDlqOTFjTmFkbTVBcEktWktyd1FlY1Q3UDBrMWo1U2pHMDBdLS0+PC9nPjwvc3ZnPg==;" vertex="1" parent="1">
            <mxGeometry x="896" y="1170" width="338" height="83" as="geometry" />
          </mxCell>
        </UserObject>
        <UserObject label="" plantUmlData="{&#xa;  &quot;data&quot;: &quot;@startuml\nclass PairScreenCommandHandler {\n    + &lt;&lt;async&gt;&gt; Handle(request:PairScreenCommand, cancellationToken:CancellationToken) : Task&lt;ScreenDto&gt;\n}\n\n@enduml\n&quot;,&#xa;  &quot;format&quot;: &quot;svg&quot;&#xa;}" id="inqcZ7f0K8DUZhspQT13-36">
          <mxCell style="shape=image;noLabel=1;verticalAlign=top;aspect=fixed;imageAspect=0;image=data:image/svg+xml,PD94bWwgdmVyc2lvbj0iMS4wIiBlbmNvZGluZz0idXMtYXNjaWkiIHN0YW5kYWxvbmU9Im5vIj8+PHN2ZyB4bWxucz0iaHR0cDovL3d3dy53My5vcmcvMjAwMC9zdmciIHhtbG5zOnhsaW5rPSJodHRwOi8vd3d3LnczLm9yZy8xOTk5L3hsaW5rIiBjb250ZW50U3R5bGVUeXBlPSJ0ZXh0L2NzcyIgaGVpZ2h0PSI4M3B4IiBwcmVzZXJ2ZUFzcGVjdFJhdGlvPSJub25lIiBzdHlsZT0id2lkdGg6NzI1cHg7aGVpZ2h0OjgzcHg7YmFja2dyb3VuZDojRkZGRkZGOyIgdmVyc2lvbj0iMS4xIiB2aWV3Qm94PSIwIDAgNzI1IDgzIiB3aWR0aD0iNzI1cHgiIHpvb21BbmRQYW49Im1hZ25pZnkiPjxkZWZzLz48Zz48IS0tY2xhc3MgUGFpclNjcmVlbkNvbW1hbmRIYW5kbGVyLS0+PGcgaWQ9ImVsZW1fUGFpclNjcmVlbkNvbW1hbmRIYW5kbGVyIj48cmVjdCBjb2RlTGluZT0iMSIgZmlsbD0iI0YxRjFGMSIgaGVpZ2h0PSI2Mi45ODQ0IiBpZD0iUGFpclNjcmVlbkNvbW1hbmRIYW5kbGVyIiByeD0iMi41IiByeT0iMi41IiBzdHlsZT0ic3Ryb2tlOiMxODE4MTg7c3Ryb2tlLXdpZHRoOjAuNTsiIHdpZHRoPSI3MDQiIHg9IjciIHk9IjciLz48ZWxsaXBzZSBjeD0iMjY5Ljc1IiBjeT0iMjMiIGZpbGw9IiNBREQxQjIiIHJ4PSIxMSIgcnk9IjExIiBzdHlsZT0ic3Ryb2tlOiMxODE4MTg7c3Ryb2tlLXdpZHRoOjEuMDsiLz48cGF0aCBkPSJNMjY3LjM3NSwyNy4yNSBMMjY3LjM3NSwyOSBMMjcyLjMxMjUsMjkgTDI3Mi4zMTI1LDI3LjI1IEwyNjcuMzc1LDI3LjI1IFogTTI2OC4wNjI1LDI3LjkzNzUgUTI2OC4wNjI1LDI3LjkzNzUgMjY4LjA2MjUsMTguNzUgTDI2Ni4zMTI1LDE4Ljc1IFEyNjYuMzEyNSwxOC43NSAyNjYuMzEyNSwyNy45Mzc1IEwyNjguMDYyNSwyNy45Mzc1IFogTTI3MS42MjUsMjcuOTM3NSBMMjczLjM3NSwyNy45Mzc1IFEyNzMuMzc1LDI3LjkzNzUgMjczLjM3NSwyNS4xMjUgTDI3MS42MjUsMjUuMTI1IFEyNzEuNjI1LDI1LjEyNSAyNzEuNjI1LDI3LjkzNzUgWiBNMjcxLjYyNSwxOC43NSBRMjcxLjYyNSwxOC43NSAyNzEuNjI1LDIxLjU2MjUgTDI3My4zNzUsMjEuNTYyNSBRMjczLjM3NSwyMS41NjI1IDI3My4zNzUsMTguNzUgTDI3MS42MjUsMTguNzUgWiBNMjY3LjM3NSwxOS40Mzc1IEwyNzIuMzEyNSwxOS40Mzc1IEwyNzIuMzEyNSwxNy42ODc1IEwyNjcuMzc1LDE3LjY4NzUgTDI2Ny4zNzUsMTkuNDM3NSBaICIgZmlsbD0iIzAwMDAwMCIvPjx0ZXh0IGZpbGw9IiMwMDAwMDAiIGZvbnQtZmFtaWx5PSJzYW5zLXNlcmlmIiBmb250LXNpemU9IjE0IiBsZW5ndGhBZGp1c3Q9InNwYWNpbmciIHRleHRMZW5ndGg9IjE3MCIgeD0iMjkwLjI1IiB5PSIyOC43NDIyIj5QYWlyU2NyZWVuQ29tbWFuZEhhbmRsZXI8L3RleHQ+PGxpbmUgc3R5bGU9InN0cm9rZTojMTgxODE4O3N0cm9rZS13aWR0aDowLjU7IiB4MT0iOCIgeDI9IjcxMCIgeTE9IjM5IiB5Mj0iMzkiLz48bGluZSBzdHlsZT0ic3Ryb2tlOiMxODE4MTg7c3Ryb2tlLXdpZHRoOjAuNTsiIHgxPSI4IiB4Mj0iNzEwIiB5MT0iNDciIHkyPSI0NyIvPjxlbGxpcHNlIGN4PSIxOCIgY3k9IjU5Ljk5MjIiIGZpbGw9IiM4NEJFODQiIHJ4PSIzIiByeT0iMyIgc3R5bGU9InN0cm9rZTojMDM4MDQ4O3N0cm9rZS13aWR0aDoxLjA7Ii8+PHRleHQgZmlsbD0iIzAwMDAwMCIgZm9udC1mYW1pbHk9InNhbnMtc2VyaWYiIGZvbnQtc2l6ZT0iMTQiIGxlbmd0aEFkanVzdD0ic3BhY2luZyIgdGV4dExlbmd0aD0iNjc4IiB4PSIyNyIgeT0iNjQuMjM0NCI+JiMxNzE7YXN5bmMmIzE4NzsgSGFuZGxlKHJlcXVlc3Q6UGFpclNjcmVlbkNvbW1hbmQsIGNhbmNlbGxhdGlvblRva2VuOkNhbmNlbGxhdGlvblRva2VuKSA6IFRhc2smbHQ7U2NyZWVuRHRvJmd0OzwvdGV4dD48L2c+PCEtLVNSQz1bSXl2OUIydk0yNFpDQjBmRUJhZkRwTkZFcHlyRHA0bG4wRUFTcjJBNVFZdTU4RDFNaUI1OUJBeENJeFFwS3UzOFExSWI1ZlFjNWZUT09VWktLS1hFcDRqRXBTYjlCQ2RDcG1sOXBxeERpdDk2NXo1S2k1ODhJSXBFamU1ZVRJZDlqLUVnMUcwMF0tLT48L2c+PC9zdmc+;" vertex="1" parent="1">
            <mxGeometry x="1306" y="1160" width="725" height="83" as="geometry" />
          </mxCell>
        </UserObject>
        <UserObject label="" plantUmlData="{&#xa;  &quot;data&quot;: &quot;@startuml\nclass RemoveScreenCommand {\n    + Id : int &lt;&lt;get&gt;&gt; &lt;&lt;set&gt;&gt;\n}\n@enduml\n&quot;,&#xa;  &quot;format&quot;: &quot;svg&quot;&#xa;}" id="inqcZ7f0K8DUZhspQT13-37">
          <mxCell style="shape=image;noLabel=1;verticalAlign=top;aspect=fixed;imageAspect=0;image=data:image/svg+xml,PD94bWwgdmVyc2lvbj0iMS4wIiBlbmNvZGluZz0idXMtYXNjaWkiIHN0YW5kYWxvbmU9Im5vIj8+PHN2ZyB4bWxucz0iaHR0cDovL3d3dy53My5vcmcvMjAwMC9zdmciIHhtbG5zOnhsaW5rPSJodHRwOi8vd3d3LnczLm9yZy8xOTk5L3hsaW5rIiBjb250ZW50U3R5bGVUeXBlPSJ0ZXh0L2NzcyIgaGVpZ2h0PSI4M3B4IiBwcmVzZXJ2ZUFzcGVjdFJhdGlvPSJub25lIiBzdHlsZT0id2lkdGg6MTkxcHg7aGVpZ2h0OjgzcHg7YmFja2dyb3VuZDojRkZGRkZGOyIgdmVyc2lvbj0iMS4xIiB2aWV3Qm94PSIwIDAgMTkxIDgzIiB3aWR0aD0iMTkxcHgiIHpvb21BbmRQYW49Im1hZ25pZnkiPjxkZWZzLz48Zz48IS0tY2xhc3MgUmVtb3ZlU2NyZWVuQ29tbWFuZC0tPjxnIGlkPSJlbGVtX1JlbW92ZVNjcmVlbkNvbW1hbmQiPjxyZWN0IGNvZGVMaW5lPSIxIiBmaWxsPSIjRjFGMUYxIiBoZWlnaHQ9IjYyLjk4NDQiIGlkPSJSZW1vdmVTY3JlZW5Db21tYW5kIiByeD0iMi41IiByeT0iMi41IiBzdHlsZT0ic3Ryb2tlOiMxODE4MTg7c3Ryb2tlLXdpZHRoOjAuNTsiIHdpZHRoPSIxNzAiIHg9IjciIHk9IjciLz48ZWxsaXBzZSBjeD0iMjIuOSIgY3k9IjIzIiBmaWxsPSIjQUREMUIyIiByeD0iMTEiIHJ5PSIxMSIgc3R5bGU9InN0cm9rZTojMTgxODE4O3N0cm9rZS13aWR0aDoxLjA7Ii8+PHBhdGggZD0iTTIwLjUyNSwyNy4yNSBMMjAuNTI1LDI5IEwyNS40NjI1LDI5IEwyNS40NjI1LDI3LjI1IEwyMC41MjUsMjcuMjUgWiBNMjEuMjEyNSwyNy45Mzc1IFEyMS4yMTI1LDI3LjkzNzUgMjEuMjEyNSwxOC43NSBMMTkuNDYyNSwxOC43NSBRMTkuNDYyNSwxOC43NSAxOS40NjI1LDI3LjkzNzUgTDIxLjIxMjUsMjcuOTM3NSBaIE0yNC43NzUsMjcuOTM3NSBMMjYuNTI1LDI3LjkzNzUgUTI2LjUyNSwyNy45Mzc1IDI2LjUyNSwyNS4xMjUgTDI0Ljc3NSwyNS4xMjUgUTI0Ljc3NSwyNS4xMjUgMjQuNzc1LDI3LjkzNzUgWiBNMjQuNzc1LDE4Ljc1IFEyNC43NzUsMTguNzUgMjQuNzc1LDIxLjU2MjUgTDI2LjUyNSwyMS41NjI1IFEyNi41MjUsMjEuNTYyNSAyNi41MjUsMTguNzUgTDI0Ljc3NSwxOC43NSBaIE0yMC41MjUsMTkuNDM3NSBMMjUuNDYyNSwxOS40Mzc1IEwyNS40NjI1LDE3LjY4NzUgTDIwLjUyNSwxNy42ODc1IEwyMC41MjUsMTkuNDM3NSBaICIgZmlsbD0iIzAwMDAwMCIvPjx0ZXh0IGZpbGw9IiMwMDAwMDAiIGZvbnQtZmFtaWx5PSJzYW5zLXNlcmlmIiBmb250LXNpemU9IjE0IiBsZW5ndGhBZGp1c3Q9InNwYWNpbmciIHRleHRMZW5ndGg9IjEzNiIgeD0iMzcuMSIgeT0iMjguNzQyMiI+UmVtb3ZlU2NyZWVuQ29tbWFuZDwvdGV4dD48bGluZSBzdHlsZT0ic3Ryb2tlOiMxODE4MTg7c3Ryb2tlLXdpZHRoOjAuNTsiIHgxPSI4IiB4Mj0iMTc2IiB5MT0iMzkiIHkyPSIzOSIvPjxlbGxpcHNlIGN4PSIxOCIgY3k9IjUxLjk5MjIiIGZpbGw9Im5vbmUiIHJ4PSIzIiByeT0iMyIgc3R5bGU9InN0cm9rZTojMDM4MDQ4O3N0cm9rZS13aWR0aDoxLjA7Ii8+PHRleHQgZmlsbD0iIzAwMDAwMCIgZm9udC1mYW1pbHk9InNhbnMtc2VyaWYiIGZvbnQtc2l6ZT0iMTQiIGxlbmd0aEFkanVzdD0ic3BhY2luZyIgdGV4dExlbmd0aD0iMTQ0IiB4PSIyNyIgeT0iNTYuMjM0NCI+SWQgOiBpbnQgJiMxNzE7Z2V0JiMxODc7ICYjMTcxO3NldCYjMTg3OzwvdGV4dD48bGluZSBzdHlsZT0ic3Ryb2tlOiMxODE4MTg7c3Ryb2tlLXdpZHRoOjAuNTsiIHgxPSI4IiB4Mj0iMTc2IiB5MT0iNjEuOTg0NCIgeTI9IjYxLjk4NDQiLz48L2c+PCEtLVNSQz1bSXl2OUIydk0yNGhEcEl6QjNLdWtJYXREU3l4RnBLdENJcjZldmI4MDBjcTVwbkc1QXVOQ2wxODU2dmxxcjE4eEVvMVQzQUF2UVc0MF0tLT48L2c+PC9zdmc+;" vertex="1" parent="1">
            <mxGeometry x="886" y="1350" width="191" height="83" as="geometry" />
          </mxCell>
        </UserObject>
        <UserObject label="" plantUmlData="{&#xa;  &quot;data&quot;: &quot;@startuml\nclass RemoveScreenCommandHandler {\n    + &lt;&lt;async&gt;&gt; Handle(request:RemoveScreenCommand, cancellationToken:CancellationToken) : Task\n}\n@enduml\n&quot;,&#xa;  &quot;format&quot;: &quot;svg&quot;&#xa;}" id="inqcZ7f0K8DUZhspQT13-38">
          <mxCell style="shape=image;noLabel=1;verticalAlign=top;aspect=fixed;imageAspect=0;image=data:image/svg+xml,PD94bWwgdmVyc2lvbj0iMS4wIiBlbmNvZGluZz0idXMtYXNjaWkiIHN0YW5kYWxvbmU9Im5vIj8+PHN2ZyB4bWxucz0iaHR0cDovL3d3dy53My5vcmcvMjAwMC9zdmciIHhtbG5zOnhsaW5rPSJodHRwOi8vd3d3LnczLm9yZy8xOTk5L3hsaW5rIiBjb250ZW50U3R5bGVUeXBlPSJ0ZXh0L2NzcyIgaGVpZ2h0PSI4M3B4IiBwcmVzZXJ2ZUFzcGVjdFJhdGlvPSJub25lIiBzdHlsZT0id2lkdGg6NjYzcHg7aGVpZ2h0OjgzcHg7YmFja2dyb3VuZDojRkZGRkZGOyIgdmVyc2lvbj0iMS4xIiB2aWV3Qm94PSIwIDAgNjYzIDgzIiB3aWR0aD0iNjYzcHgiIHpvb21BbmRQYW49Im1hZ25pZnkiPjxkZWZzLz48Zz48IS0tY2xhc3MgUmVtb3ZlU2NyZWVuQ29tbWFuZEhhbmRsZXItLT48ZyBpZD0iZWxlbV9SZW1vdmVTY3JlZW5Db21tYW5kSGFuZGxlciI+PHJlY3QgY29kZUxpbmU9IjEiIGZpbGw9IiNGMUYxRjEiIGhlaWdodD0iNjIuOTg0NCIgaWQ9IlJlbW92ZVNjcmVlbkNvbW1hbmRIYW5kbGVyIiByeD0iMi41IiByeT0iMi41IiBzdHlsZT0ic3Ryb2tlOiMxODE4MTg7c3Ryb2tlLXdpZHRoOjAuNTsiIHdpZHRoPSI2NDIiIHg9IjciIHk9IjciLz48ZWxsaXBzZSBjeD0iMjMxLjI1IiBjeT0iMjMiIGZpbGw9IiNBREQxQjIiIHJ4PSIxMSIgcnk9IjExIiBzdHlsZT0ic3Ryb2tlOiMxODE4MTg7c3Ryb2tlLXdpZHRoOjEuMDsiLz48cGF0aCBkPSJNMjI4Ljg3NSwyNy4yNSBMMjI4Ljg3NSwyOSBMMjMzLjgxMjUsMjkgTDIzMy44MTI1LDI3LjI1IEwyMjguODc1LDI3LjI1IFogTTIyOS41NjI1LDI3LjkzNzUgUTIyOS41NjI1LDI3LjkzNzUgMjI5LjU2MjUsMTguNzUgTDIyNy44MTI1LDE4Ljc1IFEyMjcuODEyNSwxOC43NSAyMjcuODEyNSwyNy45Mzc1IEwyMjkuNTYyNSwyNy45Mzc1IFogTTIzMy4xMjUsMjcuOTM3NSBMMjM0Ljg3NSwyNy45Mzc1IFEyMzQuODc1LDI3LjkzNzUgMjM0Ljg3NSwyNS4xMjUgTDIzMy4xMjUsMjUuMTI1IFEyMzMuMTI1LDI1LjEyNSAyMzMuMTI1LDI3LjkzNzUgWiBNMjMzLjEyNSwxOC43NSBRMjMzLjEyNSwxOC43NSAyMzMuMTI1LDIxLjU2MjUgTDIzNC44NzUsMjEuNTYyNSBRMjM0Ljg3NSwyMS41NjI1IDIzNC44NzUsMTguNzUgTDIzMy4xMjUsMTguNzUgWiBNMjI4Ljg3NSwxOS40Mzc1IEwyMzMuODEyNSwxOS40Mzc1IEwyMzMuODEyNSwxNy42ODc1IEwyMjguODc1LDE3LjY4NzUgTDIyOC44NzUsMTkuNDM3NSBaICIgZmlsbD0iIzAwMDAwMCIvPjx0ZXh0IGZpbGw9IiMwMDAwMDAiIGZvbnQtZmFtaWx5PSJzYW5zLXNlcmlmIiBmb250LXNpemU9IjE0IiBsZW5ndGhBZGp1c3Q9InNwYWNpbmciIHRleHRMZW5ndGg9IjE4NSIgeD0iMjUxLjc1IiB5PSIyOC43NDIyIj5SZW1vdmVTY3JlZW5Db21tYW5kSGFuZGxlcjwvdGV4dD48bGluZSBzdHlsZT0ic3Ryb2tlOiMxODE4MTg7c3Ryb2tlLXdpZHRoOjAuNTsiIHgxPSI4IiB4Mj0iNjQ4IiB5MT0iMzkiIHkyPSIzOSIvPjxsaW5lIHN0eWxlPSJzdHJva2U6IzE4MTgxODtzdHJva2Utd2lkdGg6MC41OyIgeDE9IjgiIHgyPSI2NDgiIHkxPSI0NyIgeTI9IjQ3Ii8+PGVsbGlwc2UgY3g9IjE4IiBjeT0iNTkuOTkyMiIgZmlsbD0iIzg0QkU4NCIgcng9IjMiIHJ5PSIzIiBzdHlsZT0ic3Ryb2tlOiMwMzgwNDg7c3Ryb2tlLXdpZHRoOjEuMDsiLz48dGV4dCBmaWxsPSIjMDAwMDAwIiBmb250LWZhbWlseT0ic2Fucy1zZXJpZiIgZm9udC1zaXplPSIxNCIgbGVuZ3RoQWRqdXN0PSJzcGFjaW5nIiB0ZXh0TGVuZ3RoPSI2MTYiIHg9IjI3IiB5PSI2NC4yMzQ0Ij4mIzE3MTthc3luYyYjMTg3OyBIYW5kbGUocmVxdWVzdDpSZW1vdmVTY3JlZW5Db21tYW5kLCBjYW5jZWxsYXRpb25Ub2tlbjpDYW5jZWxsYXRpb25Ub2tlbikgOiBUYXNrPC90ZXh0PjwvZz48IS0tU1JDPVtJeXY5QjJ2TTI0aERwSXpCM0t1a0lhdERTeXhGcEt0Q0lfNDB1ZnBLOGVMZ0JXS1dxNVFtaUthaWhpbkJqaERKV0NYZTVBS01iZ09NYnJYWHFRa1phOW9PYnZvUWF2RE9hZmNWNXZBVmRQZmR2T21rZWdiV2ZIMklNOXBETEdpMF0tLT48L2c+PC9zdmc+;" vertex="1" parent="1">
            <mxGeometry x="1118" y="1353" width="663" height="83" as="geometry" />
          </mxCell>
        </UserObject>
        <UserObject label="" plantUmlData="{&#xa;  &quot;data&quot;: &quot;@startuml\nclass UpdateScreenProfileCommand {\n    + Id : int &lt;&lt;get&gt;&gt;\n    + ScreenProfile : UpdateScreenProfileDto &lt;&lt;get&gt;&gt;\n    + UpdateScreenProfileCommand(id:int, screenProfile:UpdateScreenProfileDto)\n}\n@enduml\n&quot;,&#xa;  &quot;format&quot;: &quot;svg&quot;&#xa;}" id="inqcZ7f0K8DUZhspQT13-39">
          <mxCell style="shape=image;noLabel=1;verticalAlign=top;aspect=fixed;imageAspect=0;image=data:image/svg+xml,PD94bWwgdmVyc2lvbj0iMS4wIiBlbmNvZGluZz0idXMtYXNjaWkiIHN0YW5kYWxvbmU9Im5vIj8+PHN2ZyB4bWxucz0iaHR0cDovL3d3dy53My5vcmcvMjAwMC9zdmciIHhtbG5zOnhsaW5rPSJodHRwOi8vd3d3LnczLm9yZy8xOTk5L3hsaW5rIiBjb250ZW50U3R5bGVUeXBlPSJ0ZXh0L2NzcyIgaGVpZ2h0PSIxMTNweCIgcHJlc2VydmVBc3BlY3RSYXRpbz0ibm9uZSIgc3R5bGU9IndpZHRoOjU1NXB4O2hlaWdodDoxMTNweDtiYWNrZ3JvdW5kOiNGRkZGRkY7IiB2ZXJzaW9uPSIxLjEiIHZpZXdCb3g9IjAgMCA1NTUgMTEzIiB3aWR0aD0iNTU1cHgiIHpvb21BbmRQYW49Im1hZ25pZnkiPjxkZWZzLz48Zz48IS0tY2xhc3MgVXBkYXRlU2NyZWVuUHJvZmlsZUNvbW1hbmQtLT48ZyBpZD0iZWxlbV9VcGRhdGVTY3JlZW5Qcm9maWxlQ29tbWFuZCI+PHJlY3QgY29kZUxpbmU9IjEiIGZpbGw9IiNGMUYxRjEiIGhlaWdodD0iOTIuOTUzMSIgaWQ9IlVwZGF0ZVNjcmVlblByb2ZpbGVDb21tYW5kIiByeD0iMi41IiByeT0iMi41IiBzdHlsZT0ic3Ryb2tlOiMxODE4MTg7c3Ryb2tlLXdpZHRoOjAuNTsiIHdpZHRoPSI1MzQiIHg9IjciIHk9IjciLz48ZWxsaXBzZSBjeD0iMTc3Ljc1IiBjeT0iMjMiIGZpbGw9IiNBREQxQjIiIHJ4PSIxMSIgcnk9IjExIiBzdHlsZT0ic3Ryb2tlOiMxODE4MTg7c3Ryb2tlLXdpZHRoOjEuMDsiLz48cGF0aCBkPSJNMTc1LjM3NSwyNy4yNSBMMTc1LjM3NSwyOSBMMTgwLjMxMjUsMjkgTDE4MC4zMTI1LDI3LjI1IEwxNzUuMzc1LDI3LjI1IFogTTE3Ni4wNjI1LDI3LjkzNzUgUTE3Ni4wNjI1LDI3LjkzNzUgMTc2LjA2MjUsMTguNzUgTDE3NC4zMTI1LDE4Ljc1IFExNzQuMzEyNSwxOC43NSAxNzQuMzEyNSwyNy45Mzc1IEwxNzYuMDYyNSwyNy45Mzc1IFogTTE3OS42MjUsMjcuOTM3NSBMMTgxLjM3NSwyNy45Mzc1IFExODEuMzc1LDI3LjkzNzUgMTgxLjM3NSwyNS4xMjUgTDE3OS42MjUsMjUuMTI1IFExNzkuNjI1LDI1LjEyNSAxNzkuNjI1LDI3LjkzNzUgWiBNMTc5LjYyNSwxOC43NSBRMTc5LjYyNSwxOC43NSAxNzkuNjI1LDIxLjU2MjUgTDE4MS4zNzUsMjEuNTYyNSBRMTgxLjM3NSwyMS41NjI1IDE4MS4zNzUsMTguNzUgTDE3OS42MjUsMTguNzUgWiBNMTc1LjM3NSwxOS40Mzc1IEwxODAuMzEyNSwxOS40Mzc1IEwxODAuMzEyNSwxNy42ODc1IEwxNzUuMzc1LDE3LjY4NzUgTDE3NS4zNzUsMTkuNDM3NSBaICIgZmlsbD0iIzAwMDAwMCIvPjx0ZXh0IGZpbGw9IiMwMDAwMDAiIGZvbnQtZmFtaWx5PSJzYW5zLXNlcmlmIiBmb250LXNpemU9IjE0IiBsZW5ndGhBZGp1c3Q9InNwYWNpbmciIHRleHRMZW5ndGg9IjE4NCIgeD0iMTk4LjI1IiB5PSIyOC43NDIyIj5VcGRhdGVTY3JlZW5Qcm9maWxlQ29tbWFuZDwvdGV4dD48bGluZSBzdHlsZT0ic3Ryb2tlOiMxODE4MTg7c3Ryb2tlLXdpZHRoOjAuNTsiIHgxPSI4IiB4Mj0iNTQwIiB5MT0iMzkiIHkyPSIzOSIvPjxlbGxpcHNlIGN4PSIxOCIgY3k9IjUxLjk5MjIiIGZpbGw9Im5vbmUiIHJ4PSIzIiByeT0iMyIgc3R5bGU9InN0cm9rZTojMDM4MDQ4O3N0cm9rZS13aWR0aDoxLjA7Ii8+PHRleHQgZmlsbD0iIzAwMDAwMCIgZm9udC1mYW1pbHk9InNhbnMtc2VyaWYiIGZvbnQtc2l6ZT0iMTQiIGxlbmd0aEFkanVzdD0ic3BhY2luZyIgdGV4dExlbmd0aD0iMTAwIiB4PSIyNyIgeT0iNTYuMjM0NCI+SWQgOiBpbnQgJiMxNzE7Z2V0JiMxODc7PC90ZXh0PjxlbGxpcHNlIGN4PSIxOCIgY3k9IjY2Ljk3NjYiIGZpbGw9Im5vbmUiIHJ4PSIzIiByeT0iMyIgc3R5bGU9InN0cm9rZTojMDM4MDQ4O3N0cm9rZS13aWR0aDoxLjA7Ii8+PHRleHQgZmlsbD0iIzAwMDAwMCIgZm9udC1mYW1pbHk9InNhbnMtc2VyaWYiIGZvbnQtc2l6ZT0iMTQiIGxlbmd0aEFkanVzdD0ic3BhY2luZyIgdGV4dExlbmd0aD0iMzEwIiB4PSIyNyIgeT0iNzEuMjE4OCI+U2NyZWVuUHJvZmlsZSA6IFVwZGF0ZVNjcmVlblByb2ZpbGVEdG8gJiMxNzE7Z2V0JiMxODc7PC90ZXh0PjxsaW5lIHN0eWxlPSJzdHJva2U6IzE4MTgxODtzdHJva2Utd2lkdGg6MC41OyIgeDE9IjgiIHgyPSI1NDAiIHkxPSI3Ni45Njg4IiB5Mj0iNzYuOTY4OCIvPjxlbGxpcHNlIGN4PSIxOCIgY3k9Ijg5Ljk2MDkiIGZpbGw9IiM4NEJFODQiIHJ4PSIzIiByeT0iMyIgc3R5bGU9InN0cm9rZTojMDM4MDQ4O3N0cm9rZS13aWR0aDoxLjA7Ii8+PHRleHQgZmlsbD0iIzAwMDAwMCIgZm9udC1mYW1pbHk9InNhbnMtc2VyaWYiIGZvbnQtc2l6ZT0iMTQiIGxlbmd0aEFkanVzdD0ic3BhY2luZyIgdGV4dExlbmd0aD0iNTA4IiB4PSIyNyIgeT0iOTQuMjAzMSI+VXBkYXRlU2NyZWVuUHJvZmlsZUNvbW1hbmQoaWQ6aW50LCBzY3JlZW5Qcm9maWxlOlVwZGF0ZVNjcmVlblByb2ZpbGVEdG8pPC90ZXh0PjwvZz48IS0tU1JDPVtJeXY5QjJ2TTIycjhJSW45M0t1a0lhdEQyb1pBSnlsQ0lOTkVweXJEcDRqSGdFUEkwMDlqMVN5SzFJazVwQm1JMUhrUnpER0lFcGtlQzhlVWUwZWk5aGNLdkFEZm1jc1RIY1FBNVQwSTdPTFlQNGFoeEFQZ1NqSzIwMDAwXS0tPjwvZz48L3N2Zz4=;" vertex="1" parent="1">
            <mxGeometry x="916" y="510" width="555" height="113" as="geometry" />
          </mxCell>
        </UserObject>
        <UserObject label="" plantUmlData="{&#xa;  &quot;data&quot;: &quot;@startuml\nclass UpdateScreenProfileCommandHandler {\n    + &lt;&lt;async&gt;&gt; Handle(request:UpdateScreenProfileCommand, cancellationToken:CancellationToken) : Task&lt;ScreenProfileDto&gt;\n}\n@enduml\n&quot;,&#xa;  &quot;format&quot;: &quot;svg&quot;&#xa;}" id="inqcZ7f0K8DUZhspQT13-40">
          <mxCell style="shape=image;noLabel=1;verticalAlign=top;aspect=fixed;imageAspect=0;image=data:image/svg+xml,PD94bWwgdmVyc2lvbj0iMS4wIiBlbmNvZGluZz0idXMtYXNjaWkiIHN0YW5kYWxvbmU9Im5vIj8+PHN2ZyB4bWxucz0iaHR0cDovL3d3dy53My5vcmcvMjAwMC9zdmciIHhtbG5zOnhsaW5rPSJodHRwOi8vd3d3LnczLm9yZy8xOTk5L3hsaW5rIiBjb250ZW50U3R5bGVUeXBlPSJ0ZXh0L2NzcyIgaGVpZ2h0PSI4M3B4IiBwcmVzZXJ2ZUFzcGVjdFJhdGlvPSJub25lIiBzdHlsZT0id2lkdGg6ODM3cHg7aGVpZ2h0OjgzcHg7YmFja2dyb3VuZDojRkZGRkZGOyIgdmVyc2lvbj0iMS4xIiB2aWV3Qm94PSIwIDAgODM3IDgzIiB3aWR0aD0iODM3cHgiIHpvb21BbmRQYW49Im1hZ25pZnkiPjxkZWZzLz48Zz48IS0tY2xhc3MgVXBkYXRlU2NyZWVuUHJvZmlsZUNvbW1hbmRIYW5kbGVyLS0+PGcgaWQ9ImVsZW1fVXBkYXRlU2NyZWVuUHJvZmlsZUNvbW1hbmRIYW5kbGVyIj48cmVjdCBjb2RlTGluZT0iMSIgZmlsbD0iI0YxRjFGMSIgaGVpZ2h0PSI2Mi45ODQ0IiBpZD0iVXBkYXRlU2NyZWVuUHJvZmlsZUNvbW1hbmRIYW5kbGVyIiByeD0iMi41IiByeT0iMi41IiBzdHlsZT0ic3Ryb2tlOiMxODE4MTg7c3Ryb2tlLXdpZHRoOjAuNTsiIHdpZHRoPSI4MTYiIHg9IjciIHk9IjciLz48ZWxsaXBzZSBjeD0iMjk0LjI1IiBjeT0iMjMiIGZpbGw9IiNBREQxQjIiIHJ4PSIxMSIgcnk9IjExIiBzdHlsZT0ic3Ryb2tlOiMxODE4MTg7c3Ryb2tlLXdpZHRoOjEuMDsiLz48cGF0aCBkPSJNMjkxLjg3NSwyNy4yNSBMMjkxLjg3NSwyOSBMMjk2LjgxMjUsMjkgTDI5Ni44MTI1LDI3LjI1IEwyOTEuODc1LDI3LjI1IFogTTI5Mi41NjI1LDI3LjkzNzUgUTI5Mi41NjI1LDI3LjkzNzUgMjkyLjU2MjUsMTguNzUgTDI5MC44MTI1LDE4Ljc1IFEyOTAuODEyNSwxOC43NSAyOTAuODEyNSwyNy45Mzc1IEwyOTIuNTYyNSwyNy45Mzc1IFogTTI5Ni4xMjUsMjcuOTM3NSBMMjk3Ljg3NSwyNy45Mzc1IFEyOTcuODc1LDI3LjkzNzUgMjk3Ljg3NSwyNS4xMjUgTDI5Ni4xMjUsMjUuMTI1IFEyOTYuMTI1LDI1LjEyNSAyOTYuMTI1LDI3LjkzNzUgWiBNMjk2LjEyNSwxOC43NSBRMjk2LjEyNSwxOC43NSAyOTYuMTI1LDIxLjU2MjUgTDI5Ny44NzUsMjEuNTYyNSBRMjk3Ljg3NSwyMS41NjI1IDI5Ny44NzUsMTguNzUgTDI5Ni4xMjUsMTguNzUgWiBNMjkxLjg3NSwxOS40Mzc1IEwyOTYuODEyNSwxOS40Mzc1IEwyOTYuODEyNSwxNy42ODc1IEwyOTEuODc1LDE3LjY4NzUgTDI5MS44NzUsMTkuNDM3NSBaICIgZmlsbD0iIzAwMDAwMCIvPjx0ZXh0IGZpbGw9IiMwMDAwMDAiIGZvbnQtZmFtaWx5PSJzYW5zLXNlcmlmIiBmb250LXNpemU9IjE0IiBsZW5ndGhBZGp1c3Q9InNwYWNpbmciIHRleHRMZW5ndGg9IjIzMyIgeD0iMzE0Ljc1IiB5PSIyOC43NDIyIj5VcGRhdGVTY3JlZW5Qcm9maWxlQ29tbWFuZEhhbmRsZXI8L3RleHQ+PGxpbmUgc3R5bGU9InN0cm9rZTojMTgxODE4O3N0cm9rZS13aWR0aDowLjU7IiB4MT0iOCIgeDI9IjgyMiIgeTE9IjM5IiB5Mj0iMzkiLz48bGluZSBzdHlsZT0ic3Ryb2tlOiMxODE4MTg7c3Ryb2tlLXdpZHRoOjAuNTsiIHgxPSI4IiB4Mj0iODIyIiB5MT0iNDciIHkyPSI0NyIvPjxlbGxpcHNlIGN4PSIxOCIgY3k9IjU5Ljk5MjIiIGZpbGw9IiM4NEJFODQiIHJ4PSIzIiByeT0iMyIgc3R5bGU9InN0cm9rZTojMDM4MDQ4O3N0cm9rZS13aWR0aDoxLjA7Ii8+PHRleHQgZmlsbD0iIzAwMDAwMCIgZm9udC1mYW1pbHk9InNhbnMtc2VyaWYiIGZvbnQtc2l6ZT0iMTQiIGxlbmd0aEFkanVzdD0ic3BhY2luZyIgdGV4dExlbmd0aD0iNzkwIiB4PSIyNyIgeT0iNjQuMjM0NCI+JiMxNzE7YXN5bmMmIzE4NzsgSGFuZGxlKHJlcXVlc3Q6VXBkYXRlU2NyZWVuUHJvZmlsZUNvbW1hbmQsIGNhbmNlbGxhdGlvblRva2VuOkNhbmNlbGxhdGlvblRva2VuKSA6IFRhc2smbHQ7U2NyZWVuUHJvZmlsZUR0byZndDs8L3RleHQ+PC9nPjwhLS1TUkM9W0l5djlCMnZNMjJyOElJbjkzS3VrSWF0RDJvWkFKeWxDSU5ORXB5ckRwNGxuMEVBU3IyQTVRWXU1OEQxTWlCNTlCQXhDSXhRcEt1MzhRMUliNWZRYzVmVE91SlAySG80dkNJeXZESVNkaUlHcEZveWFGcGlycHllUE5LSEptS2VYOUI0dXNtUjUxOVVJVjNra01XMDBdLS0+PC9nPjwvc3ZnPg==;" vertex="1" parent="1">
            <mxGeometry x="1526" y="525" width="837" height="83" as="geometry" />
          </mxCell>
        </UserObject>
        <UserObject label="" plantUmlData="{&#xa;  &quot;data&quot;: &quot;@startuml\nclass GetAllOrdersQuery {\n}\n@enduml\n&quot;,&#xa;  &quot;format&quot;: &quot;svg&quot;&#xa;}" id="inqcZ7f0K8DUZhspQT13-42">
          <mxCell style="shape=image;noLabel=1;verticalAlign=top;aspect=fixed;imageAspect=0;image=data:image/svg+xml,PD94bWwgdmVyc2lvbj0iMS4wIiBlbmNvZGluZz0idXMtYXNjaWkiIHN0YW5kYWxvbmU9Im5vIj8+PHN2ZyB4bWxucz0iaHR0cDovL3d3dy53My5vcmcvMjAwMC9zdmciIHhtbG5zOnhsaW5rPSJodHRwOi8vd3d3LnczLm9yZy8xOTk5L3hsaW5rIiBjb250ZW50U3R5bGVUeXBlPSJ0ZXh0L2NzcyIgaGVpZ2h0PSI2OXB4IiBwcmVzZXJ2ZUFzcGVjdFJhdGlvPSJub25lIiBzdHlsZT0id2lkdGg6MTcycHg7aGVpZ2h0OjY5cHg7YmFja2dyb3VuZDojRkZGRkZGOyIgdmVyc2lvbj0iMS4xIiB2aWV3Qm94PSIwIDAgMTcyIDY5IiB3aWR0aD0iMTcycHgiIHpvb21BbmRQYW49Im1hZ25pZnkiPjxkZWZzLz48Zz48IS0tY2xhc3MgR2V0QWxsT3JkZXJzUXVlcnktLT48ZyBpZD0iZWxlbV9HZXRBbGxPcmRlcnNRdWVyeSI+PHJlY3QgY29kZUxpbmU9IjEiIGZpbGw9IiNGMUYxRjEiIGhlaWdodD0iNDgiIGlkPSJHZXRBbGxPcmRlcnNRdWVyeSIgcng9IjIuNSIgcnk9IjIuNSIgc3R5bGU9InN0cm9rZTojMTgxODE4O3N0cm9rZS13aWR0aDowLjU7IiB3aWR0aD0iMTUxIiB4PSI3IiB5PSI3Ii8+PGVsbGlwc2UgY3g9IjIyIiBjeT0iMjMiIGZpbGw9IiNBREQxQjIiIHJ4PSIxMSIgcnk9IjExIiBzdHlsZT0ic3Ryb2tlOiMxODE4MTg7c3Ryb2tlLXdpZHRoOjEuMDsiLz48cGF0aCBkPSJNMTkuNjI1LDI3LjI1IEwxOS42MjUsMjkgTDI0LjU2MjUsMjkgTDI0LjU2MjUsMjcuMjUgTDE5LjYyNSwyNy4yNSBaIE0yMC4zMTI1LDI3LjkzNzUgUTIwLjMxMjUsMjcuOTM3NSAyMC4zMTI1LDE4Ljc1IEwxOC41NjI1LDE4Ljc1IFExOC41NjI1LDE4Ljc1IDE4LjU2MjUsMjcuOTM3NSBMMjAuMzEyNSwyNy45Mzc1IFogTTIzLjg3NSwyNy45Mzc1IEwyNS42MjUsMjcuOTM3NSBRMjUuNjI1LDI3LjkzNzUgMjUuNjI1LDI1LjEyNSBMMjMuODc1LDI1LjEyNSBRMjMuODc1LDI1LjEyNSAyMy44NzUsMjcuOTM3NSBaIE0yMy44NzUsMTguNzUgUTIzLjg3NSwxOC43NSAyMy44NzUsMjEuNTYyNSBMMjUuNjI1LDIxLjU2MjUgUTI1LjYyNSwyMS41NjI1IDI1LjYyNSwxOC43NSBMMjMuODc1LDE4Ljc1IFogTTE5LjYyNSwxOS40Mzc1IEwyNC41NjI1LDE5LjQzNzUgTDI0LjU2MjUsMTcuNjg3NSBMMTkuNjI1LDE3LjY4NzUgTDE5LjYyNSwxOS40Mzc1IFogIiBmaWxsPSIjMDAwMDAwIi8+PHRleHQgZmlsbD0iIzAwMDAwMCIgZm9udC1mYW1pbHk9InNhbnMtc2VyaWYiIGZvbnQtc2l6ZT0iMTQiIGxlbmd0aEFkanVzdD0ic3BhY2luZyIgdGV4dExlbmd0aD0iMTE5IiB4PSIzNiIgeT0iMjguNzQyMiI+R2V0QWxsT3JkZXJzUXVlcnk8L3RleHQ+PGxpbmUgc3R5bGU9InN0cm9rZTojMTgxODE4O3N0cm9rZS13aWR0aDowLjU7IiB4MT0iOCIgeDI9IjE1NyIgeTE9IjM5IiB5Mj0iMzkiLz48bGluZSBzdHlsZT0ic3Ryb2tlOiMxODE4MTg7c3Ryb2tlLXdpZHRoOjAuNTsiIHgxPSI4IiB4Mj0iMTU3IiB5MT0iNDciIHkyPSI0NyIvPjwvZz48IS0tU1JDPVtJeXY5QjJ2TVM0eWpTU3A5eUl6QUlJcWczWW5EQlFmS2dFUWcxRzAwXS0tPjwvZz48L3N2Zz4=;" vertex="1" parent="1">
            <mxGeometry x="976" y="2840" width="172" height="69" as="geometry" />
          </mxCell>
        </UserObject>
        <UserObject label="" plantUmlData="{&#xa;  &quot;data&quot;: &quot;@startuml\nclass GetAllOrdersQueryHandler {\n    - &lt;&lt;readonly&gt;&gt; _crmAdapter : CrmAdapter\n    + GetAllOrdersQueryHandler(crmAdapter:CrmAdapter)\n    + &lt;&lt;async&gt;&gt; Handle(request:GetAllOrdersQuery, cancellationToken:CancellationToken) : Task&lt;List&lt;OrderDto&gt;&gt;\n}\n@enduml\n&quot;,&#xa;  &quot;format&quot;: &quot;svg&quot;&#xa;}" id="inqcZ7f0K8DUZhspQT13-43">
          <mxCell style="shape=image;noLabel=1;verticalAlign=top;aspect=fixed;imageAspect=0;image=data:image/svg+xml,PD94bWwgdmVyc2lvbj0iMS4wIiBlbmNvZGluZz0idXMtYXNjaWkiIHN0YW5kYWxvbmU9Im5vIj8+PHN2ZyB4bWxucz0iaHR0cDovL3d3dy53My5vcmcvMjAwMC9zdmciIHhtbG5zOnhsaW5rPSJodHRwOi8vd3d3LnczLm9yZy8xOTk5L3hsaW5rIiBjb250ZW50U3R5bGVUeXBlPSJ0ZXh0L2NzcyIgaGVpZ2h0PSIxMTNweCIgcHJlc2VydmVBc3BlY3RSYXRpbz0ibm9uZSIgc3R5bGU9IndpZHRoOjc1OHB4O2hlaWdodDoxMTNweDtiYWNrZ3JvdW5kOiNGRkZGRkY7IiB2ZXJzaW9uPSIxLjEiIHZpZXdCb3g9IjAgMCA3NTggMTEzIiB3aWR0aD0iNzU4cHgiIHpvb21BbmRQYW49Im1hZ25pZnkiPjxkZWZzLz48Zz48IS0tY2xhc3MgR2V0QWxsT3JkZXJzUXVlcnlIYW5kbGVyLS0+PGcgaWQ9ImVsZW1fR2V0QWxsT3JkZXJzUXVlcnlIYW5kbGVyIj48cmVjdCBjb2RlTGluZT0iMSIgZmlsbD0iI0YxRjFGMSIgaGVpZ2h0PSI5Mi45NTMxIiBpZD0iR2V0QWxsT3JkZXJzUXVlcnlIYW5kbGVyIiByeD0iMi41IiByeT0iMi41IiBzdHlsZT0ic3Ryb2tlOiMxODE4MTg7c3Ryb2tlLXdpZHRoOjAuNTsiIHdpZHRoPSI3MzciIHg9IjciIHk9IjciLz48ZWxsaXBzZSBjeD0iMjg3LjI1IiBjeT0iMjMiIGZpbGw9IiNBREQxQjIiIHJ4PSIxMSIgcnk9IjExIiBzdHlsZT0ic3Ryb2tlOiMxODE4MTg7c3Ryb2tlLXdpZHRoOjEuMDsiLz48cGF0aCBkPSJNMjg0Ljg3NSwyNy4yNSBMMjg0Ljg3NSwyOSBMMjg5LjgxMjUsMjkgTDI4OS44MTI1LDI3LjI1IEwyODQuODc1LDI3LjI1IFogTTI4NS41NjI1LDI3LjkzNzUgUTI4NS41NjI1LDI3LjkzNzUgMjg1LjU2MjUsMTguNzUgTDI4My44MTI1LDE4Ljc1IFEyODMuODEyNSwxOC43NSAyODMuODEyNSwyNy45Mzc1IEwyODUuNTYyNSwyNy45Mzc1IFogTTI4OS4xMjUsMjcuOTM3NSBMMjkwLjg3NSwyNy45Mzc1IFEyOTAuODc1LDI3LjkzNzUgMjkwLjg3NSwyNS4xMjUgTDI4OS4xMjUsMjUuMTI1IFEyODkuMTI1LDI1LjEyNSAyODkuMTI1LDI3LjkzNzUgWiBNMjg5LjEyNSwxOC43NSBRMjg5LjEyNSwxOC43NSAyODkuMTI1LDIxLjU2MjUgTDI5MC44NzUsMjEuNTYyNSBRMjkwLjg3NSwyMS41NjI1IDI5MC44NzUsMTguNzUgTDI4OS4xMjUsMTguNzUgWiBNMjg0Ljg3NSwxOS40Mzc1IEwyODkuODEyNSwxOS40Mzc1IEwyODkuODEyNSwxNy42ODc1IEwyODQuODc1LDE3LjY4NzUgTDI4NC44NzUsMTkuNDM3NSBaICIgZmlsbD0iIzAwMDAwMCIvPjx0ZXh0IGZpbGw9IiMwMDAwMDAiIGZvbnQtZmFtaWx5PSJzYW5zLXNlcmlmIiBmb250LXNpemU9IjE0IiBsZW5ndGhBZGp1c3Q9InNwYWNpbmciIHRleHRMZW5ndGg9IjE2OCIgeD0iMzA3Ljc1IiB5PSIyOC43NDIyIj5HZXRBbGxPcmRlcnNRdWVyeUhhbmRsZXI8L3RleHQ+PGxpbmUgc3R5bGU9InN0cm9rZTojMTgxODE4O3N0cm9rZS13aWR0aDowLjU7IiB4MT0iOCIgeDI9Ijc0MyIgeTE9IjM5IiB5Mj0iMzkiLz48cmVjdCBmaWxsPSJub25lIiBoZWlnaHQ9IjYiIHN0eWxlPSJzdHJva2U6I0M4MjkzMDtzdHJva2Utd2lkdGg6MS4wOyIgd2lkdGg9IjYiIHg9IjE1IiB5PSI0OC45OTIyIi8+PHRleHQgZmlsbD0iIzAwMDAwMCIgZm9udC1mYW1pbHk9InNhbnMtc2VyaWYiIGZvbnQtc2l6ZT0iMTQiIGxlbmd0aEFkanVzdD0ic3BhY2luZyIgdGV4dExlbmd0aD0iMjQ5IiB4PSIyNyIgeT0iNTYuMjM0NCI+JiMxNzE7cmVhZG9ubHkmIzE4NzsgX2NybUFkYXB0ZXIgOiBDcm1BZGFwdGVyPC90ZXh0PjxsaW5lIHN0eWxlPSJzdHJva2U6IzE4MTgxODtzdHJva2Utd2lkdGg6MC41OyIgeDE9IjgiIHgyPSI3NDMiIHkxPSI2MS45ODQ0IiB5Mj0iNjEuOTg0NCIvPjxlbGxpcHNlIGN4PSIxOCIgY3k9Ijc0Ljk3NjYiIGZpbGw9IiM4NEJFODQiIHJ4PSIzIiByeT0iMyIgc3R5bGU9InN0cm9rZTojMDM4MDQ4O3N0cm9rZS13aWR0aDoxLjA7Ii8+PHRleHQgZmlsbD0iIzAwMDAwMCIgZm9udC1mYW1pbHk9InNhbnMtc2VyaWYiIGZvbnQtc2l6ZT0iMTQiIGxlbmd0aEFkanVzdD0ic3BhY2luZyIgdGV4dExlbmd0aD0iMzMzIiB4PSIyNyIgeT0iNzkuMjE4OCI+R2V0QWxsT3JkZXJzUXVlcnlIYW5kbGVyKGNybUFkYXB0ZXI6Q3JtQWRhcHRlcik8L3RleHQ+PGVsbGlwc2UgY3g9IjE4IiBjeT0iODkuOTYwOSIgZmlsbD0iIzg0QkU4NCIgcng9IjMiIHJ5PSIzIiBzdHlsZT0ic3Ryb2tlOiMwMzgwNDg7c3Ryb2tlLXdpZHRoOjEuMDsiLz48dGV4dCBmaWxsPSIjMDAwMDAwIiBmb250LWZhbWlseT0ic2Fucy1zZXJpZiIgZm9udC1zaXplPSIxNCIgbGVuZ3RoQWRqdXN0PSJzcGFjaW5nIiB0ZXh0TGVuZ3RoPSI3MTEiIHg9IjI3IiB5PSI5NC4yMDMxIj4mIzE3MTthc3luYyYjMTg3OyBIYW5kbGUocmVxdWVzdDpHZXRBbGxPcmRlcnNRdWVyeSwgY2FuY2VsbGF0aW9uVG9rZW46Q2FuY2VsbGF0aW9uVG9rZW4pIDogVGFzayZsdDtMaXN0Jmx0O09yZGVyRHRvJmd0OyZndDs8L3RleHQ+PC9nPjwhLS1TUkM9W1RPeDEyaThtMzQzbC11ZVVEekdWQUFLbTlrWDE0NjV0Mk1xRU94N0xmM2lLeVR5aktubWV2ZlJtdFlFRUc0SmpDQkw0SF9SOFNmZ0d5bncyOXNIcmhySVBaSkE2NE5tQ2JBckxQeVVOcmlDcjVLMmh4aEZDeEVmbGg1dXFsS1pEc3A4NjkwVE55WS15UGhuREE0ZF92RFJBR04xODE2YzhlT3laMWpyek52aG9NR3lvY2lDV29TcHNEYUxoZ3lTSl0tLT48L2c+PC9zdmc+;" vertex="1" parent="1">
            <mxGeometry x="1248" y="2810" width="758" height="113" as="geometry" />
          </mxCell>
        </UserObject>
        <UserObject label="" plantUmlData="{&#xa;  &quot;data&quot;: &quot;@startuml\nclass GetAllScreenProfilesQuery {\n}\n@enduml\n&quot;,&#xa;  &quot;format&quot;: &quot;svg&quot;&#xa;}" id="inqcZ7f0K8DUZhspQT13-44">
          <mxCell style="shape=image;noLabel=1;verticalAlign=top;aspect=fixed;imageAspect=0;image=data:image/svg+xml,PD94bWwgdmVyc2lvbj0iMS4wIiBlbmNvZGluZz0idXMtYXNjaWkiIHN0YW5kYWxvbmU9Im5vIj8+PHN2ZyB4bWxucz0iaHR0cDovL3d3dy53My5vcmcvMjAwMC9zdmciIHhtbG5zOnhsaW5rPSJodHRwOi8vd3d3LnczLm9yZy8xOTk5L3hsaW5rIiBjb250ZW50U3R5bGVUeXBlPSJ0ZXh0L2NzcyIgaGVpZ2h0PSI2OXB4IiBwcmVzZXJ2ZUFzcGVjdFJhdGlvPSJub25lIiBzdHlsZT0id2lkdGg6MjI4cHg7aGVpZ2h0OjY5cHg7YmFja2dyb3VuZDojRkZGRkZGOyIgdmVyc2lvbj0iMS4xIiB2aWV3Qm94PSIwIDAgMjI4IDY5IiB3aWR0aD0iMjI4cHgiIHpvb21BbmRQYW49Im1hZ25pZnkiPjxkZWZzLz48Zz48IS0tY2xhc3MgR2V0QWxsU2NyZWVuUHJvZmlsZXNRdWVyeS0tPjxnIGlkPSJlbGVtX0dldEFsbFNjcmVlblByb2ZpbGVzUXVlcnkiPjxyZWN0IGNvZGVMaW5lPSIxIiBmaWxsPSIjRjFGMUYxIiBoZWlnaHQ9IjQ4IiBpZD0iR2V0QWxsU2NyZWVuUHJvZmlsZXNRdWVyeSIgcng9IjIuNSIgcnk9IjIuNSIgc3R5bGU9InN0cm9rZTojMTgxODE4O3N0cm9rZS13aWR0aDowLjU7IiB3aWR0aD0iMjA3IiB4PSI3IiB5PSI3Ii8+PGVsbGlwc2UgY3g9IjIyIiBjeT0iMjMiIGZpbGw9IiNBREQxQjIiIHJ4PSIxMSIgcnk9IjExIiBzdHlsZT0ic3Ryb2tlOiMxODE4MTg7c3Ryb2tlLXdpZHRoOjEuMDsiLz48cGF0aCBkPSJNMTkuNjI1LDI3LjI1IEwxOS42MjUsMjkgTDI0LjU2MjUsMjkgTDI0LjU2MjUsMjcuMjUgTDE5LjYyNSwyNy4yNSBaIE0yMC4zMTI1LDI3LjkzNzUgUTIwLjMxMjUsMjcuOTM3NSAyMC4zMTI1LDE4Ljc1IEwxOC41NjI1LDE4Ljc1IFExOC41NjI1LDE4Ljc1IDE4LjU2MjUsMjcuOTM3NSBMMjAuMzEyNSwyNy45Mzc1IFogTTIzLjg3NSwyNy45Mzc1IEwyNS42MjUsMjcuOTM3NSBRMjUuNjI1LDI3LjkzNzUgMjUuNjI1LDI1LjEyNSBMMjMuODc1LDI1LjEyNSBRMjMuODc1LDI1LjEyNSAyMy44NzUsMjcuOTM3NSBaIE0yMy44NzUsMTguNzUgUTIzLjg3NSwxOC43NSAyMy44NzUsMjEuNTYyNSBMMjUuNjI1LDIxLjU2MjUgUTI1LjYyNSwyMS41NjI1IDI1LjYyNSwxOC43NSBMMjMuODc1LDE4Ljc1IFogTTE5LjYyNSwxOS40Mzc1IEwyNC41NjI1LDE5LjQzNzUgTDI0LjU2MjUsMTcuNjg3NSBMMTkuNjI1LDE3LjY4NzUgTDE5LjYyNSwxOS40Mzc1IFogIiBmaWxsPSIjMDAwMDAwIi8+PHRleHQgZmlsbD0iIzAwMDAwMCIgZm9udC1mYW1pbHk9InNhbnMtc2VyaWYiIGZvbnQtc2l6ZT0iMTQiIGxlbmd0aEFkanVzdD0ic3BhY2luZyIgdGV4dExlbmd0aD0iMTc1IiB4PSIzNiIgeT0iMjguNzQyMiI+R2V0QWxsU2NyZWVuUHJvZmlsZXNRdWVyeTwvdGV4dD48bGluZSBzdHlsZT0ic3Ryb2tlOiMxODE4MTg7c3Ryb2tlLXdpZHRoOjAuNTsiIHgxPSI4IiB4Mj0iMjEzIiB5MT0iMzkiIHkyPSIzOSIvPjxsaW5lIHN0eWxlPSJzdHJva2U6IzE4MTgxODtzdHJva2Utd2lkdGg6MC41OyIgeDE9IjgiIHgyPSIyMTMiIHkxPSI0NyIgeTI9IjQ3Ii8+PC9nPjwhLS1TUkM9W0l5djlCMnZNUzR5alNTcDkyS3VrSWF0RDJvWkFKeWxDSUlxRUI0cWpnYklldmdlNTAwMDBdLS0+PC9nPjwvc3ZnPg==;" vertex="1" parent="1">
            <mxGeometry x="926" y="670" width="228" height="69" as="geometry" />
          </mxCell>
        </UserObject>
        <UserObject label="" plantUmlData="{&#xa;  &quot;data&quot;: &quot;@startuml\nclass GetAllScreenProfilesQueryHandler {\n    + &lt;&lt;async&gt;&gt; Handle(request:GetAllScreenProfilesQuery, cancellationToken:CancellationToken) : Task&lt;List&lt;ScreenProfileDto&gt;&gt;\n}\n@enduml\n&quot;,&#xa;  &quot;format&quot;: &quot;svg&quot;&#xa;}" id="inqcZ7f0K8DUZhspQT13-45">
          <mxCell style="shape=image;noLabel=1;verticalAlign=top;aspect=fixed;imageAspect=0;image=data:image/svg+xml,PD94bWwgdmVyc2lvbj0iMS4wIiBlbmNvZGluZz0idXMtYXNjaWkiIHN0YW5kYWxvbmU9Im5vIj8+PHN2ZyB4bWxucz0iaHR0cDovL3d3dy53My5vcmcvMjAwMC9zdmciIHhtbG5zOnhsaW5rPSJodHRwOi8vd3d3LnczLm9yZy8xOTk5L3hsaW5rIiBjb250ZW50U3R5bGVUeXBlPSJ0ZXh0L2NzcyIgaGVpZ2h0PSI4M3B4IiBwcmVzZXJ2ZUFzcGVjdFJhdGlvPSJub25lIiBzdHlsZT0id2lkdGg6ODcwcHg7aGVpZ2h0OjgzcHg7YmFja2dyb3VuZDojRkZGRkZGOyIgdmVyc2lvbj0iMS4xIiB2aWV3Qm94PSIwIDAgODcwIDgzIiB3aWR0aD0iODcwcHgiIHpvb21BbmRQYW49Im1hZ25pZnkiPjxkZWZzLz48Zz48IS0tY2xhc3MgR2V0QWxsU2NyZWVuUHJvZmlsZXNRdWVyeUhhbmRsZXItLT48ZyBpZD0iZWxlbV9HZXRBbGxTY3JlZW5Qcm9maWxlc1F1ZXJ5SGFuZGxlciI+PHJlY3QgY29kZUxpbmU9IjEiIGZpbGw9IiNGMUYxRjEiIGhlaWdodD0iNjIuOTg0NCIgaWQ9IkdldEFsbFNjcmVlblByb2ZpbGVzUXVlcnlIYW5kbGVyIiByeD0iMi41IiByeT0iMi41IiBzdHlsZT0ic3Ryb2tlOiMxODE4MTg7c3Ryb2tlLXdpZHRoOjAuNTsiIHdpZHRoPSI4NDkiIHg9IjciIHk9IjciLz48ZWxsaXBzZSBjeD0iMzE1LjI1IiBjeT0iMjMiIGZpbGw9IiNBREQxQjIiIHJ4PSIxMSIgcnk9IjExIiBzdHlsZT0ic3Ryb2tlOiMxODE4MTg7c3Ryb2tlLXdpZHRoOjEuMDsiLz48cGF0aCBkPSJNMzEyLjg3NSwyNy4yNSBMMzEyLjg3NSwyOSBMMzE3LjgxMjUsMjkgTDMxNy44MTI1LDI3LjI1IEwzMTIuODc1LDI3LjI1IFogTTMxMy41NjI1LDI3LjkzNzUgUTMxMy41NjI1LDI3LjkzNzUgMzEzLjU2MjUsMTguNzUgTDMxMS44MTI1LDE4Ljc1IFEzMTEuODEyNSwxOC43NSAzMTEuODEyNSwyNy45Mzc1IEwzMTMuNTYyNSwyNy45Mzc1IFogTTMxNy4xMjUsMjcuOTM3NSBMMzE4Ljg3NSwyNy45Mzc1IFEzMTguODc1LDI3LjkzNzUgMzE4Ljg3NSwyNS4xMjUgTDMxNy4xMjUsMjUuMTI1IFEzMTcuMTI1LDI1LjEyNSAzMTcuMTI1LDI3LjkzNzUgWiBNMzE3LjEyNSwxOC43NSBRMzE3LjEyNSwxOC43NSAzMTcuMTI1LDIxLjU2MjUgTDMxOC44NzUsMjEuNTYyNSBRMzE4Ljg3NSwyMS41NjI1IDMxOC44NzUsMTguNzUgTDMxNy4xMjUsMTguNzUgWiBNMzEyLjg3NSwxOS40Mzc1IEwzMTcuODEyNSwxOS40Mzc1IEwzMTcuODEyNSwxNy42ODc1IEwzMTIuODc1LDE3LjY4NzUgTDMxMi44NzUsMTkuNDM3NSBaICIgZmlsbD0iIzAwMDAwMCIvPjx0ZXh0IGZpbGw9IiMwMDAwMDAiIGZvbnQtZmFtaWx5PSJzYW5zLXNlcmlmIiBmb250LXNpemU9IjE0IiBsZW5ndGhBZGp1c3Q9InNwYWNpbmciIHRleHRMZW5ndGg9IjIyNCIgeD0iMzM1Ljc1IiB5PSIyOC43NDIyIj5HZXRBbGxTY3JlZW5Qcm9maWxlc1F1ZXJ5SGFuZGxlcjwvdGV4dD48bGluZSBzdHlsZT0ic3Ryb2tlOiMxODE4MTg7c3Ryb2tlLXdpZHRoOjAuNTsiIHgxPSI4IiB4Mj0iODU1IiB5MT0iMzkiIHkyPSIzOSIvPjxsaW5lIHN0eWxlPSJzdHJva2U6IzE4MTgxODtzdHJva2Utd2lkdGg6MC41OyIgeDE9IjgiIHgyPSI4NTUiIHkxPSI0NyIgeTI9IjQ3Ii8+PGVsbGlwc2UgY3g9IjE4IiBjeT0iNTkuOTkyMiIgZmlsbD0iIzg0QkU4NCIgcng9IjMiIHJ5PSIzIiBzdHlsZT0ic3Ryb2tlOiMwMzgwNDg7c3Ryb2tlLXdpZHRoOjEuMDsiLz48dGV4dCBmaWxsPSIjMDAwMDAwIiBmb250LWZhbWlseT0ic2Fucy1zZXJpZiIgZm9udC1zaXplPSIxNCIgbGVuZ3RoQWRqdXN0PSJzcGFjaW5nIiB0ZXh0TGVuZ3RoPSI4MjMiIHg9IjI3IiB5PSI2NC4yMzQ0Ij4mIzE3MTthc3luYyYjMTg3OyBIYW5kbGUocmVxdWVzdDpHZXRBbGxTY3JlZW5Qcm9maWxlc1F1ZXJ5LCBjYW5jZWxsYXRpb25Ub2tlbjpDYW5jZWxsYXRpb25Ub2tlbikgOiBUYXNrJmx0O0xpc3QmbHQ7U2NyZWVuUHJvZmlsZUR0byZndDsmZ3Q7PC90ZXh0PjwvZz48IS0tU1JDPVtUT24xMmk5MDMwM2xWS01FNWR0MWlZbzhXWHV5QUZPMzhLUE82aEFPZjhTWV9qczI5bU5kRTBEM1drdm11RFlBTkNjT3pNcGpOZU56Q2g3REh6SVJpQzZwV3VLcnY4bS1BdksyZHg4b1ZhcGlhVnVVRGEyZW4yOE9qVWRHSGpRcS1wS3o5MVpHbnRvZzdsZGhpZXpNSWxUdzBtMDBdLS0+PC9nPjwvc3ZnPg==;" vertex="1" parent="1">
            <mxGeometry x="1210" y="670" width="870" height="83" as="geometry" />
          </mxCell>
        </UserObject>
        <UserObject label="" plantUmlData="{&#xa;  &quot;data&quot;: &quot;@startuml\nclass GetAllScreensQuery {\n}\n@enduml\n&quot;,&#xa;  &quot;format&quot;: &quot;svg&quot;&#xa;}" id="inqcZ7f0K8DUZhspQT13-46">
          <mxCell style="shape=image;noLabel=1;verticalAlign=top;aspect=fixed;imageAspect=0;image=data:image/svg+xml,PD94bWwgdmVyc2lvbj0iMS4wIiBlbmNvZGluZz0idXMtYXNjaWkiIHN0YW5kYWxvbmU9Im5vIj8+PHN2ZyB4bWxucz0iaHR0cDovL3d3dy53My5vcmcvMjAwMC9zdmciIHhtbG5zOnhsaW5rPSJodHRwOi8vd3d3LnczLm9yZy8xOTk5L3hsaW5rIiBjb250ZW50U3R5bGVUeXBlPSJ0ZXh0L2NzcyIgaGVpZ2h0PSI2OXB4IiBwcmVzZXJ2ZUFzcGVjdFJhdGlvPSJub25lIiBzdHlsZT0id2lkdGg6MTc5cHg7aGVpZ2h0OjY5cHg7YmFja2dyb3VuZDojRkZGRkZGOyIgdmVyc2lvbj0iMS4xIiB2aWV3Qm94PSIwIDAgMTc5IDY5IiB3aWR0aD0iMTc5cHgiIHpvb21BbmRQYW49Im1hZ25pZnkiPjxkZWZzLz48Zz48IS0tY2xhc3MgR2V0QWxsU2NyZWVuc1F1ZXJ5LS0+PGcgaWQ9ImVsZW1fR2V0QWxsU2NyZWVuc1F1ZXJ5Ij48cmVjdCBjb2RlTGluZT0iMSIgZmlsbD0iI0YxRjFGMSIgaGVpZ2h0PSI0OCIgaWQ9IkdldEFsbFNjcmVlbnNRdWVyeSIgcng9IjIuNSIgcnk9IjIuNSIgc3R5bGU9InN0cm9rZTojMTgxODE4O3N0cm9rZS13aWR0aDowLjU7IiB3aWR0aD0iMTU4IiB4PSI3IiB5PSI3Ii8+PGVsbGlwc2UgY3g9IjIyIiBjeT0iMjMiIGZpbGw9IiNBREQxQjIiIHJ4PSIxMSIgcnk9IjExIiBzdHlsZT0ic3Ryb2tlOiMxODE4MTg7c3Ryb2tlLXdpZHRoOjEuMDsiLz48cGF0aCBkPSJNMTkuNjI1LDI3LjI1IEwxOS42MjUsMjkgTDI0LjU2MjUsMjkgTDI0LjU2MjUsMjcuMjUgTDE5LjYyNSwyNy4yNSBaIE0yMC4zMTI1LDI3LjkzNzUgUTIwLjMxMjUsMjcuOTM3NSAyMC4zMTI1LDE4Ljc1IEwxOC41NjI1LDE4Ljc1IFExOC41NjI1LDE4Ljc1IDE4LjU2MjUsMjcuOTM3NSBMMjAuMzEyNSwyNy45Mzc1IFogTTIzLjg3NSwyNy45Mzc1IEwyNS42MjUsMjcuOTM3NSBRMjUuNjI1LDI3LjkzNzUgMjUuNjI1LDI1LjEyNSBMMjMuODc1LDI1LjEyNSBRMjMuODc1LDI1LjEyNSAyMy44NzUsMjcuOTM3NSBaIE0yMy44NzUsMTguNzUgUTIzLjg3NSwxOC43NSAyMy44NzUsMjEuNTYyNSBMMjUuNjI1LDIxLjU2MjUgUTI1LjYyNSwyMS41NjI1IDI1LjYyNSwxOC43NSBMMjMuODc1LDE4Ljc1IFogTTE5LjYyNSwxOS40Mzc1IEwyNC41NjI1LDE5LjQzNzUgTDI0LjU2MjUsMTcuNjg3NSBMMTkuNjI1LDE3LjY4NzUgTDE5LjYyNSwxOS40Mzc1IFogIiBmaWxsPSIjMDAwMDAwIi8+PHRleHQgZmlsbD0iIzAwMDAwMCIgZm9udC1mYW1pbHk9InNhbnMtc2VyaWYiIGZvbnQtc2l6ZT0iMTQiIGxlbmd0aEFkanVzdD0ic3BhY2luZyIgdGV4dExlbmd0aD0iMTI2IiB4PSIzNiIgeT0iMjguNzQyMiI+R2V0QWxsU2NyZWVuc1F1ZXJ5PC90ZXh0PjxsaW5lIHN0eWxlPSJzdHJva2U6IzE4MTgxODtzdHJva2Utd2lkdGg6MC41OyIgeDE9IjgiIHgyPSIxNjQiIHkxPSIzOSIgeTI9IjM5Ii8+PGxpbmUgc3R5bGU9InN0cm9rZTojMTgxODE4O3N0cm9rZS13aWR0aDowLjU7IiB4MT0iOCIgeDI9IjE2NCIgeTE9IjQ3IiB5Mj0iNDciLz48L2c+PCEtLVNSQz1bSXl2OUIydk1TNHlqU1NwOTJLdWtJYXREQW11aUpJc2dMQVpjZ1dLMF0tLT48L2c+PC9zdmc+;" vertex="1" parent="1">
            <mxGeometry x="936" y="1530" width="179" height="69" as="geometry" />
          </mxCell>
        </UserObject>
        <UserObject label="" plantUmlData="{&#xa;  &quot;data&quot;: &quot;@startuml\nclass GetAllScreensQueryHandler {\n    - &lt;&lt;readonly&gt;&gt; _screenRepository : ScreenRepository\n    + &lt;&lt;async&gt;&gt; Handle(request:GetAllScreensQuery, cancellationToken:CancellationToken) : Task&lt;List&lt;ScreenDto&gt;&gt;\n}\n@enduml\n&quot;,&#xa;  &quot;format&quot;: &quot;svg&quot;&#xa;}" id="inqcZ7f0K8DUZhspQT13-47">
          <mxCell style="shape=image;noLabel=1;verticalAlign=top;aspect=fixed;imageAspect=0;image=data:image/svg+xml,PD94bWwgdmVyc2lvbj0iMS4wIiBlbmNvZGluZz0idXMtYXNjaWkiIHN0YW5kYWxvbmU9Im5vIj8+PHN2ZyB4bWxucz0iaHR0cDovL3d3dy53My5vcmcvMjAwMC9zdmciIHhtbG5zOnhsaW5rPSJodHRwOi8vd3d3LnczLm9yZy8xOTk5L3hsaW5rIiBjb250ZW50U3R5bGVUeXBlPSJ0ZXh0L2NzcyIgaGVpZ2h0PSI5OHB4IiBwcmVzZXJ2ZUFzcGVjdFJhdGlvPSJub25lIiBzdHlsZT0id2lkdGg6NzcycHg7aGVpZ2h0Ojk4cHg7YmFja2dyb3VuZDojRkZGRkZGOyIgdmVyc2lvbj0iMS4xIiB2aWV3Qm94PSIwIDAgNzcyIDk4IiB3aWR0aD0iNzcycHgiIHpvb21BbmRQYW49Im1hZ25pZnkiPjxkZWZzLz48Zz48IS0tY2xhc3MgR2V0QWxsU2NyZWVuc1F1ZXJ5SGFuZGxlci0tPjxnIGlkPSJlbGVtX0dldEFsbFNjcmVlbnNRdWVyeUhhbmRsZXIiPjxyZWN0IGNvZGVMaW5lPSIxIiBmaWxsPSIjRjFGMUYxIiBoZWlnaHQ9Ijc3Ljk2ODgiIGlkPSJHZXRBbGxTY3JlZW5zUXVlcnlIYW5kbGVyIiByeD0iMi41IiByeT0iMi41IiBzdHlsZT0ic3Ryb2tlOiMxODE4MTg7c3Ryb2tlLXdpZHRoOjAuNTsiIHdpZHRoPSI3NTEiIHg9IjciIHk9IjciLz48ZWxsaXBzZSBjeD0iMjkwLjc1IiBjeT0iMjMiIGZpbGw9IiNBREQxQjIiIHJ4PSIxMSIgcnk9IjExIiBzdHlsZT0ic3Ryb2tlOiMxODE4MTg7c3Ryb2tlLXdpZHRoOjEuMDsiLz48cGF0aCBkPSJNMjg4LjM3NSwyNy4yNSBMMjg4LjM3NSwyOSBMMjkzLjMxMjUsMjkgTDI5My4zMTI1LDI3LjI1IEwyODguMzc1LDI3LjI1IFogTTI4OS4wNjI1LDI3LjkzNzUgUTI4OS4wNjI1LDI3LjkzNzUgMjg5LjA2MjUsMTguNzUgTDI4Ny4zMTI1LDE4Ljc1IFEyODcuMzEyNSwxOC43NSAyODcuMzEyNSwyNy45Mzc1IEwyODkuMDYyNSwyNy45Mzc1IFogTTI5Mi42MjUsMjcuOTM3NSBMMjk0LjM3NSwyNy45Mzc1IFEyOTQuMzc1LDI3LjkzNzUgMjk0LjM3NSwyNS4xMjUgTDI5Mi42MjUsMjUuMTI1IFEyOTIuNjI1LDI1LjEyNSAyOTIuNjI1LDI3LjkzNzUgWiBNMjkyLjYyNSwxOC43NSBRMjkyLjYyNSwxOC43NSAyOTIuNjI1LDIxLjU2MjUgTDI5NC4zNzUsMjEuNTYyNSBRMjk0LjM3NSwyMS41NjI1IDI5NC4zNzUsMTguNzUgTDI5Mi42MjUsMTguNzUgWiBNMjg4LjM3NSwxOS40Mzc1IEwyOTMuMzEyNSwxOS40Mzc1IEwyOTMuMzEyNSwxNy42ODc1IEwyODguMzc1LDE3LjY4NzUgTDI4OC4zNzUsMTkuNDM3NSBaICIgZmlsbD0iIzAwMDAwMCIvPjx0ZXh0IGZpbGw9IiMwMDAwMDAiIGZvbnQtZmFtaWx5PSJzYW5zLXNlcmlmIiBmb250LXNpemU9IjE0IiBsZW5ndGhBZGp1c3Q9InNwYWNpbmciIHRleHRMZW5ndGg9IjE3NSIgeD0iMzExLjI1IiB5PSIyOC43NDIyIj5HZXRBbGxTY3JlZW5zUXVlcnlIYW5kbGVyPC90ZXh0PjxsaW5lIHN0eWxlPSJzdHJva2U6IzE4MTgxODtzdHJva2Utd2lkdGg6MC41OyIgeDE9IjgiIHgyPSI3NTciIHkxPSIzOSIgeTI9IjM5Ii8+PHJlY3QgZmlsbD0ibm9uZSIgaGVpZ2h0PSI2IiBzdHlsZT0ic3Ryb2tlOiNDODI5MzA7c3Ryb2tlLXdpZHRoOjEuMDsiIHdpZHRoPSI2IiB4PSIxNSIgeT0iNDguOTkyMiIvPjx0ZXh0IGZpbGw9IiMwMDAwMDAiIGZvbnQtZmFtaWx5PSJzYW5zLXNlcmlmIiBmb250LXNpemU9IjE0IiBsZW5ndGhBZGp1c3Q9InNwYWNpbmciIHRleHRMZW5ndGg9IjMzMSIgeD0iMjciIHk9IjU2LjIzNDQiPiYjMTcxO3JlYWRvbmx5JiMxODc7IF9zY3JlZW5SZXBvc2l0b3J5IDogU2NyZWVuUmVwb3NpdG9yeTwvdGV4dD48bGluZSBzdHlsZT0ic3Ryb2tlOiMxODE4MTg7c3Ryb2tlLXdpZHRoOjAuNTsiIHgxPSI4IiB4Mj0iNzU3IiB5MT0iNjEuOTg0NCIgeTI9IjYxLjk4NDQiLz48ZWxsaXBzZSBjeD0iMTgiIGN5PSI3NC45NzY2IiBmaWxsPSIjODRCRTg0IiByeD0iMyIgcnk9IjMiIHN0eWxlPSJzdHJva2U6IzAzODA0ODtzdHJva2Utd2lkdGg6MS4wOyIvPjx0ZXh0IGZpbGw9IiMwMDAwMDAiIGZvbnQtZmFtaWx5PSJzYW5zLXNlcmlmIiBmb250LXNpemU9IjE0IiBsZW5ndGhBZGp1c3Q9InNwYWNpbmciIHRleHRMZW5ndGg9IjcyNSIgeD0iMjciIHk9Ijc5LjIxODgiPiYjMTcxO2FzeW5jJiMxODc7IEhhbmRsZShyZXF1ZXN0OkdldEFsbFNjcmVlbnNRdWVyeSwgY2FuY2VsbGF0aW9uVG9rZW46Q2FuY2VsbGF0aW9uVG9rZW4pIDogVGFzayZsdDtMaXN0Jmx0O1NjcmVlbkR0byZndDsmZ3Q7PC90ZXh0PjwvZz48IS0tU1JDPVtQT3NuMmk5MDQ0SnhWQ01NWWxlM250NFcyYmhPUURCQlNqYVlQRGRKc3FybllGX2thTkhub2lVeWNTWWUyWFVvOHRDUkN2N2VWUTlTaFlXekt1UEYwcEs3eTN1SnphY3VYMDFGZFBpRlVZS1RCRUsyM2plTGNoclR6TDJCbjJlall2akN4dWRLdEZfYjdZOUE5NlFxOEtjTkhYOXRNZkRqbFVmR0h0eVJyRm9ZZG9zNXE3bl9dLS0+PC9nPjwvc3ZnPg==;" vertex="1" parent="1">
            <mxGeometry x="1184" y="1510" width="772" height="98" as="geometry" />
          </mxCell>
        </UserObject>
        <UserObject label="" plantUmlData="{&#xa;  &quot;data&quot;: &quot;@startuml\nclass GetOrderByIdQuery {\n    + Id : int &lt;&lt;get&gt;&gt; &lt;&lt;set&gt;&gt;\n    + GetOrderByIdQuery(id:int)\n}\n@enduml\n&quot;,&#xa;  &quot;format&quot;: &quot;svg&quot;&#xa;}" id="inqcZ7f0K8DUZhspQT13-48">
          <mxCell style="shape=image;noLabel=1;verticalAlign=top;aspect=fixed;imageAspect=0;image=data:image/svg+xml,PD94bWwgdmVyc2lvbj0iMS4wIiBlbmNvZGluZz0idXMtYXNjaWkiIHN0YW5kYWxvbmU9Im5vIj8+PHN2ZyB4bWxucz0iaHR0cDovL3d3dy53My5vcmcvMjAwMC9zdmciIHhtbG5zOnhsaW5rPSJodHRwOi8vd3d3LnczLm9yZy8xOTk5L3hsaW5rIiBjb250ZW50U3R5bGVUeXBlPSJ0ZXh0L2NzcyIgaGVpZ2h0PSI5OHB4IiBwcmVzZXJ2ZUFzcGVjdFJhdGlvPSJub25lIiBzdHlsZT0id2lkdGg6MjI0cHg7aGVpZ2h0Ojk4cHg7YmFja2dyb3VuZDojRkZGRkZGOyIgdmVyc2lvbj0iMS4xIiB2aWV3Qm94PSIwIDAgMjI0IDk4IiB3aWR0aD0iMjI0cHgiIHpvb21BbmRQYW49Im1hZ25pZnkiPjxkZWZzLz48Zz48IS0tY2xhc3MgR2V0T3JkZXJCeUlkUXVlcnktLT48ZyBpZD0iZWxlbV9HZXRPcmRlckJ5SWRRdWVyeSI+PHJlY3QgY29kZUxpbmU9IjEiIGZpbGw9IiNGMUYxRjEiIGhlaWdodD0iNzcuOTY4OCIgaWQ9IkdldE9yZGVyQnlJZFF1ZXJ5IiByeD0iMi41IiByeT0iMi41IiBzdHlsZT0ic3Ryb2tlOiMxODE4MTg7c3Ryb2tlLXdpZHRoOjAuNTsiIHdpZHRoPSIyMDMiIHg9IjciIHk9IjciLz48ZWxsaXBzZSBjeD0iNDUuNCIgY3k9IjIzIiBmaWxsPSIjQUREMUIyIiByeD0iMTEiIHJ5PSIxMSIgc3R5bGU9InN0cm9rZTojMTgxODE4O3N0cm9rZS13aWR0aDoxLjA7Ii8+PHBhdGggZD0iTTQzLjAyNSwyNy4yNSBMNDMuMDI1LDI5IEw0Ny45NjI1LDI5IEw0Ny45NjI1LDI3LjI1IEw0My4wMjUsMjcuMjUgWiBNNDMuNzEyNSwyNy45Mzc1IFE0My43MTI1LDI3LjkzNzUgNDMuNzEyNSwxOC43NSBMNDEuOTYyNSwxOC43NSBRNDEuOTYyNSwxOC43NSA0MS45NjI1LDI3LjkzNzUgTDQzLjcxMjUsMjcuOTM3NSBaIE00Ny4yNzUsMjcuOTM3NSBMNDkuMDI1LDI3LjkzNzUgUTQ5LjAyNSwyNy45Mzc1IDQ5LjAyNSwyNS4xMjUgTDQ3LjI3NSwyNS4xMjUgUTQ3LjI3NSwyNS4xMjUgNDcuMjc1LDI3LjkzNzUgWiBNNDcuMjc1LDE4Ljc1IFE0Ny4yNzUsMTguNzUgNDcuMjc1LDIxLjU2MjUgTDQ5LjAyNSwyMS41NjI1IFE0OS4wMjUsMjEuNTYyNSA0OS4wMjUsMTguNzUgTDQ3LjI3NSwxOC43NSBaIE00My4wMjUsMTkuNDM3NSBMNDcuOTYyNSwxOS40Mzc1IEw0Ny45NjI1LDE3LjY4NzUgTDQzLjAyNSwxNy42ODc1IEw0My4wMjUsMTkuNDM3NSBaICIgZmlsbD0iIzAwMDAwMCIvPjx0ZXh0IGZpbGw9IiMwMDAwMDAiIGZvbnQtZmFtaWx5PSJzYW5zLXNlcmlmIiBmb250LXNpemU9IjE0IiBsZW5ndGhBZGp1c3Q9InNwYWNpbmciIHRleHRMZW5ndGg9IjExOSIgeD0iNjQuNiIgeT0iMjguNzQyMiI+R2V0T3JkZXJCeUlkUXVlcnk8L3RleHQ+PGxpbmUgc3R5bGU9InN0cm9rZTojMTgxODE4O3N0cm9rZS13aWR0aDowLjU7IiB4MT0iOCIgeDI9IjIwOSIgeTE9IjM5IiB5Mj0iMzkiLz48ZWxsaXBzZSBjeD0iMTgiIGN5PSI1MS45OTIyIiBmaWxsPSJub25lIiByeD0iMyIgcnk9IjMiIHN0eWxlPSJzdHJva2U6IzAzODA0ODtzdHJva2Utd2lkdGg6MS4wOyIvPjx0ZXh0IGZpbGw9IiMwMDAwMDAiIGZvbnQtZmFtaWx5PSJzYW5zLXNlcmlmIiBmb250LXNpemU9IjE0IiBsZW5ndGhBZGp1c3Q9InNwYWNpbmciIHRleHRMZW5ndGg9IjE0NCIgeD0iMjciIHk9IjU2LjIzNDQiPklkIDogaW50ICYjMTcxO2dldCYjMTg3OyAmIzE3MTtzZXQmIzE4Nzs8L3RleHQ+PGxpbmUgc3R5bGU9InN0cm9rZTojMTgxODE4O3N0cm9rZS13aWR0aDowLjU7IiB4MT0iOCIgeDI9IjIwOSIgeTE9IjYxLjk4NDQiIHkyPSI2MS45ODQ0Ii8+PGVsbGlwc2UgY3g9IjE4IiBjeT0iNzQuOTc2NiIgZmlsbD0iIzg0QkU4NCIgcng9IjMiIHJ5PSIzIiBzdHlsZT0ic3Ryb2tlOiMwMzgwNDg7c3Ryb2tlLXdpZHRoOjEuMDsiLz48dGV4dCBmaWxsPSIjMDAwMDAwIiBmb250LWZhbWlseT0ic2Fucy1zZXJpZiIgZm9udC1zaXplPSIxNCIgbGVuZ3RoQWRqdXN0PSJzcGFjaW5nIiB0ZXh0TGVuZ3RoPSIxNzciIHg9IjI3IiB5PSI3OS4yMTg4Ij5HZXRPcmRlckJ5SWRRdWVyeShpZDppbnQpPC90ZXh0PjwvZz48IS0tU1JDPVtJeXY5QjJ2TVM0eWp5SXpBSUlyb2dsSEMySW5EQlFmS2dFUEkwMDlqMVN5SzFJazVwQm1JMUhrUnpER0lFcGlXTkdvWWVUOE82WktvS3dvMG9aTXZRVzQwXS0tPjwvZz48L3N2Zz4=;" vertex="1" parent="1">
            <mxGeometry x="926" y="2960" width="224" height="98" as="geometry" />
          </mxCell>
        </UserObject>
        <UserObject label="" plantUmlData="{&#xa;  &quot;data&quot;: &quot;@startuml\nclass GetOrderByIdQueryHandler {\n    - &lt;&lt;readonly&gt;&gt; _crmAdapter : CrmAdapter\n    + GetOrderByIdQueryHandler(crmAdapter:CrmAdapter)\n    + &lt;&lt;async&gt;&gt; Handle(request:GetOrderByIdQuery, cancellationToken:CancellationToken) : Task&lt;OrderDto&gt;\n}\n@enduml\n&quot;,&#xa;  &quot;format&quot;: &quot;svg&quot;&#xa;}" id="inqcZ7f0K8DUZhspQT13-49">
          <mxCell style="shape=image;noLabel=1;verticalAlign=top;aspect=fixed;imageAspect=0;image=data:image/svg+xml,PD94bWwgdmVyc2lvbj0iMS4wIiBlbmNvZGluZz0idXMtYXNjaWkiIHN0YW5kYWxvbmU9Im5vIj8+PHN2ZyB4bWxucz0iaHR0cDovL3d3dy53My5vcmcvMjAwMC9zdmciIHhtbG5zOnhsaW5rPSJodHRwOi8vd3d3LnczLm9yZy8xOTk5L3hsaW5rIiBjb250ZW50U3R5bGVUeXBlPSJ0ZXh0L2NzcyIgaGVpZ2h0PSIxMTNweCIgcHJlc2VydmVBc3BlY3RSYXRpbz0ibm9uZSIgc3R5bGU9IndpZHRoOjcxNnB4O2hlaWdodDoxMTNweDtiYWNrZ3JvdW5kOiNGRkZGRkY7IiB2ZXJzaW9uPSIxLjEiIHZpZXdCb3g9IjAgMCA3MTYgMTEzIiB3aWR0aD0iNzE2cHgiIHpvb21BbmRQYW49Im1hZ25pZnkiPjxkZWZzLz48Zz48IS0tY2xhc3MgR2V0T3JkZXJCeUlkUXVlcnlIYW5kbGVyLS0+PGcgaWQ9ImVsZW1fR2V0T3JkZXJCeUlkUXVlcnlIYW5kbGVyIj48cmVjdCBjb2RlTGluZT0iMSIgZmlsbD0iI0YxRjFGMSIgaGVpZ2h0PSI5Mi45NTMxIiBpZD0iR2V0T3JkZXJCeUlkUXVlcnlIYW5kbGVyIiByeD0iMi41IiByeT0iMi41IiBzdHlsZT0ic3Ryb2tlOiMxODE4MTg7c3Ryb2tlLXdpZHRoOjAuNTsiIHdpZHRoPSI2OTUiIHg9IjciIHk9IjciLz48ZWxsaXBzZSBjeD0iMjY2LjI1IiBjeT0iMjMiIGZpbGw9IiNBREQxQjIiIHJ4PSIxMSIgcnk9IjExIiBzdHlsZT0ic3Ryb2tlOiMxODE4MTg7c3Ryb2tlLXdpZHRoOjEuMDsiLz48cGF0aCBkPSJNMjYzLjg3NSwyNy4yNSBMMjYzLjg3NSwyOSBMMjY4LjgxMjUsMjkgTDI2OC44MTI1LDI3LjI1IEwyNjMuODc1LDI3LjI1IFogTTI2NC41NjI1LDI3LjkzNzUgUTI2NC41NjI1LDI3LjkzNzUgMjY0LjU2MjUsMTguNzUgTDI2Mi44MTI1LDE4Ljc1IFEyNjIuODEyNSwxOC43NSAyNjIuODEyNSwyNy45Mzc1IEwyNjQuNTYyNSwyNy45Mzc1IFogTTI2OC4xMjUsMjcuOTM3NSBMMjY5Ljg3NSwyNy45Mzc1IFEyNjkuODc1LDI3LjkzNzUgMjY5Ljg3NSwyNS4xMjUgTDI2OC4xMjUsMjUuMTI1IFEyNjguMTI1LDI1LjEyNSAyNjguMTI1LDI3LjkzNzUgWiBNMjY4LjEyNSwxOC43NSBRMjY4LjEyNSwxOC43NSAyNjguMTI1LDIxLjU2MjUgTDI2OS44NzUsMjEuNTYyNSBRMjY5Ljg3NSwyMS41NjI1IDI2OS44NzUsMTguNzUgTDI2OC4xMjUsMTguNzUgWiBNMjYzLjg3NSwxOS40Mzc1IEwyNjguODEyNSwxOS40Mzc1IEwyNjguODEyNSwxNy42ODc1IEwyNjMuODc1LDE3LjY4NzUgTDI2My44NzUsMTkuNDM3NSBaICIgZmlsbD0iIzAwMDAwMCIvPjx0ZXh0IGZpbGw9IiMwMDAwMDAiIGZvbnQtZmFtaWx5PSJzYW5zLXNlcmlmIiBmb250LXNpemU9IjE0IiBsZW5ndGhBZGp1c3Q9InNwYWNpbmciIHRleHRMZW5ndGg9IjE2OCIgeD0iMjg2Ljc1IiB5PSIyOC43NDIyIj5HZXRPcmRlckJ5SWRRdWVyeUhhbmRsZXI8L3RleHQ+PGxpbmUgc3R5bGU9InN0cm9rZTojMTgxODE4O3N0cm9rZS13aWR0aDowLjU7IiB4MT0iOCIgeDI9IjcwMSIgeTE9IjM5IiB5Mj0iMzkiLz48cmVjdCBmaWxsPSJub25lIiBoZWlnaHQ9IjYiIHN0eWxlPSJzdHJva2U6I0M4MjkzMDtzdHJva2Utd2lkdGg6MS4wOyIgd2lkdGg9IjYiIHg9IjE1IiB5PSI0OC45OTIyIi8+PHRleHQgZmlsbD0iIzAwMDAwMCIgZm9udC1mYW1pbHk9InNhbnMtc2VyaWYiIGZvbnQtc2l6ZT0iMTQiIGxlbmd0aEFkanVzdD0ic3BhY2luZyIgdGV4dExlbmd0aD0iMjQ5IiB4PSIyNyIgeT0iNTYuMjM0NCI+JiMxNzE7cmVhZG9ubHkmIzE4NzsgX2NybUFkYXB0ZXIgOiBDcm1BZGFwdGVyPC90ZXh0PjxsaW5lIHN0eWxlPSJzdHJva2U6IzE4MTgxODtzdHJva2Utd2lkdGg6MC41OyIgeDE9IjgiIHgyPSI3MDEiIHkxPSI2MS45ODQ0IiB5Mj0iNjEuOTg0NCIvPjxlbGxpcHNlIGN4PSIxOCIgY3k9Ijc0Ljk3NjYiIGZpbGw9IiM4NEJFODQiIHJ4PSIzIiByeT0iMyIgc3R5bGU9InN0cm9rZTojMDM4MDQ4O3N0cm9rZS13aWR0aDoxLjA7Ii8+PHRleHQgZmlsbD0iIzAwMDAwMCIgZm9udC1mYW1pbHk9InNhbnMtc2VyaWYiIGZvbnQtc2l6ZT0iMTQiIGxlbmd0aEFkanVzdD0ic3BhY2luZyIgdGV4dExlbmd0aD0iMzMzIiB4PSIyNyIgeT0iNzkuMjE4OCI+R2V0T3JkZXJCeUlkUXVlcnlIYW5kbGVyKGNybUFkYXB0ZXI6Q3JtQWRhcHRlcik8L3RleHQ+PGVsbGlwc2UgY3g9IjE4IiBjeT0iODkuOTYwOSIgZmlsbD0iIzg0QkU4NCIgcng9IjMiIHJ5PSIzIiBzdHlsZT0ic3Ryb2tlOiMwMzgwNDg7c3Ryb2tlLXdpZHRoOjEuMDsiLz48dGV4dCBmaWxsPSIjMDAwMDAwIiBmb250LWZhbWlseT0ic2Fucy1zZXJpZiIgZm9udC1zaXplPSIxNCIgbGVuZ3RoQWRqdXN0PSJzcGFjaW5nIiB0ZXh0TGVuZ3RoPSI2NjkiIHg9IjI3IiB5PSI5NC4yMDMxIj4mIzE3MTthc3luYyYjMTg3OyBIYW5kbGUocmVxdWVzdDpHZXRPcmRlckJ5SWRRdWVyeSwgY2FuY2VsbGF0aW9uVG9rZW46Q2FuY2VsbGF0aW9uVG9rZW4pIDogVGFzayZsdDtPcmRlckR0byZndDs8L3RleHQ+PC9nPjwhLS1TUkM9W1RPeDEyaThtMzQzbC11ZVNEekdWQUFNVzR6SUoyQmpCUTdFR3JOSWN0UTY4X3N3UHVhMG5qdUp0N2g0VU91R1RmUUN1YWFxLWtERDhhbFY4cGZGMGxPOG9BejFRMjVyV2R1czFpdk5oc2s2RzJnMldfSW1Ka19XUmdzVERwTEJwamhKNmNEY01fMGtsWE11Wm5RSC1TYWttbzlReW50Rzl0OE1VTUJOVmJ3UHlyYzdpelVIa0twM0x1bWEwXS0tPjwvZz48L3N2Zz4=;" vertex="1" parent="1">
            <mxGeometry x="1210" y="2970" width="716" height="113" as="geometry" />
          </mxCell>
        </UserObject>
        <UserObject label="" plantUmlData="{&#xa;  &quot;data&quot;: &quot;@startuml\nclass GetScreenQuery {\n    + Id : int &lt;&lt;get&gt;&gt; &lt;&lt;set&gt;&gt;\n}\n@enduml\n&quot;,&#xa;  &quot;format&quot;: &quot;svg&quot;&#xa;}" id="inqcZ7f0K8DUZhspQT13-50">
          <mxCell style="shape=image;noLabel=1;verticalAlign=top;aspect=fixed;imageAspect=0;image=data:image/svg+xml,PD94bWwgdmVyc2lvbj0iMS4wIiBlbmNvZGluZz0idXMtYXNjaWkiIHN0YW5kYWxvbmU9Im5vIj8+PHN2ZyB4bWxucz0iaHR0cDovL3d3dy53My5vcmcvMjAwMC9zdmciIHhtbG5zOnhsaW5rPSJodHRwOi8vd3d3LnczLm9yZy8xOTk5L3hsaW5rIiBjb250ZW50U3R5bGVUeXBlPSJ0ZXh0L2NzcyIgaGVpZ2h0PSI4M3B4IiBwcmVzZXJ2ZUFzcGVjdFJhdGlvPSJub25lIiBzdHlsZT0id2lkdGg6MTkxcHg7aGVpZ2h0OjgzcHg7YmFja2dyb3VuZDojRkZGRkZGOyIgdmVyc2lvbj0iMS4xIiB2aWV3Qm94PSIwIDAgMTkxIDgzIiB3aWR0aD0iMTkxcHgiIHpvb21BbmRQYW49Im1hZ25pZnkiPjxkZWZzLz48Zz48IS0tY2xhc3MgR2V0U2NyZWVuUXVlcnktLT48ZyBpZD0iZWxlbV9HZXRTY3JlZW5RdWVyeSI+PHJlY3QgY29kZUxpbmU9IjEiIGZpbGw9IiNGMUYxRjEiIGhlaWdodD0iNjIuOTg0NCIgaWQ9IkdldFNjcmVlblF1ZXJ5IiByeD0iMi41IiByeT0iMi41IiBzdHlsZT0ic3Ryb2tlOiMxODE4MTg7c3Ryb2tlLXdpZHRoOjAuNTsiIHdpZHRoPSIxNzAiIHg9IjciIHk9IjciLz48ZWxsaXBzZSBjeD0iNDAiIGN5PSIyMyIgZmlsbD0iI0FERDFCMiIgcng9IjExIiByeT0iMTEiIHN0eWxlPSJzdHJva2U6IzE4MTgxODtzdHJva2Utd2lkdGg6MS4wOyIvPjxwYXRoIGQ9Ik0zNy42MjUsMjcuMjUgTDM3LjYyNSwyOSBMNDIuNTYyNSwyOSBMNDIuNTYyNSwyNy4yNSBMMzcuNjI1LDI3LjI1IFogTTM4LjMxMjUsMjcuOTM3NSBRMzguMzEyNSwyNy45Mzc1IDM4LjMxMjUsMTguNzUgTDM2LjU2MjUsMTguNzUgUTM2LjU2MjUsMTguNzUgMzYuNTYyNSwyNy45Mzc1IEwzOC4zMTI1LDI3LjkzNzUgWiBNNDEuODc1LDI3LjkzNzUgTDQzLjYyNSwyNy45Mzc1IFE0My42MjUsMjcuOTM3NSA0My42MjUsMjUuMTI1IEw0MS44NzUsMjUuMTI1IFE0MS44NzUsMjUuMTI1IDQxLjg3NSwyNy45Mzc1IFogTTQxLjg3NSwxOC43NSBRNDEuODc1LDE4Ljc1IDQxLjg3NSwyMS41NjI1IEw0My42MjUsMjEuNTYyNSBRNDMuNjI1LDIxLjU2MjUgNDMuNjI1LDE4Ljc1IEw0MS44NzUsMTguNzUgWiBNMzcuNjI1LDE5LjQzNzUgTDQyLjU2MjUsMTkuNDM3NSBMNDIuNTYyNSwxNy42ODc1IEwzNy42MjUsMTcuNjg3NSBMMzcuNjI1LDE5LjQzNzUgWiAiIGZpbGw9IiMwMDAwMDAiLz48dGV4dCBmaWxsPSIjMDAwMDAwIiBmb250LWZhbWlseT0ic2Fucy1zZXJpZiIgZm9udC1zaXplPSIxNCIgbGVuZ3RoQWRqdXN0PSJzcGFjaW5nIiB0ZXh0TGVuZ3RoPSI5OCIgeD0iNTgiIHk9IjI4Ljc0MjIiPkdldFNjcmVlblF1ZXJ5PC90ZXh0PjxsaW5lIHN0eWxlPSJzdHJva2U6IzE4MTgxODtzdHJva2Utd2lkdGg6MC41OyIgeDE9IjgiIHgyPSIxNzYiIHkxPSIzOSIgeTI9IjM5Ii8+PGVsbGlwc2UgY3g9IjE4IiBjeT0iNTEuOTkyMiIgZmlsbD0ibm9uZSIgcng9IjMiIHJ5PSIzIiBzdHlsZT0ic3Ryb2tlOiMwMzgwNDg7c3Ryb2tlLXdpZHRoOjEuMDsiLz48dGV4dCBmaWxsPSIjMDAwMDAwIiBmb250LWZhbWlseT0ic2Fucy1zZXJpZiIgZm9udC1zaXplPSIxNCIgbGVuZ3RoQWRqdXN0PSJzcGFjaW5nIiB0ZXh0TGVuZ3RoPSIxNDQiIHg9IjI3IiB5PSI1Ni4yMzQ0Ij5JZCA6IGludCAmIzE3MTtnZXQmIzE4NzsgJiMxNzE7c2V0JiMxODc7PC90ZXh0PjxsaW5lIHN0eWxlPSJzdHJva2U6IzE4MTgxODtzdHJva2Utd2lkdGg6MC41OyIgeDE9IjgiIHgyPSIxNzYiIHkxPSI2MS45ODQ0IiB5Mj0iNjEuOTg0NCIvPjwvZz48IS0tU1JDPVtJeXY5QjJ2TVM0eWoyS3VrSWF0RDJvbkRCUWZLZ0VQSTAwOWoxU3lLMUlrNXBCbUkxSGtSekRHSUVwaVdOR29Za01lMV0tLT48L2c+PC9zdmc+;" vertex="1" parent="1">
            <mxGeometry x="924" y="1670" width="191" height="83" as="geometry" />
          </mxCell>
        </UserObject>
        <UserObject label="" plantUmlData="{&#xa;  &quot;data&quot;: &quot;@startuml\nclass GetScreenQueryHandler {\n    + &lt;&lt;async&gt;&gt; Handle(request:GetScreenQuery, cancellationToken:CancellationToken) : Task&lt;ScreenDto&gt;\n}\n@enduml\n&quot;,&#xa;  &quot;format&quot;: &quot;svg&quot;&#xa;}" id="inqcZ7f0K8DUZhspQT13-51">
          <mxCell style="shape=image;noLabel=1;verticalAlign=top;aspect=fixed;imageAspect=0;image=data:image/svg+xml,PD94bWwgdmVyc2lvbj0iMS4wIiBlbmNvZGluZz0idXMtYXNjaWkiIHN0YW5kYWxvbmU9Im5vIj8+PHN2ZyB4bWxucz0iaHR0cDovL3d3dy53My5vcmcvMjAwMC9zdmciIHhtbG5zOnhsaW5rPSJodHRwOi8vd3d3LnczLm9yZy8xOTk5L3hsaW5rIiBjb250ZW50U3R5bGVUeXBlPSJ0ZXh0L2NzcyIgaGVpZ2h0PSI4M3B4IiBwcmVzZXJ2ZUFzcGVjdFJhdGlvPSJub25lIiBzdHlsZT0id2lkdGg6NzAycHg7aGVpZ2h0OjgzcHg7YmFja2dyb3VuZDojRkZGRkZGOyIgdmVyc2lvbj0iMS4xIiB2aWV3Qm94PSIwIDAgNzAyIDgzIiB3aWR0aD0iNzAycHgiIHpvb21BbmRQYW49Im1hZ25pZnkiPjxkZWZzLz48Zz48IS0tY2xhc3MgR2V0U2NyZWVuUXVlcnlIYW5kbGVyLS0+PGcgaWQ9ImVsZW1fR2V0U2NyZWVuUXVlcnlIYW5kbGVyIj48cmVjdCBjb2RlTGluZT0iMSIgZmlsbD0iI0YxRjFGMSIgaGVpZ2h0PSI2Mi45ODQ0IiBpZD0iR2V0U2NyZWVuUXVlcnlIYW5kbGVyIiByeD0iMi41IiByeT0iMi41IiBzdHlsZT0ic3Ryb2tlOiMxODE4MTg7c3Ryb2tlLXdpZHRoOjAuNTsiIHdpZHRoPSI2ODEiIHg9IjciIHk9IjciLz48ZWxsaXBzZSBjeD0iMjY5Ljc1IiBjeT0iMjMiIGZpbGw9IiNBREQxQjIiIHJ4PSIxMSIgcnk9IjExIiBzdHlsZT0ic3Ryb2tlOiMxODE4MTg7c3Ryb2tlLXdpZHRoOjEuMDsiLz48cGF0aCBkPSJNMjY3LjM3NSwyNy4yNSBMMjY3LjM3NSwyOSBMMjcyLjMxMjUsMjkgTDI3Mi4zMTI1LDI3LjI1IEwyNjcuMzc1LDI3LjI1IFogTTI2OC4wNjI1LDI3LjkzNzUgUTI2OC4wNjI1LDI3LjkzNzUgMjY4LjA2MjUsMTguNzUgTDI2Ni4zMTI1LDE4Ljc1IFEyNjYuMzEyNSwxOC43NSAyNjYuMzEyNSwyNy45Mzc1IEwyNjguMDYyNSwyNy45Mzc1IFogTTI3MS42MjUsMjcuOTM3NSBMMjczLjM3NSwyNy45Mzc1IFEyNzMuMzc1LDI3LjkzNzUgMjczLjM3NSwyNS4xMjUgTDI3MS42MjUsMjUuMTI1IFEyNzEuNjI1LDI1LjEyNSAyNzEuNjI1LDI3LjkzNzUgWiBNMjcxLjYyNSwxOC43NSBRMjcxLjYyNSwxOC43NSAyNzEuNjI1LDIxLjU2MjUgTDI3My4zNzUsMjEuNTYyNSBRMjczLjM3NSwyMS41NjI1IDI3My4zNzUsMTguNzUgTDI3MS42MjUsMTguNzUgWiBNMjY3LjM3NSwxOS40Mzc1IEwyNzIuMzEyNSwxOS40Mzc1IEwyNzIuMzEyNSwxNy42ODc1IEwyNjcuMzc1LDE3LjY4NzUgTDI2Ny4zNzUsMTkuNDM3NSBaICIgZmlsbD0iIzAwMDAwMCIvPjx0ZXh0IGZpbGw9IiMwMDAwMDAiIGZvbnQtZmFtaWx5PSJzYW5zLXNlcmlmIiBmb250LXNpemU9IjE0IiBsZW5ndGhBZGp1c3Q9InNwYWNpbmciIHRleHRMZW5ndGg9IjE0NyIgeD0iMjkwLjI1IiB5PSIyOC43NDIyIj5HZXRTY3JlZW5RdWVyeUhhbmRsZXI8L3RleHQ+PGxpbmUgc3R5bGU9InN0cm9rZTojMTgxODE4O3N0cm9rZS13aWR0aDowLjU7IiB4MT0iOCIgeDI9IjY4NyIgeTE9IjM5IiB5Mj0iMzkiLz48bGluZSBzdHlsZT0ic3Ryb2tlOiMxODE4MTg7c3Ryb2tlLXdpZHRoOjAuNTsiIHgxPSI4IiB4Mj0iNjg3IiB5MT0iNDciIHkyPSI0NyIvPjxlbGxpcHNlIGN4PSIxOCIgY3k9IjU5Ljk5MjIiIGZpbGw9IiM4NEJFODQiIHJ4PSIzIiByeT0iMyIgc3R5bGU9InN0cm9rZTojMDM4MDQ4O3N0cm9rZS13aWR0aDoxLjA7Ii8+PHRleHQgZmlsbD0iIzAwMDAwMCIgZm9udC1mYW1pbHk9InNhbnMtc2VyaWYiIGZvbnQtc2l6ZT0iMTQiIGxlbmd0aEFkanVzdD0ic3BhY2luZyIgdGV4dExlbmd0aD0iNjU1IiB4PSIyNyIgeT0iNjQuMjM0NCI+JiMxNzE7YXN5bmMmIzE4NzsgSGFuZGxlKHJlcXVlc3Q6R2V0U2NyZWVuUXVlcnksIGNhbmNlbGxhdGlvblRva2VuOkNhbmNlbGxhdGlvblRva2VuKSA6IFRhc2smbHQ7U2NyZWVuRHRvJmd0OzwvdGV4dD48L2c+PCEtLVNSQz1bSXl2OUIydk1TNHlqMkt1a0lhdEQyb25EQlFocUlDbkJvS2FqS2daY0tXMDJSR0tSY3lKWW9obmFFcGk1WThuNktNZlhRTWZuWUhNZ0RYczV2Q0l5dkRJU2RDSUlwRm95YUZwaXIzbWhQdEdISkdLaFhQMzR1Y21SWTRRTmFkbXhoYmUwXS0tPjwvZz48L3N2Zz4=;" vertex="1" parent="1">
            <mxGeometry x="1186" y="1670" width="702" height="83" as="geometry" />
          </mxCell>
        </UserObject>
        <UserObject label="" plantUmlData="{&#xa;  &quot;data&quot;: &quot;@startuml\nclass GetScreenProfileQuery {\n    + Id : int &lt;&lt;get&gt;&gt; &lt;&lt;set&gt;&gt;\n}\n@enduml\n&quot;,&#xa;  &quot;format&quot;: &quot;svg&quot;&#xa;}" id="inqcZ7f0K8DUZhspQT13-52">
          <mxCell style="shape=image;noLabel=1;verticalAlign=top;aspect=fixed;imageAspect=0;image=data:image/svg+xml,PD94bWwgdmVyc2lvbj0iMS4wIiBlbmNvZGluZz0idXMtYXNjaWkiIHN0YW5kYWxvbmU9Im5vIj8+PHN2ZyB4bWxucz0iaHR0cDovL3d3dy53My5vcmcvMjAwMC9zdmciIHhtbG5zOnhsaW5rPSJodHRwOi8vd3d3LnczLm9yZy8xOTk5L3hsaW5rIiBjb250ZW50U3R5bGVUeXBlPSJ0ZXh0L2NzcyIgaGVpZ2h0PSI4M3B4IiBwcmVzZXJ2ZUFzcGVjdFJhdGlvPSJub25lIiBzdHlsZT0id2lkdGg6MjAwcHg7aGVpZ2h0OjgzcHg7YmFja2dyb3VuZDojRkZGRkZGOyIgdmVyc2lvbj0iMS4xIiB2aWV3Qm94PSIwIDAgMjAwIDgzIiB3aWR0aD0iMjAwcHgiIHpvb21BbmRQYW49Im1hZ25pZnkiPjxkZWZzLz48Zz48IS0tY2xhc3MgR2V0U2NyZWVuUHJvZmlsZVF1ZXJ5LS0+PGcgaWQ9ImVsZW1fR2V0U2NyZWVuUHJvZmlsZVF1ZXJ5Ij48cmVjdCBjb2RlTGluZT0iMSIgZmlsbD0iI0YxRjFGMSIgaGVpZ2h0PSI2Mi45ODQ0IiBpZD0iR2V0U2NyZWVuUHJvZmlsZVF1ZXJ5IiByeD0iMi41IiByeT0iMi41IiBzdHlsZT0ic3Ryb2tlOiMxODE4MTg7c3Ryb2tlLXdpZHRoOjAuNTsiIHdpZHRoPSIxNzkiIHg9IjciIHk9IjciLz48ZWxsaXBzZSBjeD0iMjIiIGN5PSIyMyIgZmlsbD0iI0FERDFCMiIgcng9IjExIiByeT0iMTEiIHN0eWxlPSJzdHJva2U6IzE4MTgxODtzdHJva2Utd2lkdGg6MS4wOyIvPjxwYXRoIGQ9Ik0xOS42MjUsMjcuMjUgTDE5LjYyNSwyOSBMMjQuNTYyNSwyOSBMMjQuNTYyNSwyNy4yNSBMMTkuNjI1LDI3LjI1IFogTTIwLjMxMjUsMjcuOTM3NSBRMjAuMzEyNSwyNy45Mzc1IDIwLjMxMjUsMTguNzUgTDE4LjU2MjUsMTguNzUgUTE4LjU2MjUsMTguNzUgMTguNTYyNSwyNy45Mzc1IEwyMC4zMTI1LDI3LjkzNzUgWiBNMjMuODc1LDI3LjkzNzUgTDI1LjYyNSwyNy45Mzc1IFEyNS42MjUsMjcuOTM3NSAyNS42MjUsMjUuMTI1IEwyMy44NzUsMjUuMTI1IFEyMy44NzUsMjUuMTI1IDIzLjg3NSwyNy45Mzc1IFogTTIzLjg3NSwxOC43NSBRMjMuODc1LDE4Ljc1IDIzLjg3NSwyMS41NjI1IEwyNS42MjUsMjEuNTYyNSBRMjUuNjI1LDIxLjU2MjUgMjUuNjI1LDE4Ljc1IEwyMy44NzUsMTguNzUgWiBNMTkuNjI1LDE5LjQzNzUgTDI0LjU2MjUsMTkuNDM3NSBMMjQuNTYyNSwxNy42ODc1IEwxOS42MjUsMTcuNjg3NSBMMTkuNjI1LDE5LjQzNzUgWiAiIGZpbGw9IiMwMDAwMDAiLz48dGV4dCBmaWxsPSIjMDAwMDAwIiBmb250LWZhbWlseT0ic2Fucy1zZXJpZiIgZm9udC1zaXplPSIxNCIgbGVuZ3RoQWRqdXN0PSJzcGFjaW5nIiB0ZXh0TGVuZ3RoPSIxNDciIHg9IjM2IiB5PSIyOC43NDIyIj5HZXRTY3JlZW5Qcm9maWxlUXVlcnk8L3RleHQ+PGxpbmUgc3R5bGU9InN0cm9rZTojMTgxODE4O3N0cm9rZS13aWR0aDowLjU7IiB4MT0iOCIgeDI9IjE4NSIgeTE9IjM5IiB5Mj0iMzkiLz48ZWxsaXBzZSBjeD0iMTgiIGN5PSI1MS45OTIyIiBmaWxsPSJub25lIiByeD0iMyIgcnk9IjMiIHN0eWxlPSJzdHJva2U6IzAzODA0ODtzdHJva2Utd2lkdGg6MS4wOyIvPjx0ZXh0IGZpbGw9IiMwMDAwMDAiIGZvbnQtZmFtaWx5PSJzYW5zLXNlcmlmIiBmb250LXNpemU9IjE0IiBsZW5ndGhBZGp1c3Q9InNwYWNpbmciIHRleHRMZW5ndGg9IjE0NCIgeD0iMjciIHk9IjU2LjIzNDQiPklkIDogaW50ICYjMTcxO2dldCYjMTg3OyAmIzE3MTtzZXQmIzE4Nzs8L3RleHQ+PGxpbmUgc3R5bGU9InN0cm9rZTojMTgxODE4O3N0cm9rZS13aWR0aDowLjU7IiB4MT0iOCIgeDI9IjE4NSIgeTE9IjYxLjk4NDQiIHkyPSI2MS45ODQ0Ii8+PC9nPjwhLS1TUkM9W0l5djlCMnZNUzR5ajJLdWtJYXREMm9aQUp5bENJR3FpSklzZ0xBWmNLVzAyUkdORjUwS2hYU295NFdLUmNfSks0Wml4ODVxQ2VoYmcwRzAwXS0tPjwvZz48L3N2Zz4=;" vertex="1" parent="1">
            <mxGeometry x="936" y="820" width="200" height="83" as="geometry" />
          </mxCell>
        </UserObject>
        <UserObject label="" plantUmlData="{&#xa;  &quot;data&quot;: &quot;@startuml\nclass GetScreenProfileQueryHandler {\n    + &lt;&lt;async&gt;&gt; Handle(request:GetScreenProfileQuery, cancellationToken:CancellationToken) : Task&lt;ScreenProfileDto&gt;\n}\n@enduml\n&quot;,&#xa;  &quot;format&quot;: &quot;svg&quot;&#xa;}" id="inqcZ7f0K8DUZhspQT13-53">
          <mxCell style="shape=image;noLabel=1;verticalAlign=top;aspect=fixed;imageAspect=0;image=data:image/svg+xml,PD94bWwgdmVyc2lvbj0iMS4wIiBlbmNvZGluZz0idXMtYXNjaWkiIHN0YW5kYWxvbmU9Im5vIj8+PHN2ZyB4bWxucz0iaHR0cDovL3d3dy53My5vcmcvMjAwMC9zdmciIHhtbG5zOnhsaW5rPSJodHRwOi8vd3d3LnczLm9yZy8xOTk5L3hsaW5rIiBjb250ZW50U3R5bGVUeXBlPSJ0ZXh0L2NzcyIgaGVpZ2h0PSI4M3B4IiBwcmVzZXJ2ZUFzcGVjdFJhdGlvPSJub25lIiBzdHlsZT0id2lkdGg6ODAwcHg7aGVpZ2h0OjgzcHg7YmFja2dyb3VuZDojRkZGRkZGOyIgdmVyc2lvbj0iMS4xIiB2aWV3Qm94PSIwIDAgODAwIDgzIiB3aWR0aD0iODAwcHgiIHpvb21BbmRQYW49Im1hZ25pZnkiPjxkZWZzLz48Zz48IS0tY2xhc3MgR2V0U2NyZWVuUHJvZmlsZVF1ZXJ5SGFuZGxlci0tPjxnIGlkPSJlbGVtX0dldFNjcmVlblByb2ZpbGVRdWVyeUhhbmRsZXIiPjxyZWN0IGNvZGVMaW5lPSIxIiBmaWxsPSIjRjFGMUYxIiBoZWlnaHQ9IjYyLjk4NDQiIGlkPSJHZXRTY3JlZW5Qcm9maWxlUXVlcnlIYW5kbGVyIiByeD0iMi41IiByeT0iMi41IiBzdHlsZT0ic3Ryb2tlOiMxODE4MTg7c3Ryb2tlLXdpZHRoOjAuNTsiIHdpZHRoPSI3NzkiIHg9IjciIHk9IjciLz48ZWxsaXBzZSBjeD0iMjk0LjI1IiBjeT0iMjMiIGZpbGw9IiNBREQxQjIiIHJ4PSIxMSIgcnk9IjExIiBzdHlsZT0ic3Ryb2tlOiMxODE4MTg7c3Ryb2tlLXdpZHRoOjEuMDsiLz48cGF0aCBkPSJNMjkxLjg3NSwyNy4yNSBMMjkxLjg3NSwyOSBMMjk2LjgxMjUsMjkgTDI5Ni44MTI1LDI3LjI1IEwyOTEuODc1LDI3LjI1IFogTTI5Mi41NjI1LDI3LjkzNzUgUTI5Mi41NjI1LDI3LjkzNzUgMjkyLjU2MjUsMTguNzUgTDI5MC44MTI1LDE4Ljc1IFEyOTAuODEyNSwxOC43NSAyOTAuODEyNSwyNy45Mzc1IEwyOTIuNTYyNSwyNy45Mzc1IFogTTI5Ni4xMjUsMjcuOTM3NSBMMjk3Ljg3NSwyNy45Mzc1IFEyOTcuODc1LDI3LjkzNzUgMjk3Ljg3NSwyNS4xMjUgTDI5Ni4xMjUsMjUuMTI1IFEyOTYuMTI1LDI1LjEyNSAyOTYuMTI1LDI3LjkzNzUgWiBNMjk2LjEyNSwxOC43NSBRMjk2LjEyNSwxOC43NSAyOTYuMTI1LDIxLjU2MjUgTDI5Ny44NzUsMjEuNTYyNSBRMjk3Ljg3NSwyMS41NjI1IDI5Ny44NzUsMTguNzUgTDI5Ni4xMjUsMTguNzUgWiBNMjkxLjg3NSwxOS40Mzc1IEwyOTYuODEyNSwxOS40Mzc1IEwyOTYuODEyNSwxNy42ODc1IEwyOTEuODc1LDE3LjY4NzUgTDI5MS44NzUsMTkuNDM3NSBaICIgZmlsbD0iIzAwMDAwMCIvPjx0ZXh0IGZpbGw9IiMwMDAwMDAiIGZvbnQtZmFtaWx5PSJzYW5zLXNlcmlmIiBmb250LXNpemU9IjE0IiBsZW5ndGhBZGp1c3Q9InNwYWNpbmciIHRleHRMZW5ndGg9IjE5NiIgeD0iMzE0Ljc1IiB5PSIyOC43NDIyIj5HZXRTY3JlZW5Qcm9maWxlUXVlcnlIYW5kbGVyPC90ZXh0PjxsaW5lIHN0eWxlPSJzdHJva2U6IzE4MTgxODtzdHJva2Utd2lkdGg6MC41OyIgeDE9IjgiIHgyPSI3ODUiIHkxPSIzOSIgeTI9IjM5Ii8+PGxpbmUgc3R5bGU9InN0cm9rZTojMTgxODE4O3N0cm9rZS13aWR0aDowLjU7IiB4MT0iOCIgeDI9Ijc4NSIgeTE9IjQ3IiB5Mj0iNDciLz48ZWxsaXBzZSBjeD0iMTgiIGN5PSI1OS45OTIyIiBmaWxsPSIjODRCRTg0IiByeD0iMyIgcnk9IjMiIHN0eWxlPSJzdHJva2U6IzAzODA0ODtzdHJva2Utd2lkdGg6MS4wOyIvPjx0ZXh0IGZpbGw9IiMwMDAwMDAiIGZvbnQtZmFtaWx5PSJzYW5zLXNlcmlmIiBmb250LXNpemU9IjE0IiBsZW5ndGhBZGp1c3Q9InNwYWNpbmciIHRleHRMZW5ndGg9Ijc1MyIgeD0iMjciIHk9IjY0LjIzNDQiPiYjMTcxO2FzeW5jJiMxODc7IEhhbmRsZShyZXF1ZXN0OkdldFNjcmVlblByb2ZpbGVRdWVyeSwgY2FuY2VsbGF0aW9uVG9rZW46Q2FuY2VsbGF0aW9uVG9rZW4pIDogVGFzayZsdDtTY3JlZW5Qcm9maWxlRHRvJmd0OzwvdGV4dD48L2c+PCEtLVNSQz1bSXl2OUIydk1TNHlqMkt1a0lhdEQyb1pBSnlsQ0lHcWlKSXNnejRaQ0l5YjlCTEFldmI4MDBjcTU2dmw0dWlneVAzaXgxT1lDSGI1Z09NYmdTT2FMTGpxdzJpYzlVU2NmRUpjOTlQZHZVSTd2c1FidkxpeGU4ZmVBTFdlWFlTTlBEWVp3Tktob3hSWGcwRzAwXS0tPjwvZz48L3N2Zz4=;" vertex="1" parent="1">
            <mxGeometry x="1196" y="810" width="800" height="83" as="geometry" />
          </mxCell>
        </UserObject>
        <mxCell id="inqcZ7f0K8DUZhspQT13-55" value="App" style="shape=umlFrame;whiteSpace=wrap;html=1;pointerEvents=0;" vertex="1" parent="1">
          <mxGeometry x="850" width="1516" height="3100" as="geometry" />
        </mxCell>
        <mxCell id="inqcZ7f0K8DUZhspQT13-57" value="Api" style="shape=umlFrame;whiteSpace=wrap;html=1;pointerEvents=0;" vertex="1" parent="1">
          <mxGeometry x="-850" width="800" height="1110" as="geometry" />
        </mxCell>
        <mxCell id="inqcZ7f0K8DUZhspQT13-59" value="Contracts" style="shape=umlFrame;whiteSpace=wrap;html=1;pointerEvents=0;width=80;height=30;" vertex="1" parent="1">
          <mxGeometry x="-40" width="880" height="1110" as="geometry" />
        </mxCell>
        <mxCell id="inqcZ7f0K8DUZhspQT13-60" value="CrmDTOs" style="shape=umlFrame;whiteSpace=wrap;html=1;pointerEvents=0;width=80;height=30;" vertex="1" parent="1">
          <mxGeometry x="20" y="60" width="800" height="370" as="geometry" />
        </mxCell>
        <UserObject label="" plantUmlData="{&#xa;  &quot;data&quot;: &quot;@startuml\nclass OrderDto {\n    + Id : int &lt;&lt;get&gt;&gt; &lt;&lt;set&gt;&gt;\n    + CustomerId : int &lt;&lt;get&gt;&gt; &lt;&lt;set&gt;&gt;\n    + ClientName : string? &lt;&lt;get&gt;&gt; &lt;&lt;set&gt;&gt;\n}\n@enduml\n&quot;,&#xa;  &quot;format&quot;: &quot;svg&quot;&#xa;}" id="inqcZ7f0K8DUZhspQT13-61">
          <mxCell style="shape=image;noLabel=1;verticalAlign=top;aspect=fixed;imageAspect=0;image=data:image/svg+xml,PD94bWwgdmVyc2lvbj0iMS4wIiBlbmNvZGluZz0idXMtYXNjaWkiIHN0YW5kYWxvbmU9Im5vIj8+PHN2ZyB4bWxucz0iaHR0cDovL3d3dy53My5vcmcvMjAwMC9zdmciIHhtbG5zOnhsaW5rPSJodHRwOi8vd3d3LnczLm9yZy8xOTk5L3hsaW5rIiBjb250ZW50U3R5bGVUeXBlPSJ0ZXh0L2NzcyIgaGVpZ2h0PSIxMTNweCIgcHJlc2VydmVBc3BlY3RSYXRpbz0ibm9uZSIgc3R5bGU9IndpZHRoOjI3NnB4O2hlaWdodDoxMTNweDtiYWNrZ3JvdW5kOiNGRkZGRkY7IiB2ZXJzaW9uPSIxLjEiIHZpZXdCb3g9IjAgMCAyNzYgMTEzIiB3aWR0aD0iMjc2cHgiIHpvb21BbmRQYW49Im1hZ25pZnkiPjxkZWZzLz48Zz48IS0tY2xhc3MgT3JkZXJEdG8tLT48ZyBpZD0iZWxlbV9PcmRlckR0byI+PHJlY3QgY29kZUxpbmU9IjEiIGZpbGw9IiNGMUYxRjEiIGhlaWdodD0iOTIuOTUzMSIgaWQ9Ik9yZGVyRHRvIiByeD0iMi41IiByeT0iMi41IiBzdHlsZT0ic3Ryb2tlOiMxODE4MTg7c3Ryb2tlLXdpZHRoOjAuNTsiIHdpZHRoPSIyNTUiIHg9IjciIHk9IjciLz48ZWxsaXBzZSBjeD0iMTAyLjI1IiBjeT0iMjMiIGZpbGw9IiNBREQxQjIiIHJ4PSIxMSIgcnk9IjExIiBzdHlsZT0ic3Ryb2tlOiMxODE4MTg7c3Ryb2tlLXdpZHRoOjEuMDsiLz48cGF0aCBkPSJNOTkuODc1LDI3LjI1IEw5OS44NzUsMjkgTDEwNC44MTI1LDI5IEwxMDQuODEyNSwyNy4yNSBMOTkuODc1LDI3LjI1IFogTTEwMC41NjI1LDI3LjkzNzUgUTEwMC41NjI1LDI3LjkzNzUgMTAwLjU2MjUsMTguNzUgTDk4LjgxMjUsMTguNzUgUTk4LjgxMjUsMTguNzUgOTguODEyNSwyNy45Mzc1IEwxMDAuNTYyNSwyNy45Mzc1IFogTTEwNC4xMjUsMjcuOTM3NSBMMTA1Ljg3NSwyNy45Mzc1IFExMDUuODc1LDI3LjkzNzUgMTA1Ljg3NSwyNS4xMjUgTDEwNC4xMjUsMjUuMTI1IFExMDQuMTI1LDI1LjEyNSAxMDQuMTI1LDI3LjkzNzUgWiBNMTA0LjEyNSwxOC43NSBRMTA0LjEyNSwxOC43NSAxMDQuMTI1LDIxLjU2MjUgTDEwNS44NzUsMjEuNTYyNSBRMTA1Ljg3NSwyMS41NjI1IDEwNS44NzUsMTguNzUgTDEwNC4xMjUsMTguNzUgWiBNOTkuODc1LDE5LjQzNzUgTDEwNC44MTI1LDE5LjQzNzUgTDEwNC44MTI1LDE3LjY4NzUgTDk5Ljg3NSwxNy42ODc1IEw5OS44NzUsMTkuNDM3NSBaICIgZmlsbD0iIzAwMDAwMCIvPjx0ZXh0IGZpbGw9IiMwMDAwMDAiIGZvbnQtZmFtaWx5PSJzYW5zLXNlcmlmIiBmb250LXNpemU9IjE0IiBsZW5ndGhBZGp1c3Q9InNwYWNpbmciIHRleHRMZW5ndGg9IjU2IiB4PSIxMjIuNzUiIHk9IjI4Ljc0MjIiPk9yZGVyRHRvPC90ZXh0PjxsaW5lIHN0eWxlPSJzdHJva2U6IzE4MTgxODtzdHJva2Utd2lkdGg6MC41OyIgeDE9IjgiIHgyPSIyNjEiIHkxPSIzOSIgeTI9IjM5Ii8+PGVsbGlwc2UgY3g9IjE4IiBjeT0iNTEuOTkyMiIgZmlsbD0ibm9uZSIgcng9IjMiIHJ5PSIzIiBzdHlsZT0ic3Ryb2tlOiMwMzgwNDg7c3Ryb2tlLXdpZHRoOjEuMDsiLz48dGV4dCBmaWxsPSIjMDAwMDAwIiBmb250LWZhbWlseT0ic2Fucy1zZXJpZiIgZm9udC1zaXplPSIxNCIgbGVuZ3RoQWRqdXN0PSJzcGFjaW5nIiB0ZXh0TGVuZ3RoPSIxNDQiIHg9IjI3IiB5PSI1Ni4yMzQ0Ij5JZCA6IGludCAmIzE3MTtnZXQmIzE4NzsgJiMxNzE7c2V0JiMxODc7PC90ZXh0PjxlbGxpcHNlIGN4PSIxOCIgY3k9IjY2Ljk3NjYiIGZpbGw9Im5vbmUiIHJ4PSIzIiByeT0iMyIgc3R5bGU9InN0cm9rZTojMDM4MDQ4O3N0cm9rZS13aWR0aDoxLjA7Ii8+PHRleHQgZmlsbD0iIzAwMDAwMCIgZm9udC1mYW1pbHk9InNhbnMtc2VyaWYiIGZvbnQtc2l6ZT0iMTQiIGxlbmd0aEFkanVzdD0ic3BhY2luZyIgdGV4dExlbmd0aD0iMjAxIiB4PSIyNyIgeT0iNzEuMjE4OCI+Q3VzdG9tZXJJZCA6IGludCAmIzE3MTtnZXQmIzE4NzsgJiMxNzE7c2V0JiMxODc7PC90ZXh0PjxlbGxpcHNlIGN4PSIxOCIgY3k9IjgxLjk2MDkiIGZpbGw9Im5vbmUiIHJ4PSIzIiByeT0iMyIgc3R5bGU9InN0cm9rZTojMDM4MDQ4O3N0cm9rZS13aWR0aDoxLjA7Ii8+PHRleHQgZmlsbD0iIzAwMDAwMCIgZm9udC1mYW1pbHk9InNhbnMtc2VyaWYiIGZvbnQtc2l6ZT0iMTQiIGxlbmd0aEFkanVzdD0ic3BhY2luZyIgdGV4dExlbmd0aD0iMjI5IiB4PSIyNyIgeT0iODYuMjAzMSI+Q2xpZW50TmFtZSA6IHN0cmluZz8gJiMxNzE7Z2V0JiMxODc7ICYjMTcxO3NldCYjMTg3OzwvdGV4dD48bGluZSBzdHlsZT0ic3Ryb2tlOiMxODE4MTg7c3Ryb2tlLXdpZHRoOjAuNTsiIHgxPSI4IiB4Mj0iMjYxIiB5MT0iOTEuOTUzMSIgeTI9IjkxLjk1MzEiLz48L2c+PCEtLVNSQz1bSXl2OUIydk15MnpBSUlyb0FTYk5nRVBJMDA5ajFTeUsxSWs1cEJtSTFIa1J6REdJRXBpV05Hb1llVEJFZlNLYi1SY2ZIT0lLdk1JY3ZmTnU5VVFjMGZLTGJuSGJ2Z05ST29ZajFHMDBdLS0+PC9nPjwvc3ZnPg==;" vertex="1" parent="1">
            <mxGeometry x="80" y="120" width="276" height="113" as="geometry" />
          </mxCell>
        </UserObject>
        <UserObject label="" plantUmlData="{&#xa;  &quot;data&quot;: &quot;@startuml\nclass ErrorResponse {\n    + Errors : Dictionary&lt;string, string&gt; &lt;&lt;get&gt;&gt; &lt;&lt;set&gt;&gt;\n    + ErrorResponse(errors:List&lt;ValidationFailure&gt;)\n    + ErrorResponse(errors:Dictionary&lt;string, string&gt;)\n}\n@enduml\n&quot;,&#xa;  &quot;format&quot;: &quot;svg&quot;&#xa;}" id="inqcZ7f0K8DUZhspQT13-62">
          <mxCell style="shape=image;noLabel=1;verticalAlign=top;aspect=fixed;imageAspect=0;image=data:image/svg+xml,PD94bWwgdmVyc2lvbj0iMS4wIiBlbmNvZGluZz0idXMtYXNjaWkiIHN0YW5kYWxvbmU9Im5vIj8+PHN2ZyB4bWxucz0iaHR0cDovL3d3dy53My5vcmcvMjAwMC9zdmciIHhtbG5zOnhsaW5rPSJodHRwOi8vd3d3LnczLm9yZy8xOTk5L3hsaW5rIiBjb250ZW50U3R5bGVUeXBlPSJ0ZXh0L2NzcyIgaGVpZ2h0PSIxMTNweCIgcHJlc2VydmVBc3BlY3RSYXRpbz0ibm9uZSIgc3R5bGU9IndpZHRoOjM4NXB4O2hlaWdodDoxMTNweDtiYWNrZ3JvdW5kOiNGRkZGRkY7IiB2ZXJzaW9uPSIxLjEiIHZpZXdCb3g9IjAgMCAzODUgMTEzIiB3aWR0aD0iMzg1cHgiIHpvb21BbmRQYW49Im1hZ25pZnkiPjxkZWZzLz48Zz48IS0tY2xhc3MgRXJyb3JSZXNwb25zZS0tPjxnIGlkPSJlbGVtX0Vycm9yUmVzcG9uc2UiPjxyZWN0IGNvZGVMaW5lPSIxIiBmaWxsPSIjRjFGMUYxIiBoZWlnaHQ9IjkyLjk1MzEiIGlkPSJFcnJvclJlc3BvbnNlIiByeD0iMi41IiByeT0iMi41IiBzdHlsZT0ic3Ryb2tlOiMxODE4MTg7c3Ryb2tlLXdpZHRoOjAuNTsiIHdpZHRoPSIzNjQiIHg9IjciIHk9IjciLz48ZWxsaXBzZSBjeD0iMTM5LjI1IiBjeT0iMjMiIGZpbGw9IiNBREQxQjIiIHJ4PSIxMSIgcnk9IjExIiBzdHlsZT0ic3Ryb2tlOiMxODE4MTg7c3Ryb2tlLXdpZHRoOjEuMDsiLz48cGF0aCBkPSJNMTM2Ljg3NSwyNy4yNSBMMTM2Ljg3NSwyOSBMMTQxLjgxMjUsMjkgTDE0MS44MTI1LDI3LjI1IEwxMzYuODc1LDI3LjI1IFogTTEzNy41NjI1LDI3LjkzNzUgUTEzNy41NjI1LDI3LjkzNzUgMTM3LjU2MjUsMTguNzUgTDEzNS44MTI1LDE4Ljc1IFExMzUuODEyNSwxOC43NSAxMzUuODEyNSwyNy45Mzc1IEwxMzcuNTYyNSwyNy45Mzc1IFogTTE0MS4xMjUsMjcuOTM3NSBMMTQyLjg3NSwyNy45Mzc1IFExNDIuODc1LDI3LjkzNzUgMTQyLjg3NSwyNS4xMjUgTDE0MS4xMjUsMjUuMTI1IFExNDEuMTI1LDI1LjEyNSAxNDEuMTI1LDI3LjkzNzUgWiBNMTQxLjEyNSwxOC43NSBRMTQxLjEyNSwxOC43NSAxNDEuMTI1LDIxLjU2MjUgTDE0Mi44NzUsMjEuNTYyNSBRMTQyLjg3NSwyMS41NjI1IDE0Mi44NzUsMTguNzUgTDE0MS4xMjUsMTguNzUgWiBNMTM2Ljg3NSwxOS40Mzc1IEwxNDEuODEyNSwxOS40Mzc1IEwxNDEuODEyNSwxNy42ODc1IEwxMzYuODc1LDE3LjY4NzUgTDEzNi44NzUsMTkuNDM3NSBaICIgZmlsbD0iIzAwMDAwMCIvPjx0ZXh0IGZpbGw9IiMwMDAwMDAiIGZvbnQtZmFtaWx5PSJzYW5zLXNlcmlmIiBmb250LXNpemU9IjE0IiBsZW5ndGhBZGp1c3Q9InNwYWNpbmciIHRleHRMZW5ndGg9IjkxIiB4PSIxNTkuNzUiIHk9IjI4Ljc0MjIiPkVycm9yUmVzcG9uc2U8L3RleHQ+PGxpbmUgc3R5bGU9InN0cm9rZTojMTgxODE4O3N0cm9rZS13aWR0aDowLjU7IiB4MT0iOCIgeDI9IjM3MCIgeTE9IjM5IiB5Mj0iMzkiLz48ZWxsaXBzZSBjeD0iMTgiIGN5PSI1MS45OTIyIiBmaWxsPSJub25lIiByeD0iMyIgcnk9IjMiIHN0eWxlPSJzdHJva2U6IzAzODA0ODtzdHJva2Utd2lkdGg6MS4wOyIvPjx0ZXh0IGZpbGw9IiMwMDAwMDAiIGZvbnQtZmFtaWx5PSJzYW5zLXNlcmlmIiBmb250LXNpemU9IjE0IiBsZW5ndGhBZGp1c3Q9InNwYWNpbmciIHRleHRMZW5ndGg9IjMzMyIgeD0iMjciIHk9IjU2LjIzNDQiPkVycm9ycyA6IERpY3Rpb25hcnkmbHQ7c3RyaW5nLCBzdHJpbmcmZ3Q7ICYjMTcxO2dldCYjMTg3OyAmIzE3MTtzZXQmIzE4Nzs8L3RleHQ+PGxpbmUgc3R5bGU9InN0cm9rZTojMTgxODE4O3N0cm9rZS13aWR0aDowLjU7IiB4MT0iOCIgeDI9IjM3MCIgeTE9IjYxLjk4NDQiIHkyPSI2MS45ODQ0Ii8+PGVsbGlwc2UgY3g9IjE4IiBjeT0iNzQuOTc2NiIgZmlsbD0iIzg0QkU4NCIgcng9IjMiIHJ5PSIzIiBzdHlsZT0ic3Ryb2tlOiMwMzgwNDg7c3Ryb2tlLXdpZHRoOjEuMDsiLz48dGV4dCBmaWxsPSIjMDAwMDAwIiBmb250LWZhbWlseT0ic2Fucy1zZXJpZiIgZm9udC1zaXplPSIxNCIgbGVuZ3RoQWRqdXN0PSJzcGFjaW5nIiB0ZXh0TGVuZ3RoPSIzMTciIHg9IjI3IiB5PSI3OS4yMTg4Ij5FcnJvclJlc3BvbnNlKGVycm9yczpMaXN0Jmx0O1ZhbGlkYXRpb25GYWlsdXJlJmd0Oyk8L3RleHQ+PGVsbGlwc2UgY3g9IjE4IiBjeT0iODkuOTYwOSIgZmlsbD0iIzg0QkU4NCIgcng9IjMiIHJ5PSIzIiBzdHlsZT0ic3Ryb2tlOiMwMzgwNDg7c3Ryb2tlLXdpZHRoOjEuMDsiLz48dGV4dCBmaWxsPSIjMDAwMDAwIiBmb250LWZhbWlseT0ic2Fucy1zZXJpZiIgZm9udC1zaXplPSIxNCIgbGVuZ3RoQWRqdXN0PSJzcGFjaW5nIiB0ZXh0TGVuZ3RoPSIzMzgiIHg9IjI3IiB5PSI5NC4yMDMxIj5FcnJvclJlc3BvbnNlKGVycm9yczpEaWN0aW9uYXJ5Jmx0O3N0cmluZywgc3RyaW5nJmd0Oyk8L3RleHQ+PC9nPjwhLS1TUkM9W0l5djlCMnZNUzJxZ29ZeUFJWXFrb0N5aEpiTWV2YjgwMGNzOFFCNjJiTzlCUGQ5OVBkdlVPYjZiSk41OUtNUFVrZXUyWEJQSmlCNTlKb3NuMHo3NTgxZlA5eW15WkxJbUVMTy1jU0tiRGM2OUVQYWZZSTNKdDE4cFNxZ0JLa3FxeVVkMVJSQ2NMb3EwXS0tPjwvZz48L3N2Zz4=;" vertex="1" parent="1">
            <mxGeometry x="60" y="480" width="385" height="113" as="geometry" />
          </mxCell>
        </UserObject>
        <mxCell id="inqcZ7f0K8DUZhspQT13-63" value="Reponse" style="shape=umlFrame;whiteSpace=wrap;html=1;pointerEvents=0;width=80;height=30;" vertex="1" parent="1">
          <mxGeometry x="20" y="440" width="800" height="190" as="geometry" />
        </mxCell>
        <UserObject label="" plantUmlData="{&#xa;  &quot;data&quot;: &quot;@startuml\nclass PairScreenDto {\n    + PairingCode : string &lt;&lt;get&gt;&gt; &lt;&lt;set&gt;&gt;\n    + ScreenProfileId : int &lt;&lt;get&gt;&gt; &lt;&lt;set&gt;&gt;\n}\n@enduml\n&quot;,&#xa;  &quot;format&quot;: &quot;svg&quot;&#xa;}" id="inqcZ7f0K8DUZhspQT13-64">
          <mxCell style="shape=image;noLabel=1;verticalAlign=top;aspect=fixed;imageAspect=0;image=data:image/svg+xml,PD94bWwgdmVyc2lvbj0iMS4wIiBlbmNvZGluZz0idXMtYXNjaWkiIHN0YW5kYWxvbmU9Im5vIj8+PHN2ZyB4bWxucz0iaHR0cDovL3d3dy53My5vcmcvMjAwMC9zdmciIHhtbG5zOnhsaW5rPSJodHRwOi8vd3d3LnczLm9yZy8xOTk5L3hsaW5rIiBjb250ZW50U3R5bGVUeXBlPSJ0ZXh0L2NzcyIgaGVpZ2h0PSI5OHB4IiBwcmVzZXJ2ZUFzcGVjdFJhdGlvPSJub25lIiBzdHlsZT0id2lkdGg6MjgycHg7aGVpZ2h0Ojk4cHg7YmFja2dyb3VuZDojRkZGRkZGOyIgdmVyc2lvbj0iMS4xIiB2aWV3Qm94PSIwIDAgMjgyIDk4IiB3aWR0aD0iMjgycHgiIHpvb21BbmRQYW49Im1hZ25pZnkiPjxkZWZzLz48Zz48IS0tY2xhc3MgUGFpclNjcmVlbkR0by0tPjxnIGlkPSJlbGVtX1BhaXJTY3JlZW5EdG8iPjxyZWN0IGNvZGVMaW5lPSIxIiBmaWxsPSIjRjFGMUYxIiBoZWlnaHQ9Ijc3Ljk2ODgiIGlkPSJQYWlyU2NyZWVuRHRvIiByeD0iMi41IiByeT0iMi41IiBzdHlsZT0ic3Ryb2tlOiMxODE4MTg7c3Ryb2tlLXdpZHRoOjAuNTsiIHdpZHRoPSIyNjEiIHg9IjciIHk9IjciLz48ZWxsaXBzZSBjeD0iODcuNzUiIGN5PSIyMyIgZmlsbD0iI0FERDFCMiIgcng9IjExIiByeT0iMTEiIHN0eWxlPSJzdHJva2U6IzE4MTgxODtzdHJva2Utd2lkdGg6MS4wOyIvPjxwYXRoIGQ9Ik04NS4zNzUsMjcuMjUgTDg1LjM3NSwyOSBMOTAuMzEyNSwyOSBMOTAuMzEyNSwyNy4yNSBMODUuMzc1LDI3LjI1IFogTTg2LjA2MjUsMjcuOTM3NSBRODYuMDYyNSwyNy45Mzc1IDg2LjA2MjUsMTguNzUgTDg0LjMxMjUsMTguNzUgUTg0LjMxMjUsMTguNzUgODQuMzEyNSwyNy45Mzc1IEw4Ni4wNjI1LDI3LjkzNzUgWiBNODkuNjI1LDI3LjkzNzUgTDkxLjM3NSwyNy45Mzc1IFE5MS4zNzUsMjcuOTM3NSA5MS4zNzUsMjUuMTI1IEw4OS42MjUsMjUuMTI1IFE4OS42MjUsMjUuMTI1IDg5LjYyNSwyNy45Mzc1IFogTTg5LjYyNSwxOC43NSBRODkuNjI1LDE4Ljc1IDg5LjYyNSwyMS41NjI1IEw5MS4zNzUsMjEuNTYyNSBROTEuMzc1LDIxLjU2MjUgOTEuMzc1LDE4Ljc1IEw4OS42MjUsMTguNzUgWiBNODUuMzc1LDE5LjQzNzUgTDkwLjMxMjUsMTkuNDM3NSBMOTAuMzEyNSwxNy42ODc1IEw4NS4zNzUsMTcuNjg3NSBMODUuMzc1LDE5LjQzNzUgWiAiIGZpbGw9IiMwMDAwMDAiLz48dGV4dCBmaWxsPSIjMDAwMDAwIiBmb250LWZhbWlseT0ic2Fucy1zZXJpZiIgZm9udC1zaXplPSIxNCIgbGVuZ3RoQWRqdXN0PSJzcGFjaW5nIiB0ZXh0TGVuZ3RoPSI5MSIgeD0iMTA4LjI1IiB5PSIyOC43NDIyIj5QYWlyU2NyZWVuRHRvPC90ZXh0PjxsaW5lIHN0eWxlPSJzdHJva2U6IzE4MTgxODtzdHJva2Utd2lkdGg6MC41OyIgeDE9IjgiIHgyPSIyNjciIHkxPSIzOSIgeTI9IjM5Ii8+PGVsbGlwc2UgY3g9IjE4IiBjeT0iNTEuOTkyMiIgZmlsbD0ibm9uZSIgcng9IjMiIHJ5PSIzIiBzdHlsZT0ic3Ryb2tlOiMwMzgwNDg7c3Ryb2tlLXdpZHRoOjEuMDsiLz48dGV4dCBmaWxsPSIjMDAwMDAwIiBmb250LWZhbWlseT0ic2Fucy1zZXJpZiIgZm9udC1zaXplPSIxNCIgbGVuZ3RoQWRqdXN0PSJzcGFjaW5nIiB0ZXh0TGVuZ3RoPSIyMjgiIHg9IjI3IiB5PSI1Ni4yMzQ0Ij5QYWlyaW5nQ29kZSA6IHN0cmluZyAmIzE3MTtnZXQmIzE4NzsgJiMxNzE7c2V0JiMxODc7PC90ZXh0PjxlbGxpcHNlIGN4PSIxOCIgY3k9IjY2Ljk3NjYiIGZpbGw9Im5vbmUiIHJ4PSIzIiByeT0iMyIgc3R5bGU9InN0cm9rZTojMDM4MDQ4O3N0cm9rZS13aWR0aDoxLjA7Ii8+PHRleHQgZmlsbD0iIzAwMDAwMCIgZm9udC1mYW1pbHk9InNhbnMtc2VyaWYiIGZvbnQtc2l6ZT0iMTQiIGxlbmd0aEFkanVzdD0ic3BhY2luZyIgdGV4dExlbmd0aD0iMjM1IiB4PSIyNyIgeT0iNzEuMjE4OCI+U2NyZWVuUHJvZmlsZUlkIDogaW50ICYjMTcxO2dldCYjMTg3OyAmIzE3MTtzZXQmIzE4Nzs8L3RleHQ+PGxpbmUgc3R5bGU9InN0cm9rZTojMTgxODE4O3N0cm9rZS13aWR0aDowLjU7IiB4MT0iOCIgeDI9IjI2NyIgeTE9Ijc2Ljk2ODgiIHkyPSI3Ni45Njg4Ii8+PC9nPjwhLS1TUkM9W0l5djlCMnZNMjRaQ0IwZkVCYWZEcE5DZm9MVWV2YjgwMGNzbVE2UFVrZEQtSWdnMmJLOW4yT1laTzZFSmRiZllQbVVhWXE0cUwyYjRTcTFIVmJmY0pnZmQyYjF2UGJ1OVhqZlEwMDAwXS0tPjwvZz48L3N2Zz4=;" vertex="1" parent="1">
            <mxGeometry x="40" y="680" width="282" height="98" as="geometry" />
          </mxCell>
        </UserObject>
        <UserObject label="" plantUmlData="{&#xa;  &quot;data&quot;: &quot;@startuml\nclass ScreenDto {\n    + Id : int &lt;&lt;get&gt;&gt; &lt;&lt;set&gt;&gt;\n    + ScreenProfileId : int &lt;&lt;get&gt;&gt; &lt;&lt;set&gt;&gt;\n}\n@enduml\n\n&quot;,&#xa;  &quot;format&quot;: &quot;svg&quot;&#xa;}" id="inqcZ7f0K8DUZhspQT13-65">
          <mxCell style="shape=image;noLabel=1;verticalAlign=top;aspect=fixed;imageAspect=0;image=data:image/svg+xml,PD94bWwgdmVyc2lvbj0iMS4wIiBlbmNvZGluZz0idXMtYXNjaWkiIHN0YW5kYWxvbmU9Im5vIj8+PHN2ZyB4bWxucz0iaHR0cDovL3d3dy53My5vcmcvMjAwMC9zdmciIHhtbG5zOnhsaW5rPSJodHRwOi8vd3d3LnczLm9yZy8xOTk5L3hsaW5rIiBjb250ZW50U3R5bGVUeXBlPSJ0ZXh0L2NzcyIgaGVpZ2h0PSI5OHB4IiBwcmVzZXJ2ZUFzcGVjdFJhdGlvPSJub25lIiBzdHlsZT0id2lkdGg6MjgycHg7aGVpZ2h0Ojk4cHg7YmFja2dyb3VuZDojRkZGRkZGOyIgdmVyc2lvbj0iMS4xIiB2aWV3Qm94PSIwIDAgMjgyIDk4IiB3aWR0aD0iMjgycHgiIHpvb21BbmRQYW49Im1hZ25pZnkiPjxkZWZzLz48Zz48IS0tY2xhc3MgU2NyZWVuRHRvLS0+PGcgaWQ9ImVsZW1fU2NyZWVuRHRvIj48cmVjdCBjb2RlTGluZT0iMSIgZmlsbD0iI0YxRjFGMSIgaGVpZ2h0PSI3Ny45Njg4IiBpZD0iU2NyZWVuRHRvIiByeD0iMi41IiByeT0iMi41IiBzdHlsZT0ic3Ryb2tlOiMxODE4MTg7c3Ryb2tlLXdpZHRoOjAuNTsiIHdpZHRoPSIyNjEiIHg9IjciIHk9IjciLz48ZWxsaXBzZSBjeD0iMTAxLjc1IiBjeT0iMjMiIGZpbGw9IiNBREQxQjIiIHJ4PSIxMSIgcnk9IjExIiBzdHlsZT0ic3Ryb2tlOiMxODE4MTg7c3Ryb2tlLXdpZHRoOjEuMDsiLz48cGF0aCBkPSJNOTkuMzc1LDI3LjI1IEw5OS4zNzUsMjkgTDEwNC4zMTI1LDI5IEwxMDQuMzEyNSwyNy4yNSBMOTkuMzc1LDI3LjI1IFogTTEwMC4wNjI1LDI3LjkzNzUgUTEwMC4wNjI1LDI3LjkzNzUgMTAwLjA2MjUsMTguNzUgTDk4LjMxMjUsMTguNzUgUTk4LjMxMjUsMTguNzUgOTguMzEyNSwyNy45Mzc1IEwxMDAuMDYyNSwyNy45Mzc1IFogTTEwMy42MjUsMjcuOTM3NSBMMTA1LjM3NSwyNy45Mzc1IFExMDUuMzc1LDI3LjkzNzUgMTA1LjM3NSwyNS4xMjUgTDEwMy42MjUsMjUuMTI1IFExMDMuNjI1LDI1LjEyNSAxMDMuNjI1LDI3LjkzNzUgWiBNMTAzLjYyNSwxOC43NSBRMTAzLjYyNSwxOC43NSAxMDMuNjI1LDIxLjU2MjUgTDEwNS4zNzUsMjEuNTYyNSBRMTA1LjM3NSwyMS41NjI1IDEwNS4zNzUsMTguNzUgTDEwMy42MjUsMTguNzUgWiBNOTkuMzc1LDE5LjQzNzUgTDEwNC4zMTI1LDE5LjQzNzUgTDEwNC4zMTI1LDE3LjY4NzUgTDk5LjM3NSwxNy42ODc1IEw5OS4zNzUsMTkuNDM3NSBaICIgZmlsbD0iIzAwMDAwMCIvPjx0ZXh0IGZpbGw9IiMwMDAwMDAiIGZvbnQtZmFtaWx5PSJzYW5zLXNlcmlmIiBmb250LXNpemU9IjE0IiBsZW5ndGhBZGp1c3Q9InNwYWNpbmciIHRleHRMZW5ndGg9IjYzIiB4PSIxMjIuMjUiIHk9IjI4Ljc0MjIiPlNjcmVlbkR0bzwvdGV4dD48bGluZSBzdHlsZT0ic3Ryb2tlOiMxODE4MTg7c3Ryb2tlLXdpZHRoOjAuNTsiIHgxPSI4IiB4Mj0iMjY3IiB5MT0iMzkiIHkyPSIzOSIvPjxlbGxpcHNlIGN4PSIxOCIgY3k9IjUxLjk5MjIiIGZpbGw9Im5vbmUiIHJ4PSIzIiByeT0iMyIgc3R5bGU9InN0cm9rZTojMDM4MDQ4O3N0cm9rZS13aWR0aDoxLjA7Ii8+PHRleHQgZmlsbD0iIzAwMDAwMCIgZm9udC1mYW1pbHk9InNhbnMtc2VyaWYiIGZvbnQtc2l6ZT0iMTQiIGxlbmd0aEFkanVzdD0ic3BhY2luZyIgdGV4dExlbmd0aD0iMTQ0IiB4PSIyNyIgeT0iNTYuMjM0NCI+SWQgOiBpbnQgJiMxNzE7Z2V0JiMxODc7ICYjMTcxO3NldCYjMTg3OzwvdGV4dD48ZWxsaXBzZSBjeD0iMTgiIGN5PSI2Ni45NzY2IiBmaWxsPSJub25lIiByeD0iMyIgcnk9IjMiIHN0eWxlPSJzdHJva2U6IzAzODA0ODtzdHJva2Utd2lkdGg6MS4wOyIvPjx0ZXh0IGZpbGw9IiMwMDAwMDAiIGZvbnQtZmFtaWx5PSJzYW5zLXNlcmlmIiBmb250LXNpemU9IjE0IiBsZW5ndGhBZGp1c3Q9InNwYWNpbmciIHRleHRMZW5ndGg9IjIzNSIgeD0iMjciIHk9IjcxLjIxODgiPlNjcmVlblByb2ZpbGVJZCA6IGludCAmIzE3MTtnZXQmIzE4NzsgJiMxNzE7c2V0JiMxODc7PC90ZXh0PjxsaW5lIHN0eWxlPSJzdHJva2U6IzE4MTgxODtzdHJva2Utd2lkdGg6MC41OyIgeDE9IjgiIHgyPSIyNjciIHkxPSI3Ni45Njg4IiB5Mj0iNzYuOTY4OCIvPjwvZz48IS0tU1JDPVtJeXY5QjJ2TTI0dWtJYXREU29kOUx3WmNLVzAyUkdORjUwS2hYU295NFdLUmNfSks0Wml4ODVxQ2VnN0k0MHExSFZiZmNKY2ZFRE5NMFcwMF0tLT48L2c+PC9zdmc+;" vertex="1" parent="1">
            <mxGeometry x="50" y="812.5" width="282" height="98" as="geometry" />
          </mxCell>
        </UserObject>
        <UserObject label="" plantUmlData="{&#xa;  &quot;data&quot;: &quot;@startuml\nclass CreateScreenProfileDto {\n    + Name : string &lt;&lt;get&gt;&gt; &lt;&lt;set&gt;&gt;\n}\n@enduml\n&quot;,&#xa;  &quot;format&quot;: &quot;svg&quot;&#xa;}" id="inqcZ7f0K8DUZhspQT13-66">
          <mxCell style="shape=image;noLabel=1;verticalAlign=top;aspect=fixed;imageAspect=0;image=data:image/svg+xml,PD94bWwgdmVyc2lvbj0iMS4wIiBlbmNvZGluZz0idXMtYXNjaWkiIHN0YW5kYWxvbmU9Im5vIj8+PHN2ZyB4bWxucz0iaHR0cDovL3d3dy53My5vcmcvMjAwMC9zdmciIHhtbG5zOnhsaW5rPSJodHRwOi8vd3d3LnczLm9yZy8xOTk5L3hsaW5rIiBjb250ZW50U3R5bGVUeXBlPSJ0ZXh0L2NzcyIgaGVpZ2h0PSI4M3B4IiBwcmVzZXJ2ZUFzcGVjdFJhdGlvPSJub25lIiBzdHlsZT0id2lkdGg6MjI3cHg7aGVpZ2h0OjgzcHg7YmFja2dyb3VuZDojRkZGRkZGOyIgdmVyc2lvbj0iMS4xIiB2aWV3Qm94PSIwIDAgMjI3IDgzIiB3aWR0aD0iMjI3cHgiIHpvb21BbmRQYW49Im1hZ25pZnkiPjxkZWZzLz48Zz48IS0tY2xhc3MgQ3JlYXRlU2NyZWVuUHJvZmlsZUR0by0tPjxnIGlkPSJlbGVtX0NyZWF0ZVNjcmVlblByb2ZpbGVEdG8iPjxyZWN0IGNvZGVMaW5lPSIxIiBmaWxsPSIjRjFGMUYxIiBoZWlnaHQ9IjYyLjk4NDQiIGlkPSJDcmVhdGVTY3JlZW5Qcm9maWxlRHRvIiByeD0iMi41IiByeT0iMi41IiBzdHlsZT0ic3Ryb2tlOiMxODE4MTg7c3Ryb2tlLXdpZHRoOjAuNTsiIHdpZHRoPSIyMDYiIHg9IjciIHk9IjciLz48ZWxsaXBzZSBjeD0iMzEiIGN5PSIyMyIgZmlsbD0iI0FERDFCMiIgcng9IjExIiByeT0iMTEiIHN0eWxlPSJzdHJva2U6IzE4MTgxODtzdHJva2Utd2lkdGg6MS4wOyIvPjxwYXRoIGQ9Ik0yOC42MjUsMjcuMjUgTDI4LjYyNSwyOSBMMzMuNTYyNSwyOSBMMzMuNTYyNSwyNy4yNSBMMjguNjI1LDI3LjI1IFogTTI5LjMxMjUsMjcuOTM3NSBRMjkuMzEyNSwyNy45Mzc1IDI5LjMxMjUsMTguNzUgTDI3LjU2MjUsMTguNzUgUTI3LjU2MjUsMTguNzUgMjcuNTYyNSwyNy45Mzc1IEwyOS4zMTI1LDI3LjkzNzUgWiBNMzIuODc1LDI3LjkzNzUgTDM0LjYyNSwyNy45Mzc1IFEzNC42MjUsMjcuOTM3NSAzNC42MjUsMjUuMTI1IEwzMi44NzUsMjUuMTI1IFEzMi44NzUsMjUuMTI1IDMyLjg3NSwyNy45Mzc1IFogTTMyLjg3NSwxOC43NSBRMzIuODc1LDE4Ljc1IDMyLjg3NSwyMS41NjI1IEwzNC42MjUsMjEuNTYyNSBRMzQuNjI1LDIxLjU2MjUgMzQuNjI1LDE4Ljc1IEwzMi44NzUsMTguNzUgWiBNMjguNjI1LDE5LjQzNzUgTDMzLjU2MjUsMTkuNDM3NSBMMzMuNTYyNSwxNy42ODc1IEwyOC42MjUsMTcuNjg3NSBMMjguNjI1LDE5LjQzNzUgWiAiIGZpbGw9IiMwMDAwMDAiLz48dGV4dCBmaWxsPSIjMDAwMDAwIiBmb250LWZhbWlseT0ic2Fucy1zZXJpZiIgZm9udC1zaXplPSIxNCIgbGVuZ3RoQWRqdXN0PSJzcGFjaW5nIiB0ZXh0TGVuZ3RoPSIxNTQiIHg9IjQ3IiB5PSIyOC43NDIyIj5DcmVhdGVTY3JlZW5Qcm9maWxlRHRvPC90ZXh0PjxsaW5lIHN0eWxlPSJzdHJva2U6IzE4MTgxODtzdHJva2Utd2lkdGg6MC41OyIgeDE9IjgiIHgyPSIyMTIiIHkxPSIzOSIgeTI9IjM5Ii8+PGVsbGlwc2UgY3g9IjE4IiBjeT0iNTEuOTkyMiIgZmlsbD0ibm9uZSIgcng9IjMiIHJ5PSIzIiBzdHlsZT0ic3Ryb2tlOiMwMzgwNDg7c3Ryb2tlLXdpZHRoOjEuMDsiLz48dGV4dCBmaWxsPSIjMDAwMDAwIiBmb250LWZhbWlseT0ic2Fucy1zZXJpZiIgZm9udC1zaXplPSIxNCIgbGVuZ3RoQWRqdXN0PSJzcGFjaW5nIiB0ZXh0TGVuZ3RoPSIxODAiIHg9IjI3IiB5PSI1Ni4yMzQ0Ij5OYW1lIDogc3RyaW5nICYjMTcxO2dldCYjMTg3OyAmIzE3MTtzZXQmIzE4Nzs8L3RleHQ+PGxpbmUgc3R5bGU9InN0cm9rZTojMTgxODE4O3N0cm9rZS13aWR0aDowLjU7IiB4MT0iOCIgeDI9IjIxMiIgeTE9IjYxLjk4NDQiIHkyPSI2MS45ODQ0Ii8+PC9nPjwhLS1TUkM9W0l5djlCMnZNUzJ2QUpJbjkzS3VrSWF0RDJvWkFKeWxDSU5LZm9MVWV2YjgwMGNxNWx5SlNMMEtoWFVBSWVpb3lUMEtSY19KSzRaaXg4NXFDZWhiZzBHMDBdLS0+PC9nPjwvc3ZnPg==;" vertex="1" parent="1">
            <mxGeometry x="60" y="960" width="227" height="83" as="geometry" />
          </mxCell>
        </UserObject>
        <UserObject label="" plantUmlData="{&#xa;  &quot;data&quot;: &quot;@startuml\nclass ScreenProfileDto {\n    + Id : int &lt;&lt;get&gt;&gt; &lt;&lt;set&gt;&gt;\n    + Name : string &lt;&lt;get&gt;&gt; &lt;&lt;set&gt;&gt;\n    + Screens : List&lt;ScreenDto&gt; &lt;&lt;get&gt;&gt; &lt;&lt;set&gt;&gt;\n}\n@enduml\n\n&quot;,&#xa;  &quot;format&quot;: &quot;svg&quot;&#xa;}" id="inqcZ7f0K8DUZhspQT13-67">
          <mxCell style="shape=image;noLabel=1;verticalAlign=top;aspect=fixed;imageAspect=0;image=data:image/svg+xml,PD94bWwgdmVyc2lvbj0iMS4wIiBlbmNvZGluZz0idXMtYXNjaWkiIHN0YW5kYWxvbmU9Im5vIj8+PHN2ZyB4bWxucz0iaHR0cDovL3d3dy53My5vcmcvMjAwMC9zdmciIHhtbG5zOnhsaW5rPSJodHRwOi8vd3d3LnczLm9yZy8xOTk5L3hsaW5rIiBjb250ZW50U3R5bGVUeXBlPSJ0ZXh0L2NzcyIgaGVpZ2h0PSIxMTNweCIgcHJlc2VydmVBc3BlY3RSYXRpbz0ibm9uZSIgc3R5bGU9IndpZHRoOjMxMHB4O2hlaWdodDoxMTNweDtiYWNrZ3JvdW5kOiNGRkZGRkY7IiB2ZXJzaW9uPSIxLjEiIHZpZXdCb3g9IjAgMCAzMTAgMTEzIiB3aWR0aD0iMzEwcHgiIHpvb21BbmRQYW49Im1hZ25pZnkiPjxkZWZzLz48Zz48IS0tY2xhc3MgU2NyZWVuUHJvZmlsZUR0by0tPjxnIGlkPSJlbGVtX1NjcmVlblByb2ZpbGVEdG8iPjxyZWN0IGNvZGVMaW5lPSIxIiBmaWxsPSIjRjFGMUYxIiBoZWlnaHQ9IjkyLjk1MzEiIGlkPSJTY3JlZW5Qcm9maWxlRHRvIiByeD0iMi41IiByeT0iMi41IiBzdHlsZT0ic3Ryb2tlOiMxODE4MTg7c3Ryb2tlLXdpZHRoOjAuNTsiIHdpZHRoPSIyODkiIHg9IjciIHk9IjciLz48ZWxsaXBzZSBjeD0iOTEuMjUiIGN5PSIyMyIgZmlsbD0iI0FERDFCMiIgcng9IjExIiByeT0iMTEiIHN0eWxlPSJzdHJva2U6IzE4MTgxODtzdHJva2Utd2lkdGg6MS4wOyIvPjxwYXRoIGQ9Ik04OC44NzUsMjcuMjUgTDg4Ljg3NSwyOSBMOTMuODEyNSwyOSBMOTMuODEyNSwyNy4yNSBMODguODc1LDI3LjI1IFogTTg5LjU2MjUsMjcuOTM3NSBRODkuNTYyNSwyNy45Mzc1IDg5LjU2MjUsMTguNzUgTDg3LjgxMjUsMTguNzUgUTg3LjgxMjUsMTguNzUgODcuODEyNSwyNy45Mzc1IEw4OS41NjI1LDI3LjkzNzUgWiBNOTMuMTI1LDI3LjkzNzUgTDk0Ljg3NSwyNy45Mzc1IFE5NC44NzUsMjcuOTM3NSA5NC44NzUsMjUuMTI1IEw5My4xMjUsMjUuMTI1IFE5My4xMjUsMjUuMTI1IDkzLjEyNSwyNy45Mzc1IFogTTkzLjEyNSwxOC43NSBROTMuMTI1LDE4Ljc1IDkzLjEyNSwyMS41NjI1IEw5NC44NzUsMjEuNTYyNSBROTQuODc1LDIxLjU2MjUgOTQuODc1LDE4Ljc1IEw5My4xMjUsMTguNzUgWiBNODguODc1LDE5LjQzNzUgTDkzLjgxMjUsMTkuNDM3NSBMOTMuODEyNSwxNy42ODc1IEw4OC44NzUsMTcuNjg3NSBMODguODc1LDE5LjQzNzUgWiAiIGZpbGw9IiMwMDAwMDAiLz48dGV4dCBmaWxsPSIjMDAwMDAwIiBmb250LWZhbWlseT0ic2Fucy1zZXJpZiIgZm9udC1zaXplPSIxNCIgbGVuZ3RoQWRqdXN0PSJzcGFjaW5nIiB0ZXh0TGVuZ3RoPSIxMTIiIHg9IjExMS43NSIgeT0iMjguNzQyMiI+U2NyZWVuUHJvZmlsZUR0bzwvdGV4dD48bGluZSBzdHlsZT0ic3Ryb2tlOiMxODE4MTg7c3Ryb2tlLXdpZHRoOjAuNTsiIHgxPSI4IiB4Mj0iMjk1IiB5MT0iMzkiIHkyPSIzOSIvPjxlbGxpcHNlIGN4PSIxOCIgY3k9IjUxLjk5MjIiIGZpbGw9Im5vbmUiIHJ4PSIzIiByeT0iMyIgc3R5bGU9InN0cm9rZTojMDM4MDQ4O3N0cm9rZS13aWR0aDoxLjA7Ii8+PHRleHQgZmlsbD0iIzAwMDAwMCIgZm9udC1mYW1pbHk9InNhbnMtc2VyaWYiIGZvbnQtc2l6ZT0iMTQiIGxlbmd0aEFkanVzdD0ic3BhY2luZyIgdGV4dExlbmd0aD0iMTQ0IiB4PSIyNyIgeT0iNTYuMjM0NCI+SWQgOiBpbnQgJiMxNzE7Z2V0JiMxODc7ICYjMTcxO3NldCYjMTg3OzwvdGV4dD48ZWxsaXBzZSBjeD0iMTgiIGN5PSI2Ni45NzY2IiBmaWxsPSJub25lIiByeD0iMyIgcnk9IjMiIHN0eWxlPSJzdHJva2U6IzAzODA0ODtzdHJva2Utd2lkdGg6MS4wOyIvPjx0ZXh0IGZpbGw9IiMwMDAwMDAiIGZvbnQtZmFtaWx5PSJzYW5zLXNlcmlmIiBmb250LXNpemU9IjE0IiBsZW5ndGhBZGp1c3Q9InNwYWNpbmciIHRleHRMZW5ndGg9IjE4MCIgeD0iMjciIHk9IjcxLjIxODgiPk5hbWUgOiBzdHJpbmcgJiMxNzE7Z2V0JiMxODc7ICYjMTcxO3NldCYjMTg3OzwvdGV4dD48ZWxsaXBzZSBjeD0iMTgiIGN5PSI4MS45NjA5IiBmaWxsPSJub25lIiByeD0iMyIgcnk9IjMiIHN0eWxlPSJzdHJva2U6IzAzODA0ODtzdHJva2Utd2lkdGg6MS4wOyIvPjx0ZXh0IGZpbGw9IiMwMDAwMDAiIGZvbnQtZmFtaWx5PSJzYW5zLXNlcmlmIiBmb250LXNpemU9IjE0IiBsZW5ndGhBZGp1c3Q9InNwYWNpbmciIHRleHRMZW5ndGg9IjI2MyIgeD0iMjciIHk9Ijg2LjIwMzEiPlNjcmVlbnMgOiBMaXN0Jmx0O1NjcmVlbkR0byZndDsgJiMxNzE7Z2V0JiMxODc7ICYjMTcxO3NldCYjMTg3OzwvdGV4dD48bGluZSBzdHlsZT0ic3Ryb2tlOiMxODE4MTg7c3Ryb2tlLXdpZHRoOjAuNTsiIHgxPSI4IiB4Mj0iMjk1IiB5MT0iOTEuOTUzMSIgeTI9IjkxLjk1MzEiLz48L2c+PCEtLVNSQz1bSXl2OUIydk0yNHVrSWF0RDJvWkFKeWxDSU5LZm9MVWV2YjgwMGNxNXBuRzVBdU5DbDE4NTZ2bHFyMTh4RW8xVDNBQVhxZHc5a1FiMDFTS2JIUGJ2d0paS0dDbWsxWWhwb0lta2lPNW1XTlJPT1FZbDFHMDBdLS0+PC9nPjwvc3ZnPg==;" vertex="1" parent="1">
            <mxGeometry x="70" y="1057" width="310" height="113" as="geometry" />
          </mxCell>
        </UserObject>
        <UserObject label="" plantUmlData="{&#xa;  &quot;data&quot;: &quot;@startuml\nclass UpdateScreenProfileDto {\n    + Name : string &lt;&lt;get&gt;&gt; &lt;&lt;set&gt;&gt;\n}\n@enduml\n&quot;,&#xa;  &quot;format&quot;: &quot;svg&quot;&#xa;}" id="inqcZ7f0K8DUZhspQT13-68">
          <mxCell style="shape=image;noLabel=1;verticalAlign=top;aspect=fixed;imageAspect=0;image=data:image/svg+xml,PD94bWwgdmVyc2lvbj0iMS4wIiBlbmNvZGluZz0idXMtYXNjaWkiIHN0YW5kYWxvbmU9Im5vIj8+PHN2ZyB4bWxucz0iaHR0cDovL3d3dy53My5vcmcvMjAwMC9zdmciIHhtbG5zOnhsaW5rPSJodHRwOi8vd3d3LnczLm9yZy8xOTk5L3hsaW5rIiBjb250ZW50U3R5bGVUeXBlPSJ0ZXh0L2NzcyIgaGVpZ2h0PSI4M3B4IiBwcmVzZXJ2ZUFzcGVjdFJhdGlvPSJub25lIiBzdHlsZT0id2lkdGg6MjI3cHg7aGVpZ2h0OjgzcHg7YmFja2dyb3VuZDojRkZGRkZGOyIgdmVyc2lvbj0iMS4xIiB2aWV3Qm94PSIwIDAgMjI3IDgzIiB3aWR0aD0iMjI3cHgiIHpvb21BbmRQYW49Im1hZ25pZnkiPjxkZWZzLz48Zz48IS0tY2xhc3MgVXBkYXRlU2NyZWVuUHJvZmlsZUR0by0tPjxnIGlkPSJlbGVtX1VwZGF0ZVNjcmVlblByb2ZpbGVEdG8iPjxyZWN0IGNvZGVMaW5lPSIxIiBmaWxsPSIjRjFGMUYxIiBoZWlnaHQ9IjYyLjk4NDQiIGlkPSJVcGRhdGVTY3JlZW5Qcm9maWxlRHRvIiByeD0iMi41IiByeT0iMi41IiBzdHlsZT0ic3Ryb2tlOiMxODE4MTg7c3Ryb2tlLXdpZHRoOjAuNTsiIHdpZHRoPSIyMDYiIHg9IjciIHk9IjciLz48ZWxsaXBzZSBjeD0iMzEiIGN5PSIyMyIgZmlsbD0iI0FERDFCMiIgcng9IjExIiByeT0iMTEiIHN0eWxlPSJzdHJva2U6IzE4MTgxODtzdHJva2Utd2lkdGg6MS4wOyIvPjxwYXRoIGQ9Ik0yOC42MjUsMjcuMjUgTDI4LjYyNSwyOSBMMzMuNTYyNSwyOSBMMzMuNTYyNSwyNy4yNSBMMjguNjI1LDI3LjI1IFogTTI5LjMxMjUsMjcuOTM3NSBRMjkuMzEyNSwyNy45Mzc1IDI5LjMxMjUsMTguNzUgTDI3LjU2MjUsMTguNzUgUTI3LjU2MjUsMTguNzUgMjcuNTYyNSwyNy45Mzc1IEwyOS4zMTI1LDI3LjkzNzUgWiBNMzIuODc1LDI3LjkzNzUgTDM0LjYyNSwyNy45Mzc1IFEzNC42MjUsMjcuOTM3NSAzNC42MjUsMjUuMTI1IEwzMi44NzUsMjUuMTI1IFEzMi44NzUsMjUuMTI1IDMyLjg3NSwyNy45Mzc1IFogTTMyLjg3NSwxOC43NSBRMzIuODc1LDE4Ljc1IDMyLjg3NSwyMS41NjI1IEwzNC42MjUsMjEuNTYyNSBRMzQuNjI1LDIxLjU2MjUgMzQuNjI1LDE4Ljc1IEwzMi44NzUsMTguNzUgWiBNMjguNjI1LDE5LjQzNzUgTDMzLjU2MjUsMTkuNDM3NSBMMzMuNTYyNSwxNy42ODc1IEwyOC42MjUsMTcuNjg3NSBMMjguNjI1LDE5LjQzNzUgWiAiIGZpbGw9IiMwMDAwMDAiLz48dGV4dCBmaWxsPSIjMDAwMDAwIiBmb250LWZhbWlseT0ic2Fucy1zZXJpZiIgZm9udC1zaXplPSIxNCIgbGVuZ3RoQWRqdXN0PSJzcGFjaW5nIiB0ZXh0TGVuZ3RoPSIxNTQiIHg9IjQ3IiB5PSIyOC43NDIyIj5VcGRhdGVTY3JlZW5Qcm9maWxlRHRvPC90ZXh0PjxsaW5lIHN0eWxlPSJzdHJva2U6IzE4MTgxODtzdHJva2Utd2lkdGg6MC41OyIgeDE9IjgiIHgyPSIyMTIiIHkxPSIzOSIgeTI9IjM5Ii8+PGVsbGlwc2UgY3g9IjE4IiBjeT0iNTEuOTkyMiIgZmlsbD0ibm9uZSIgcng9IjMiIHJ5PSIzIiBzdHlsZT0ic3Ryb2tlOiMwMzgwNDg7c3Ryb2tlLXdpZHRoOjEuMDsiLz48dGV4dCBmaWxsPSIjMDAwMDAwIiBmb250LWZhbWlseT0ic2Fucy1zZXJpZiIgZm9udC1zaXplPSIxNCIgbGVuZ3RoQWRqdXN0PSJzcGFjaW5nIiB0ZXh0TGVuZ3RoPSIxODAiIHg9IjI3IiB5PSI1Ni4yMzQ0Ij5OYW1lIDogc3RyaW5nICYjMTcxO2dldCYjMTg3OyAmIzE3MTtzZXQmIzE4Nzs8L3RleHQ+PGxpbmUgc3R5bGU9InN0cm9rZTojMTgxODE4O3N0cm9rZS13aWR0aDowLjU7IiB4MT0iOCIgeDI9IjIxMiIgeTE9IjYxLjk4NDQiIHkyPSI2MS45ODQ0Ii8+PC9nPjwhLS1TUkM9W0l5djlCMnZNMjJyOElJbjkzS3VrSWF0RDJvWkFKeWxDSU5LZm9MVWV2YjgwMGNxNWx5SlNMMEtoWFVBSWVpb3lUMEtSY19KSzRaaXg4NXFDZWhiZzBHMDBdLS0+PC9nPjwvc3ZnPg==;" vertex="1" parent="1">
            <mxGeometry x="77.5" y="1180" width="227" height="83" as="geometry" />
          </mxCell>
        </UserObject>
      </root>
    </mxGraphModel>
  </diagram>
</mxfile>
